<svg xmlns="http://www.w3.org/2000/svg" id="Layer_2" width="397.121" height="308.463" viewBox="0 0 397.121 308.463">
    <defs>
        <style>
            .cls-1{fill:#355389}.cls-2{fill:#466eb6}.cls-3{fill:#13375b}.cls-4{fill:#f7a491}.cls-5{fill:#3c8f7c}.cls-6{fill:#50bfa5}.cls-7{fill:#f47458}.cls-8{fill:#f7cc7f}.cls-10{fill:#e0973f}.cls-11{fill:#fae0b2}.cls-12{fill:#b75742}.cls-13{fill:#184655}.cls-14{fill:#f8a492}.cls-16{fill:#f48c7f}.cls-17{fill:#07345a}.cls-18{fill:#96d9c9}.cls-20{fill:#fff3d9}.cls-21{fill:#fed333}
        </style>
    </defs>
    <g id="Layer_1">
        <path id="Path_1539" d="M1149.514 1114.806s38.954-19.207 45.651-29.224-3.14-10.584-3.14-10.584 17.371-16.9 14.938-24.023-11.451-.59-11.451-.59 11.176-24.881 5.906-27.382c-9.816-4.659-23.585 22.112-23.585 22.112s2.959-11.628-3.8-11.252c-10.195.569-9.772 26.875-9.772 26.875s-1.153-10.086-7.3-6.808c-11.029 5.877-7.447 60.876-7.447 60.876z" class="cls-1" transform="translate(-908.488 -808.474)"/>
        <path id="Path_1540" d="M1152.562 1049.859c4.8-2.662 9.577 5.119 9.577 5.119s-.485-20.546 9.709-21.115c6.76-.377 3.8 11.251 3.8 11.251s13.769-26.771 23.585-22.112l-51.941 91.376c-.364-6.378-4.234-59.242 5.27-64.519z" class="cls-2" transform="translate(-906.313 -808.474)"/>
        <path id="Path_1541" d="M1156.42 1310s31.859 3.956 40.107.431 2.338-7.882 2.338-7.882 17.711-3.483 19.077-8.914-6.8-5-6.8-5 16.984-11 14.713-14.7c-4.23-6.894-23.7 4.209-23.7 4.209s6.57-6.051 2.2-8.562c-6.591-3.786-17.018 12.792-17.018 12.792s.649-4.085-4.514-4.54c-9.264-.808-26.403 32.166-26.403 32.166z" class="cls-1" transform="translate(-914.388 -1003.435)"/>
        <path id="Path_1542" d="M1182.283 1263.6c5.163.454 4.724 7.509 4.724 7.509s10.615-19.653 17.206-15.866c4.37 2.512-.8 10.758-.8 10.758s17.878-10.224 22.108-3.33L1156 1298.549c2.357-4.131 17.629-35.72 26.283-34.949z" class="cls-2" transform="translate(-914.056 -992.153)"/>
        <path id="Path_1543" d="M540.615 1110.013s-38.952-19.2-45.651-29.221 3.139-10.586 3.139-10.586-17.382-16.9-14.935-24.023 11.57-.316 11.57-.316-11.3-25.153-6.028-27.654c9.816-4.659 23.587 22.11 23.587 22.11s-2.959-11.628 3.8-11.252c10.195.571 9.774 26.878 9.774 26.878s1.151-10.086 7.3-6.81c11.029 5.878 7.444 60.874 7.444 60.874z" class="cls-1" transform="translate(-381.857 -804.687)"/>
        <path id="Path_1544" d="M557.253 1045.07c-4.8-2.662-9.575 5.119-9.575 5.119s.484-20.547-9.711-21.118c-6.758-.377-3.8 11.252-3.8 11.252s-13.772-26.769-23.588-22.11l51.941 91.374c.369-6.382 4.239-59.243-5.267-64.517z" class="cls-2" transform="translate(-403.719 -804.686)"/>
        <path id="Path_1545" d="M490.651 1305.181s-31.857 3.958-40.107.431-2.336-7.882-2.336-7.882-17.713-3.481-19.079-8.914 7.089-4.9 7.089-4.9-17.267-11.093-15-14.8c4.228-6.894 23.7 4.207 23.7 4.207s-6.572-6.051-2.2-8.562c6.589-3.78 17.016 12.792 17.016 12.792s-.647-4.085 4.517-4.54c9.263-.805 26.4 32.168 26.4 32.168z" class="cls-1" transform="translate(-332.9 -999.622)"/>
        <path id="Path_1546" d="M464.487 1255.711a5.4 5.4 0 0 0-5.082 5.469s-9.506-15.048-16.095-11.26c-4.37 2.511.8 10.758.8 10.758s-17.882-10.224-22.11-3.33l69.525 35.888c-2.363-4.13-18.388-38.285-27.038-37.525z" class="cls-2" transform="translate(-333.678 -987.845)"/>
        <path id="Path_1547" d="M1634.759 989.134c.958-2.3 1.934-4.619 4.42-5.787a5.567 5.567 0 0 1 5.9.756c5.067 3.809.651 8.008 6.419 15.232 1.791 2.244 3.96 4.056 5.023 6.7 1.5 3.681-.286 5.442-3.156 7.214-13.725 8.437-20.929-8.887-20.664-12.849a64.057 64.057 0 0 1 2.058-11.266z" class="cls-3" transform="translate(-1290.982 -777.129)"/>
        <path id="Path_1548" d="M1588.036 1380a38.82 38.82 0 0 0 1.884 6.055c.069.151.7.688.777.837-.209 3.767-2.512 6.084-4.709 7.744.419-1.913 1.432-4.125 1.277-4.542a53.542 53.542 0 0 0-3.2-7.482c1.866-.255 2.494-1.412 3.971-2.612z" class="cls-4" transform="translate(-1252.525 -1091.184)"/>
        <path id="Path_1549" d="M1562.271 1166.12l11.687 8.876s-5.787 5.567-7.953 7.637-15.563 11.7-15.752 12.177c-.14.351 3.047 11.427 5.1 17.34a14.241 14.241 0 0 1-5.567 2.909c-4.05-7.744-9.029-20.929-9.029-22.717-.001-2.917 21.514-26.222 21.514-26.222z" class="cls-1" transform="translate(-1218.288 -922.068)"/>
        <path id="Path_1550" d="M1770.961 1233.437a52.344 52.344 0 0 0-3.885 7.953c-1.413-.889-2.266-1.951-3.847-2.549 1.256-1.8 3.675-6.138 3.874-7.17.475-2.449 1.03-2.811 1.03-2.811s8.211 2.777 8.757 3.558-4.39-.477-5.929 1.019z" class="cls-4" transform="translate(-1394.196 -971.677)"/>
        <path id="Path_1551" d="M1780.3 1227.771c-.628 0 .055-2.876.209-3.539a1.239 1.239 0 0 1 .7-1c.291-.073 9.418 3.014 10.957 4.123a1.76 1.76 0 0 1 .32.366c.837 1.576-6.677 1.884-7.759 1.187-.963-.608-1.554-1.144-4.427-1.137z" class="cls-5" transform="translate(-1407.49 -967.229)"/>
        <path id="Path_1552" d="M1631.61 1163.071l10.2-4.121c-.04.019.063.418.069.446.959 3.726 6.07 2.288 8.163 8.757 1.488 4.571 3.669 21.666 3.669 21.666a49.594 49.594 0 0 1 6.344-8.344c.373-.419 5.1 2.827 5.1 2.827-3.516 9.322-12.152 16.9-13.32 16.36-7.9-3.623-17.386-32.217-17.371-32.214-.889-1.748-2.854-5.377-2.854-5.377z" class="cls-2" transform="translate(-1290.124 -916.399)"/>
        <path id="Path_1553" d="M1588.231 919.924s-4.774-7.574-5.611-10.092 0-14.521.071-15.373 2.972-3.185 2.511-3.855-4.447-1.216-5.117-1.086-1.972 0-2.512.55c-.069.071 1.27 3.231 1.243 3.721-.19 3.349-2.093 13.99-1.465 16.869.714 3.311 7.819 13.889 7.819 13.889z" class="cls-4" transform="translate(-1247.121 -703.342)"/>
        <path id="Path_1554" d="M1712.82 1040.344s12.8.318 15.609.551 13.006-.628 13.395-.666 3.006-4.468 3.441-3.993-1.455 2.193-.871 2.639 6.854-.553 6.773-.088c-.157.867-3.815.756-3.811 1.174s3.83-.234 4.089.46-3.681.285-3.838.594 3.654.879 3.265 1.524c-.209.352-3.378-.586-3.361-.107s2.323 1.568 2.041 1.949-1.813-1.17-3.152-1.189-2.3-.718-4.437-.132-9.418 3.526-13.991 3.309-14.651-.665-14.651-.665z" class="cls-4" transform="translate(-1354.337 -819.339)"/>
        <path id="Path_1555" d="M1608.6 1050.188c-.174-2.112-.469-7.807-.375-8.508-.628-2.193-2.968-5.442-3.455-6.363 0 0 3.16-3.579 5.5-3.558 0 0 2.495 3.139 4.345 4.113a4.147 4.147 0 0 0 .929.278c1.787-.013 8.029-.209 9.194.146l-.659 9.644c-.337.555-.743 11.645-1.434 12.558s-10.739 5.069-12.4 4c-.069-.035-1.293-8.042-1.645-12.31z" class="cls-6" transform="translate(-1268.901 -815.829)"/>
        <path id="Path_1556" d="M1684.66 1052.533c1.151-.55 9.563-.534 9.563-.534s1.164 5.8.224 7.2c0 0-7.451 1.109-7.239 1.72z" class="cls-6" transform="translate(-1332.07 -831.833)"/>
        <path id="Path_1557" d="M1656.123 1029.231a25.7 25.7 0 0 0-.517 4.665c.13 1.316-.494 5.575-3.288 5.588s-.531-5.408-.268-6.7a49.408 49.408 0 0 0 .327-5.3z" class="cls-4" transform="translate(-1305.405 -812.453)"/>
        <path id="Path_1558" d="M1657.54 1029.479c.044-1.1.058-2.009.058-2.009l3.747 1.745s-.132.684-.266 1.555a3.27 3.27 0 0 1-3.539-1.291z" class="cls-7" transform="translate(-1310.627 -812.437)"/>
        <path id="Path_1559" d="M1657.35 990.013a4.643 4.643 0 0 1 1.971 2.537c.527 1.737-.073 6.216-3.8 7.3s-5.343-2.465-4.575-5.232 2.436-6.296 6.404-4.605z" class="cls-4" transform="translate(-1305.263 -782.471)"/>
        <path id="Path_1560" d="M1649.377 1003.1c.073.745.484 1.314.917 1.272s.726-.68.653-1.425-.484-1.314-.917-1.273-.73.68-.653 1.426z" class="cls-4" transform="translate(-1304.163 -792.036)"/>
        <path id="Path_1561" d="M1594.872 1408.913c.209-.6 2.658 1.2 3.232 1.566.647.419.709.892.7 1-.029.291-5.82 7.953-7.553 9.041a1.012 1.012 0 0 1-.628.079c-.994-.343.393-6.488 1.643-7.744a7.771 7.771 0 0 0 2.606-3.942z" class="cls-5" transform="translate(-1257.444 -1113.951)"/>
        <path id="Path_1562" d="M1570.708 775.99l-10.274 3.652a1.689 1.689 0 0 0-1.065 1.157l-2.813 10.563a1.674 1.674 0 0 1-2.968.592l-6.653-8.675a1.675 1.675 0 0 0-1.427-.661l-10.883.567a1.693 1.693 0 0 1-1.482-2.648l6.164-9.016a1.7 1.7 0 0 0 .182-1.563l-3.926-10.216a1.687 1.687 0 0 1 2.051-2.229l10.464 3.106a1.689 1.689 0 0 0 1.541-.308l8.468-6.879a1.689 1.689 0 0 1 2.75 1.273l.3 10.934a1.7 1.7 0 0 0 .77 1.375l9.152 5.961a1.693 1.693 0 0 1-.354 3.016z" class="cls-8" transform="translate(-1212.03 -595.457)"/>
        <path id="Path_1563" d="M1601.5 894.822c.383.561-1.693 2.344-2.269 3.33l-1.3-1.777c.642-.124 3.136-2.198 3.569-1.553z" class="cls-4" transform="translate(-1263.493 -707.453)"/>
        <path id="Path_1564" d="M1680.17 990.6s.676 5 2.292 5.9.939 3.119.939 3.119 1.465-5.147.188-6.8a7.105 7.105 0 0 0-3.419-2.219z" class="cls-3" transform="translate(-1328.52 -783.283)"/>
        <path id="Path_1565" d="M1685.313 1019.344c-.437.651-.435 1.419 0 1.714s1.151 0 1.591-.643.435-1.419 0-1.714-1.153-.008-1.591.643z" class="cls-4" transform="translate(-1332.328 -805.412)"/>
        <path id="Path_1566" fill="#f47257" d="M1595.643 897.29l.029.036.473.615a1.888 1.888 0 0 0-1.656.159 2.07 2.07 0 0 1 1.154-.81z" transform="translate(-1260.772 -709.503)"/>
        <path id="Path_1567" d="M188.8 1162.58a20.974 20.974 0 0 1-3.407 3.991 14.925 14.925 0 0 0-3.179 6.13c-.691 3.462-.117 20.569-.718 21.786-5.159 5.044-8.9 17.7-9.944 21.557a4.16 4.16 0 0 1-1.192 1.956l.23 4.364 2.564 2.36a13.057 13.057 0 0 1 .569-6.193s12.991-19.674 13.761-21.178c1.465-4.282 6.838-26.224 6.838-26.224l1.245-5.044z" class="cls-4" transform="translate(-134.705 -919.269)"/>
        <path id="Path_1568" d="M156.94 1428.576a15.549 15.549 0 0 1 1.762 3.474c.14.975 1 3.185 1.959 3.323.209.034 3.933.306 3.908-.159-.021-.356-1.367-.862-1.992-1.293-1.08-.747-2.756-6.821-2.756-6.821s-2.81.7-2.881 1.476z" class="cls-7" transform="translate(-124.093 -1128.427)"/>
        <path id="Path_1569" d="M281.758 1184.464s8.372 17.89 8.42 21.036c.046 2.7-1.465 17.823-1.047 30.423.015.454.59 1.059 1.43 1.442.471.209 2.75 1.235 2.75 1.235l.314.814-7.849-.559-.111-2.141s-3.123-18.836-2.8-24.175c.05-.837.456-5.86.456-5.86l-9.437-18.209 5.936-7.8z" class="cls-4" transform="translate(-216.559 -933.573)"/>
        <path id="Path_1570" d="M229.944 975.237a7.242 7.242 0 0 0-8.029-4.791 7.57 7.57 0 0 0-4.743-3.388c-3.788-.81-8.91.684-8.772 4.694-1.465 2.694-1.526 6.545.722 8.6-.781 3.621 2.612 7.116 7.022 7a7.8 7.8 0 0 0 7.371 3.813 16.2 16.2 0 0 1 1.94-.209c-.222-.042 4.674 3.713 8.822-2.06 4.236-5.903 1.262-13.031-4.333-13.659z" class="cls-1" transform="translate(-163.96 -764.5)"/>
        <path id="Path_1571" d="M280.042 895.6a7.737 7.737 0 0 1 .753-1.379l.326-.477a1.724 1.724 0 0 0 .088-.209 7.646 7.646 0 0 0 .034-1.781l-2.863.693-.628 1.651c-.628-.3-1.725-2.512-2.122-1.978-.469.628 1.3 3.349 1.44 4.089s-1.522 12.183-2 14.456-3.719 8.621-3.719 8.621l2.964 3.767s4.749-9.678 5.061-12.62c.033-.312.071-.776.109-1.352z" class="cls-4" transform="translate(-214.558 -705.122)"/>
        <path id="Path_1572" d="M124.405 1068.2l-3.516-2.982s-2.849 4.749-5.13 8.621c-2.265-.816-8.112-4.63-8.4-4.814s-.931-4.485-1.425-4.255.381 2.273-.222 2.426-5.1-2.854-5.2-2.453c-.172.751 2.689 1.951 2.545 2.286s-2.876-1.536-3.311-1.069 2.744 1.524 2.761 1.829-3.116-.58-3.035.075c.046.358 2.8.718 2.631 1.1s-2.323.442-2.233.837 1.794-.3 2.834.153 2.018.232 3.47 1.465 8.581 8.206 10.808 7.608c1.944-.519 7.423-10.827 7.423-10.827z" class="cls-4" transform="translate(-78.653 -841.877)"/>
        <path id="Path_1574" d="M206 1027.85c.224-1.375 2.352-4.814 2.689-5.651 0 0-2.468-3.139-4.471-2.9 0 0-2.694 4.462-4.224 4.6s-6.907.383-7.859.957-4.948 6.714-4.948 6.714 3.6 3.675 5.046 3.667a15.416 15.416 0 0 1 1.076-1.846c.209.7 3.571 11.568 3.558 14.023l.025.021a7.042 7.042 0 0 0 10.126-1.3 55.879 55.879 0 0 1-.124-6.509c.265-4.88 1.255-7.479-.894-11.776z" class="cls-7" transform="translate(-148.012 -805.966)"/>
        <path id="Path_1575" d="M245.9 1171.358l-16.42-23.728a16.153 16.153 0 0 1-3.054.975 31.68 31.68 0 0 1-7.1.3 1.545 1.545 0 0 1-.015.235c-.274 1.955-2.867 4.983-3.4 10.919a145.286 145.286 0 0 0-.033 19.211c10.914-1.326 26.922-4.662 30.022-7.912z" class="cls-2" transform="translate(-170.459 -907.448)"/>
        <path id="Path_1576" d="M302.648 901.309a2.834 2.834 0 0 1-1.909.469 3.584 3.584 0 0 1-1.279-.548 3.578 3.578 0 0 0 1.2 1.268c1.232.664 1.988-1.189 1.988-1.189z" class="cls-7" transform="translate(-236.785 -712.618)"/>
        <path id="Path_1577" d="M208.529 761.119l9.546-1.972a1.465 1.465 0 0 1 1.346.419l6.982 7.1a1.49 1.49 0 0 0 2.555-.938l1.134-10.1a1.568 1.568 0 0 1 .793-1.206l8.615-4.722a1.605 1.605 0 0 0-.073-2.821l-8.845-4.268a1.57 1.57 0 0 1-.854-1.164l-1.66-10.019a1.492 1.492 0 0 0-2.593-.806l-6.605 7.457a1.476 1.476 0 0 1-1.323.488l-9.638-1.465a1.56 1.56 0 0 0-1.528 2.323l4.761 8.883a1.63 1.63 0 0 1 .038 1.465l-4.3 9.115a1.558 1.558 0 0 0 1.649 2.231z" class="cls-8" transform="translate(-163.031 -577.321)"/>
        <path id="Path_1578" d="M235.15 1016.312a24.71 24.71 0 0 1 .46 4.339c-.117 1.229.442 5.18 2.93 5.195s.473-5.023.239-6.231a48.147 48.147 0 0 1-.291-4.925z" class="cls-4" transform="translate(-185.934 -802.332)"/>
        <path id="Path_1579" d="M238.529 1016.557c-.038-1.017-.05-1.867-.05-1.867l-3.349 1.622s.117.628.236 1.446a2.866 2.866 0 0 0 3.163-1.201z" class="cls-7" transform="translate(-185.919 -802.331)"/>
        <path id="Path_1580" d="M222.1 979.871a4.274 4.274 0 0 0-1.758 2.359c-.473 1.614.065 5.779 3.393 6.783s4.772-2.3 4.088-4.87-2.182-5.843-5.723-4.272z" class="cls-4" transform="translate(-174.107 -774.476)"/>
        <path id="Path_1581" d="M253.287 992.037c-.067.693-.433 1.222-.82 1.182s-.649-.628-.584-1.325.433-1.222.82-1.182.649.632.584 1.325z" class="cls-4" transform="translate(-199.157 -783.37)"/>
        <path id="Path_1582" d="M219.013 1007.139c.389.6.389 1.319 0 1.595s-1.028 0-1.419-.6-.389-1.321 0-1.595 1.028-.005 1.419.6z" class="cls-4" transform="translate(-171.821 -795.804)"/>
        <path id="Path_1583" d="M304.1 883.44c-.645-.126-3.378 2.02-3.349 2.34s2.691-1.046 2.767-.82c.059.171-2.985.969-2.825 1.275.109.209 2.84-.366 2.911-.232.115.21-2.279.3-2.124.53.18.268 2.457.159 2.457.159a5.189 5.189 0 0 0 .507-1.015 2.219 2.219 0 0 0 .01-.471 3.1 3.1 0 0 0 .038-.454c-.086-.693-.03-1.243-.392-1.312z" class="cls-4" transform="translate(-237.758 -698.547)"/>
        <path id="Path_1584" d="M293.144 890.744L292.127 892l-.672-.5a.337.337 0 0 1 .023-.278c.075-.175 1.643-.943 1.666-.478z" class="cls-4" transform="translate(-230.44 -704.21)"/>
        <path id="Path_1585" d="M329.867 1452.18h9.914c.366-.033.456-.329.329-.511-.262-.377-1.417-.651-2.721-1.256-2.281.237-7.246-1.321-7.606-1.844a9.684 9.684 0 0 0 .084 3.611z" class="cls-7" transform="translate(-260.668 -1145.403)"/>
        <path id="Path_1586" d="M294.71 896.89a6.489 6.489 0 0 1 1.9 1.783 2.3 2.3 0 0 1 .3 1.756l-2.3-2.836z" class="cls-4" transform="translate(-232.95 -709.187)"/>
        <path id="Path_1587" d="M1150.614 361.05a10 10 0 0 1-1.047 3.229q-1.509 1.825-2.859 3.767c.628-.046 1.245-.073 1.884-.073a23.762 23.762 0 0 1 16.268 6.155 16.786 16.786 0 0 1 0 25.611 24.57 24.57 0 0 1-32.5.031c-.312.921-.628 1.838-.931 2.759a7.158 7.158 0 0 0-3.559 6.471c0 3.876 2.6 7.02 5.81 7.02 2.524 0 4.665-1.946 5.469-4.663a29.851 29.851 0 0 0 9.45 1.526c15.458 0 27.989-11.618 27.989-25.953-.011-13.705-11.464-24.917-25.974-25.88z" class="cls-10" transform="translate(-891.813 -285.495)"/>
        <path id="Path_1588" d="M538.683 361.05a10.006 10.006 0 0 0 1.046 3.229q1.511 1.825 2.859 3.767c-.628-.046-1.256-.073-1.884-.073a23.762 23.762 0 0 0-16.268 6.155 16.785 16.785 0 0 0 0 25.611 24.57 24.57 0 0 0 32.5.031c.312.921.628 1.838.931 2.759a7.158 7.158 0 0 1 3.56 6.471c0 3.876-2.6 7.02-5.81 7.02-2.524 0-4.665-1.946-5.469-4.663a29.851 29.851 0 0 1-9.45 1.526c-15.459 0-27.989-11.618-27.989-25.953.011-13.705 11.464-24.917 25.974-25.88z" class="cls-10" transform="translate(-405.403 -285.495)"/>
        <path id="Path_1589" d="M753.176 346.93v7.164a58.641 58.641 0 0 1-58.638 58.636c-14.914-.2-25.147 1.344-39.305-4.925a58.661 58.661 0 0 1-35.092-53.711v-7.164z" class="cls-8" transform="translate(-490.348 -274.33)"/>
        <path id="Path_1590" d="M720.885 407.805l.044.019 21.078-60.894h-21.943l-16.894 48.818a58.705 58.705 0 0 0 17.715 12.057z" class="cls-11" transform="translate(-556.001 -274.33)"/>
        <path id="Path_1591" d="M815.113 411.914l22.242-64.984h-11.022L805 409.266a53.181 53.181 0 0 0 10.113 2.648z" class="cls-11" transform="translate(-636.518 -274.33)"/>
        <path id="Path_1592" d="M679.226 393.517l16.635-46.587h-5.232l-15.049 42.152a54.892 54.892 0 0 0 3.646 4.435z" class="cls-11" transform="translate(-534.185 -274.33)"/>
        <path id="Path_1593" d="M739.3 327.52H618.226c-4.42 0-8.022 2.459-8.276 5.559h137.636c-.255-3.1-3.857-5.559-8.286-5.559z" class="cls-8" transform="translate(-482.291 -258.982)"/>
        <path id="Path_1594" d="M830.54 653.13l6.85 35.168h29.958l8.489-35.168z" class="cls-8" transform="translate(-656.713 -516.444)"/>
        <path id="Path_1595" d="M875.848 653.14l-1.915 7.936H832.1l-1.547-7.936z" class="cls-12" transform="translate(-656.721 -516.452)"/>
        <path id="Path_1596" d="M875.848 896.172h-45.3l3.395-17.457L837.4 861h29.965l4.276 17.715z" class="cls-8" transform="translate(-656.721 -680.808)"/>
        <path id="Path_1597" d="M875.848 963.1h-45.3l3.395-17.457h37.692z" class="cls-12" transform="translate(-656.721 -747.733)"/>
        <path id="Path_1598" d="M825.951 821.17h40.469a3.231 3.231 0 0 1 3.24 3.232v1.871a3.233 3.233 0 0 1-3.24 3.234h-40.469a3.232 3.232 0 0 1-3.232-3.232V824.4a3.231 3.231 0 0 1 3.232-3.23z" class="cls-11" transform="translate(-650.529 -649.314)"/>
        <path id="Path_1599" d="M809.163 962.8h49.762a1.884 1.884 0 0 1 1.884 1.884v9.611H807.29v-9.619a1.884 1.884 0 0 1 1.873-1.876z" class="cls-8" transform="translate(-638.329 -761.302)"/>
        <path id="Path_1600" d="M811.668 1022.924v3.493H722.8v-3.493c0-4.027 2.459-7.294 5.486-7.294h77.9c3.025 0 5.482 3.27 5.482 7.294z" class="cls-8" transform="translate(-571.522 -803.075)"/>
        <path id="Path_1601" d="M798.14 1015.63l-2.811 10.787h-3.709l2.811-10.787z" class="cls-11" transform="translate(-625.939 -803.075)"/>
        <path id="Path_1602" d="M772.754 1015.63l-2.811 10.787h-3.713l2.815-10.787z" class="cls-11" transform="translate(-605.863 -803.075)"/>
        <path id="Path_1603" d="M820.676 1015.63l-2.811 10.787h-3.715l2.817-10.787z" class="cls-11" transform="translate(-643.753 -803.075)"/>
        <path id="Path_1604" d="M742.913 1420.964v3.493H594v-3.493c0-4.027 4.117-7.294 9.19-7.294h130.533c5.077 0 9.19 3.267 9.19 7.294z" class="cls-8" transform="translate(-469.679 -1117.807)"/>
        <path id="Path_1605" d="M720.235 1413.67l-4.711 10.787h-6.214l4.711-10.787z" class="cls-11" transform="translate(-560.855 -1117.807)"/>
        <path id="Path_1606" d="M677.693 1413.67l-4.711 10.787h-6.222l4.717-10.787z" class="cls-11" transform="translate(-527.211 -1117.807)"/>
        <path id="Path_1607" d="M758 1413.67l-4.711 10.787h-6.219l4.72-10.787z" class="cls-11" transform="translate(-590.713 -1117.807)"/>
        <path id="Path_1608" d="M832.223 621.38v2.641a8.259 8.259 0 0 1-8.255 8.265h-59.649a8.261 8.261 0 0 1-8.269-8.265v-2.641z" class="cls-8" transform="translate(-597.813 -491.339)"/>
        <path id="Path_1609" d="M783.412 1139.7H671.35l1.367-72.518H781.91z" class="cls-5" transform="translate(-530.84 -843.836)"/>
        <path id="Path_1610" d="M857.443 1139.7H798.68l.716-72.518h57.261z" class="cls-6" transform="translate(-631.521 -843.836)"/>
        <path id="Path_1611" d="M373.647 1465.21H.837a.837.837 0 0 0-.837.837.837.837 0 0 0 .837.837h372.81a.837.837 0 0 0 .837-.837.837.837 0 0 0-.837-.837z" class="cls-13" transform="translate(0 -1158.56)"/>
        <path id="Path_1612" d="M1220.238 91.809c-.312 1.285-.875 3.311-.875 3.311.044.559.209 2.88.4 5.722l-4.186-1.674a45.145 45.145 0 0 0-.136-4.916c-.157-.241-.419.059-1.7-1.775a3.547 3.547 0 0 1-.44-1.465s-.075-1.164.186-1.273a.547.547 0 0 1 .655.268c.094.209.071.67.165.871a1.448 1.448 0 0 0 .954.431c.255-.013-.033-3.443-.033-3.443s-.142-.973-.21-1.291c-.06-.272-.31-1.067-.31-1.067s-.289-1.155.069-1.243c.209-.052.751.887 1.12 1.884a21.348 21.348 0 0 0 .737 2.193c.266-.036.126-1.915.126-1.915a6.076 6.076 0 0 1-.26-1.268c-.251-.5-.418-1.423.023-1.5a7.649 7.649 0 0 1 .665 1.16s.228.827.362 1.212a22.074 22.074 0 0 1 .394 2.231c.1.4.194.234.239.249a10.277 10.277 0 0 0-.09-1.279 8.828 8.828 0 0 0-.1-1.241 9.215 9.215 0 0 1-.178-1.31c-.071-.973.54-.873.753.017.08.339.165.71.249 1.084.328 1.465.32 2.863.477 2.874.209.015.069-2.543.069-2.543s.314-1.415.628-.1a11.473 11.473 0 0 1 .32 2.821 10.88 10.88 0 0 1-.073 2.975z" class="cls-14" transform="translate(-959.357 -66.16)"/>
        <path id="Path_1613" d="M1170.213 146.258s-4.709-1.126-4.755-.749c-.988 8.286-1.433 11.283-1.6 11.369-.571.293-8.137-6.626-9.485-7.1a5.663 5.663 0 0 0-2.022-.167c-1.605.048-1.921.054-1.921.054h-.058v1.509c1.808 1.626 5.948 26.269 6.3 26.252.389-.019 8.581 2.041 8.428 1.352-.025-.113-5.548-4.632-7.116-11.155-.525-2.189-.785-4.548-1.072-6.612 1.819.913 8.918 4.406 10.046 3.945 3.502-1.429 3.255-18.698 3.255-18.698z" class="cls-5" transform="translate(-909.604 -115.004)"/>
        <path id="Path_1614" d="M1312.5 348.37s7.612 5.963 7.865 7.02c.366 1.524 7.338-.479 5.651-.789-.385-.071-1.624-.385-1.724-.439-.544-.291-7.325-8.451-7.325-8.451z" class="cls-4" transform="translate(-1037.801 -273.365)"/>
        <path id="Path_1615" d="M1357.982 386.7l-4.86-.4a6.878 6.878 0 0 1-4.058 1.2 6.223 6.223 0 0 0-.224 2.646c.034.247.075.99.324.973.9-.061 3.29-.657 6.015-1.2a23.493 23.493 0 0 0 5.779-2.043c2.116-1.264-2.976-1.176-2.976-1.176z" class="cls-12" transform="translate(-1066.494 -305.46)"/>
        <path id="Path_1616" d="M1142.267 276.1a33.265 33.265 0 0 0 11.739-.5c7.133-1.674 15.021-3.213 17.332-1.869 1.861 1.082 13.479 18.627 13.479 18.627l-4.487 3.273-12.79-14.324s-16.325 6.021-19.986 5.356c-8.347-1.527-8.466-8.193-5.287-10.563z" class="cls-3" transform="translate(-901.675 -216.041)"/>
        <path id="Path_1617" d="M1155.635 270.04l5.578 6.628-10.348 3.152-1.325-6.239z" class="cls-3" transform="translate(-908.948 -213.533)"/>
        <path id="Path_1618" d="M1230.711 414.69s-.341 9.209-.551 10.766 3.908 6.227 3.38 4.6c-.119-.373-.431-1.612-.433-1.727 0-.617 1.528-11.12 1.528-11.12z" class="cls-4" transform="translate(-972.689 -327.908)"/>
        <path id="Path_1619" d="M1221.4 474.133l-3.039-4.941a6.877 6.877 0 0 1-2.989-3 6.245 6.245 0 0 0-2.434 1.061c-.209.147-1.561 1.143-1.465 1.373.347.837 2.2 2.656 4.23 4.634a54.63 54.63 0 0 0 4.992 3.577c2.116 1.258.705-2.704.705-2.704z" class="cls-12" transform="translate(-957.914 -368.629)"/>
        <path id="Path_1620" d="M1155.955 277c-1.949-2.6-17.679-5.067-17.679-5.067l-4.4-8.432-9.7 5.982s.971 7.719 1.7 9.78c.971 2.748 7.489 2.888 11.472 2.848 3.663-.038 10.354.71 10.354.71l-2.262 19.965s4.445 1 5.7.841c.144-.02 7.236-23.4 4.815-26.627z" class="cls-1" transform="translate(-888.896 -208.361)"/>
        <path id="Path_1621" fill="#9bc1f9" d="M1128.6 165.76l-5.473.306s-.126.04-.164.046c-.446.084-.042 16.03.356 21.986a39.758 39.758 0 0 0 1.205 8.46 89.323 89.323 0 0 0 9.7-2.2c.942-.368 3.244-3.221 3.244-3.221a23.936 23.936 0 0 1-3.514-8.248c-.908-3.935-2.028-10.915-2.671-12.371a21 21 0 0 0-2.683-4.758z" transform="translate(-887.779 -131.078)"/>
        <path id="Path_1622" d="M1124.635 141.314l-.155 4.83s3.543 6.105 5.362 5.253c1.526-.714.172-5.356.172-5.356s-.266-1.065-.628-2.288a8.847 8.847 0 0 1-.452-2.459c.033-1.65-4.299.02-4.299.02z" class="cls-4" transform="translate(-889.133 -111.157)"/>
        <path id="Path_1623" d="M1129.459 141.3c.038-1.651-4.295.019-4.295.019l-.015.471a2.512 2.512 0 0 0 .484.55 5.961 5.961 0 0 0 4.219 1.214 8.247 8.247 0 0 1-.393-2.254z" class="cls-7" transform="translate(-889.663 -111.157)"/>
        <path id="Path_1624" d="M1129.564 91.48a12.6 12.6 0 0 1 1.936 5.02 11.848 11.848 0 0 1-.349 3.853l-5.793-6.926z" class="cls-13" transform="translate(-889.829 -72.344)"/>
        <path id="Path_1625" d="M1151.148 108.017c.082.8-.23 1.49-.7 1.538s-.908-.565-.992-1.367.232-1.49.7-1.538.911.565.992 1.367z" class="cls-16" transform="translate(-908.873 -84.337)"/>
        <path id="Path_1626" d="M1116.226 97.379c-.134-.027-.121 6.639 1.813 8.206s5.3 1.708 6.279.128c1.086-1.748.052-8.774-2.821-10.255s-5.271 1.921-5.271 1.921z" class="cls-4" transform="translate(-882.568 -75.194)"/>
        <path id="Path_1627" d="M1100.776 80.571a10.794 10.794 0 0 0-3.187 4.537c-1.229 2.828 1.208 5.758 3.248 6.921a3.938 3.938 0 0 1 2.212 2.57l.084-.866a2.184 2.184 0 0 0-.025-.8 3.822 3.822 0 0 0-.291-.705c-.174-.37-.733-1.645-.95-1.98-.573-.885-.688-1.078-.4-1.919.209-.649-.035-2.078.3-3.139l2.748-.594a5.8 5.8 0 0 0 2.587-1.415c2.498-2.881-2.438-6.089-6.326-2.61z" class="cls-13" transform="translate(-867.607 -62.519)"/>
        <path id="Path_1628" d="M1113.852 123.036c.339.733.268 1.484-.157 1.674s-1.047-.237-1.381-.967-.27-1.484.157-1.674 1.042.236 1.381.967z" class="cls-4" transform="translate(-879.345 -96.495)"/>
        <path id="Path_1629" d="M1030.424 8.2c.312 1.283.875 3.311.875 3.311-.044.557-.21 2.878-.4 5.722l4.186-1.674a45.114 45.114 0 0 1 .136-4.916c.157-.241.418.059 1.7-1.775a3.543 3.543 0 0 0 .44-1.465s.075-1.164-.186-1.273a.542.542 0 0 0-.655.266c-.094.209-.071.67-.165.871a1.447 1.447 0 0 1-.952.431c-.253-.013.031-3.443.031-3.443s.142-.973.209-1.291c.061-.27.308-1.067.308-1.067s.291-1.153-.067-1.241c-.209-.052-.749.885-1.12 1.884a21.46 21.46 0 0 1-.737 2.193c-.266-.036-.125-1.917-.125-1.917a6.052 6.052 0 0 0 .259-1.268c.251-.5.419-1.421-.023-1.5a7.641 7.641 0 0 0-.666 1.159s-.228.837-.362 1.214a21.872 21.872 0 0 0-.394 2.231c-.1.393-.195.232-.239.249a10.264 10.264 0 0 1 .09-1.281 8.782 8.782 0 0 1 .1-1.239 9.215 9.215 0 0 0 .178-1.31c.069-.984-.534-.883-.743.013-.082.339-.165.71-.251 1.084-.328 1.465-.32 2.863-.477 2.876-.209.015-.069-2.543-.069-2.543s-.314-1.417-.628-.1a11.484 11.484 0 0 0-.32 2.823 10.708 10.708 0 0 0 .067 2.976z" class="cls-14" transform="translate(-814.642 -.049)"/>
        <path id="Path_1630" d="M1043.944 82.97s-5.425-.251-6.825-.885c-.837-.383-7.819-6-7.819-6l.077-15.042-4.9-.373s-2.541 16.624-1.662 18.445c.91 1.884 11.116 9.615 13.156 12.976 1.174 1.934 3.627 28.238 4 28.464 2.641 1.373 10.8 2.746 10.6 1.913a302.282 302.282 0 0 1-6.627-39.498z" class="cls-5" transform="translate(-808.597 -47.982)"/>
        <path id="Path_1631" d="M658.761 459.481c.312 1.283.875 3.311.875 3.311-.044.557-.209 2.878-.406 5.722l4.186-1.674a45.16 45.16 0 0 1 .136-4.916c.157-.241.419.059 1.7-1.775a3.545 3.545 0 0 0 .44-1.465s.075-1.166-.186-1.272a.542.542 0 0 0-.655.266c-.094.209-.071.67-.165.871a1.448 1.448 0 0 1-.954.431c-.255-.013.033-3.443.033-3.443s.142-.973.209-1.291c.061-.272.308-1.067.308-1.067s.291-1.153-.067-1.241c-.209-.052-.751.885-1.12 1.884a21.531 21.531 0 0 1-.737 2.193c-.266-.038-.126-1.917-.126-1.917a6.07 6.07 0 0 0 .26-1.268c.251-.5.419-1.421-.025-1.5a7.624 7.624 0 0 0-.663 1.159s-.23.827-.362 1.214a22.544 22.544 0 0 0-.4 2.231c-.1.393-.195.232-.236.249a10.31 10.31 0 0 1 .09-1.281 7.731 7.731 0 0 1 .094-1.241 8.872 8.872 0 0 0 .18-1.308c.071-.973-.54-.875-.753.015-.08.339-.165.71-.249 1.084-.328 1.465-.32 2.863-.477 2.876-.209.015-.069-2.543-.069-2.543s-.314-1.417-.628-.1a11.555 11.555 0 0 0-.31 2.811 10.71 10.71 0 0 0 .077 2.985z" class="cls-14" transform="translate(-520.765 -356.879)"/>
        <path id="Path_1632" d="M845.068 443.292c-.312 1.283-.875 3.311-.875 3.311.044.557.209 2.878.406 5.72l-4.186-1.674a45.192 45.192 0 0 0-.138-4.916c-.157-.241-.419.059-1.7-1.775a3.611 3.611 0 0 1-.44-1.476s-.075-1.164.186-1.27a.542.542 0 0 1 .655.266c.094.209.071.67.165.871a1.447 1.447 0 0 0 .954.431c.255-.012-.031-3.443-.031-3.443s-.142-.973-.209-1.291c-.061-.272-.308-1.067-.308-1.067s-.291-1.153.069-1.243c.209-.05.749.887 1.118 1.884a21.088 21.088 0 0 0 .737 2.193c.268-.036.126-1.915.126-1.915a6.064 6.064 0 0 1-.26-1.268c-.251-.5-.419-1.423.025-1.5a7.623 7.623 0 0 1 .664 1.159s.23.827.364 1.212c.234.682.27 1.758.393 2.233.1.393.195.232.237.249a10.322 10.322 0 0 0-.09-1.281 7.71 7.71 0 0 0-.094-1.241 8.9 8.9 0 0 1-.18-1.31c-.071-.971.542-.873.753.017.08.339.165.71.249 1.084.329 1.465.32 2.863.477 2.874.209.017.069-2.543.069-2.543s.314-1.415.628-.1a11.534 11.534 0 0 1 .318 2.823 11.142 11.142 0 0 1-.082 2.986z" class="cls-14" transform="translate(-662.708 -344.07)"/>
        <path id="Path_1633" d="M725.893 542.806a2.289 2.289 0 0 1 3.838.486 1.7 1.7 0 0 1 2.244.58s2.382-.718 2.959 2.844c0 0 1.226-.232 1.388 1.224a3.61 3.61 0 0 1-.578 2.428s.689.517.375 1.856a1.658 1.658 0 0 1-1.208 1.312s-.255 1.919-1.086 2.5a2.717 2.717 0 0 1-1.965.3s-.3 1.047-1.273.948-2.174-1.017-3.261-.6-3.907-.025-3.907-.025-3.169-1.409-2.221-4.646a2.359 2.359 0 0 1-.209-3.307s-1.065-2.821 1.047-4.487a5.482 5.482 0 0 1 3.857-1.413z" class="cls-17" transform="translate(-569.615 -428.525)"/>
        <path id="Path_1634" d="M803.952 995.06a31.955 31.955 0 0 0 2.895 3.227c.578.354-.258 4.527-1.831 4.8-.885.155-1.379-.82-1.379-.82l.255-1.2-3.311-3.411z" class="cls-4" transform="translate(-633.023 -786.81)"/>
        <path id="Path_1635" d="M745.779 998.45a32.592 32.592 0 0 0 2.459 3.57c.527.431-.837 4.458-2.43 4.529-.9.04-1.256-.99-1.256-.99l.406-1.162-2.849-3.807z" class="cls-4" transform="translate(-586.791 -789.491)"/>
        <path id="Path_1636" d="M747.013 1014.92a24.451 24.451 0 0 1-1.714 1.978 20.427 20.427 0 0 1-1.783 1.438s-1.132 2.057-1.442 2.775c-.691 1.6-1.465 3.378-1.354 4.274.038.287.682.59 1.22.419 2.24-.686 7.953-5.923 8.686-7.325.832-1.621-3.613-3.559-3.613-3.559z" class="cls-17" transform="translate(-585.683 -802.513)"/>
        <path id="Path_1637" d="M684.349 779.856c.209-.582.406-1.12.6-1.626 2.382.519 5.071 1.09 7.838 1.674l.337 10.141c0-.783-2.08 16.174-2.08 16.174s5.377 11.9 9.054 18.836a12.64 12.64 0 0 1-4.4 3.767c-5.708-6.842-13.186-19.364-13.487-21.444-.183-1.188-.344-20.546 2.138-27.522z" class="cls-12" transform="translate(-539.356 -615.361)"/>
        <path id="Path_1638" d="M745.9 789.128c-.728 7.9-2.344 23.008-2.21 24.224.406 1.515 7.6 15.488 8.9 17.528-1.03 1.549-2.622 3.223-4.332 3.686-.339.09-12.212-16.808-12.859-18.148-.733-1.517-1.953-9.787-1.974-20.027l-.337-10.14c4.601.978 8.839 1.941 12.812 2.877z" class="cls-7" transform="translate(-579.651 -621.703)"/>
        <path id="Path_1639" d="M692.744 627.89l5.427.745s4.349.1 4.887.1 3.947 19.793 4.933 27.242.222 8.769.222 8.769-6.888 1.547-11.974 1.1c-5.291-.469-11.239-3.326-11.239-3.326s4.523-14.314 5.421-18.784 2.323-15.846 2.323-15.846z" class="cls-18" transform="translate(-541.634 -496.487)"/>
        <path id="Path_1640" d="M658.715 510.374s-.347 14.757.209 15.888c.808 1.641 9.921 13.284 9.921 13.284s-4.353 18.209-6.183 24.5c-.184.628-1 4.726-1 5.123 0 .885 3.851 2.007 4.307 1.942.419-.061 3.767-17.386 5.912-25.865a24.279 24.279 0 0 1 3.68-8.012l1.492-2.118-11.446-11.473s-1.407-12.763-1.407-13.824c0-.276-4.93-.486-5.485.555z" class="cls-3" transform="translate(-520.765 -402.949)"/>
        <path id="Path_1641" d="M754.667 519.478l14.274-14.544s1.988-13.753 2.131-14.272 3.684-.785 5.111-.923c.458-.044-.239 14.651-.923 17.112-.806 2.909-11.595 16.166-11.595 16.166s-1.934 7.181-1.465 12.447c.772 8.746 2.865 20.781 2.482 21.158-2.319 1.465-11.222 1.618-11.788.71-6.222-10.022 1.773-37.854 1.773-37.854z" class="cls-3" transform="translate(-593.444 -387.25)"/>
        <path id="Path_1642" d="M745.749 601.856l-.385 2.857s-.862 4.117.247 4.91 4.72-5.023 4.72-5.023l-.381-7.24z" class="cls-4" transform="translate(-589.111 -472.346)"/>
        <path id="Path_1643" d="M751.5 599.686a8.221 8.221 0 0 1-4.651 4.577l.327-2.424 4.2-4.5z" class="cls-7" transform="translate(-590.539 -472.33)"/>
        <path id="Path_1644" d="M786.12 566.287c0 1.1-.628 2-1.4 2s-1.4-.894-1.4-2 .628-2 1.4-2 1.4.899 1.4 2z" class="cls-17" transform="translate(-619.376 -446.198)"/>
        <ellipse id="Ellipse_33" cx="1.704" cy="1.147" class="cls-17" rx="1.704" ry="1.147" transform="translate(159.135 114.651)"/>
        <path id="Path_1645" d="M736.17 560.241a3.818 3.818 0 0 0-5 3.043 28.621 28.621 0 0 0-.31 3.665c-.061 3.349 1.674 6.586 3.181 6.586s5.7-2.162 5.86-6.907c.093-2.916-1.366-5.572-3.731-6.387z" class="cls-4" transform="translate(-577.897 -442.838)"/>
        <path id="Path_1646" d="M768.71 588.329A1.112 1.112 0 1 0 769.8 587a1.23 1.23 0 0 0-1.09 1.329z" class="cls-4" transform="translate(-607.824 -464.155)"/>
        <path id="Path_1647" d="M718.622 549.217c-1.566 1.239-2.114 3.125-1.227 4.207s2.878.959 4.443-.281 2.114-3.125 1.224-4.209-2.874-.958-4.44.283z" class="cls-17" transform="translate(-566.913 -433.473)"/>
        <ellipse id="Ellipse_34" cx="1.453" cy=".975" class="cls-17" rx="1.453" ry=".975" transform="translate(155.801 115.786)"/>
        <path id="Path_1648" d="M723.75 573a1.241 1.241 0 1 0 1.241-1.256A1.256 1.256 0 0 0 723.75 573z" class="cls-17" transform="translate(-572.273 -452.088)"/>
        <path id="Path_1649" d="M811.159 1010a24.264 24.264 0 0 1-1.448 2.181 20.269 20.269 0 0 1-1.582 1.654s-.862 2.185-1.078 2.93c-.479 1.674-1.021 3.692-.8 4.565.073.28.689.816 1.2.485 1.963-1.279 7.208-7.267 7.744-8.753.621-1.714-4.036-3.062-4.036-3.062z" class="cls-17" transform="translate(-637.468 -798.623)"/>
        <path id="Path_1650" d="M1249.049 718.64a21.859 21.859 0 0 0-10.883 5.578c-4.623 4.611-7.386 12.016-7.386 12.016l9.464 2.761s-3.78-8.829 8.805-20.355z" class="cls-11" transform="translate(-973.185 -568.243)"/>
        <path id="Path_1651" d="M1304.224 674.8l-.678-5.333-4.778-2.463a.739.739 0 0 1 .023-1.325l4.864-2.3.867-5.306a.741.741 0 0 1 1.268-.387l3.682 3.916 5.314-.814a.739.739 0 0 1 .76 1.086l-2.585 4.713 2.417 4.8a.741.741 0 0 1-.8 1.059l-5.28-1-3.82 3.784a.739.739 0 0 1-1.254-.425z" class="cls-8" transform="translate(-1026.627 -519.864)"/>
        <path id="Path_1652" d="M531.11 854.29a21.844 21.844 0 0 1 10.883 5.576c4.623 4.611 7.384 12.018 7.384 12.018l-9.466 2.761s3.782-8.831-8.801-20.355z" class="cls-11" transform="translate(-419.952 -675.502)"/>
        <path id="Path_1653" d="M479.7 810.519l.678-5.333 4.778-2.466a.737.737 0 0 0-.023-1.323l-4.862-2.3-.869-5.3a.739.739 0 0 0-1.256-.387l-3.694 3.924-5.314-.814a.737.737 0 0 0-.76 1.084l2.585 4.713-2.415 4.814a.737.737 0 0 0 .8 1.046l5.28-1.007 3.82 3.782a.739.739 0 0 0 1.254-.433z" class="cls-8" transform="translate(-370.28 -627.188)"/>
        <path id="Path_1654" d="M1520.191 714.213l1.465-2.472-1.208-2.608a.4.4 0 0 1 .444-.553l2.8.628 2.108-1.953a.393.393 0 0 1 .661.251l.27 2.861 2.512 1.4a.4.4 0 0 1-.036.707l-2.639 1.139-.554 2.821a.4.4 0 0 1-.685.184l-1.9-2.158-2.853.343a.4.4 0 0 1-.389-.594z" class="cls-2" transform="translate(-1201.98 -559.158)"/>
        <path id="Path_1655" fill="#f79c8d" d="M845.075 172.66l1.848-3.121-1.524-3.29a.5.5 0 0 1 .561-.695l3.539.791 2.658-2.465a.5.5 0 0 1 .837.32l.341 3.61 3.166 1.766a.5.5 0 0 1-.046.892l-3.328 1.44-.7 3.558a.5.5 0 0 1-.862.232l-2.4-2.721-3.6.431a.5.5 0 0 1-.49-.749z" transform="translate(-668.15 -129.485)"/>
        <path id="Path_1656" d="M1463.576 243.37l-4.876 3.257 2.727 4.736-4.663 3.418 2.049 4.847-3.073 3.129 1.584 1.555 4.109-4.184-1.942-4.594 4.851-3.558-2.683-4.657 4.42-2.951z" class="cls-16" transform="translate(-1151.062 -192.444)"/>
        <path id="Path_1657" d="M1448.969 591.643l-3.451-4.741-4.619 2.918-3.606-4.521-4.761 2.244-3.25-2.943-1.49 1.647 4.349 3.935 4.513-2.127 3.75 4.7 4.544-2.87 3.127 4.3z" class="cls-16" transform="translate(-1128.962 -462.257)"/>
        <path id="Path_1658" d="M717.338 76.152l1.17-5.745-5.27-1.442.9-5.712-4.866-2-.023-4.385-2.221.01.031 5.864 4.613 1.9-.94 5.94L715.919 72l-1.061 5.207z" class="cls-16" transform="translate(-559.053 -44.978)"/>
        <path id="Path_1659" d="M520.443 185.52l2.233 4.169 4.814-.27 2.172 4.849 5.04-1.867 2.7 5.377 4.854-1.149 3.441 4.749-1.8 1.3-2.572-3.55-5.121 1.212-2.593-5.17-5.126 1.9-2.394-5.352-4.7.264-2.07-3.866-3.051.818-.576-2.143z" class="cls-8" transform="translate(-407.759 -146.702)"/>
        <path id="Path_1660" d="M387.432 306.939l-3.554.362-1.212-5.655-5.262-.113-1.6-4.083-2.068.81 2.139 5.461 4.985.107 1.26 5.883 5.35-.544z" class="cls-6" transform="translate(-295.518 -235.206)"/>
        <path id="Path_1661" d="M355.556 635.69l-1.331 3.315-5.569-1.551-2.543 4.609-4.36-.479-.243 2.206 5.831.64 2.409-4.366 5.8 1.614 2-4.99z" class="cls-6" transform="translate(-270.034 -502.654)"/>
        <path id="Path_1662" d="M390.485 448.112a9.893 9.893 0 1 1-13.987.293 9.893 9.893 0 0 1 13.987-.293z" class="cls-20" transform="translate(-295.522 -352.159)"/>
        <path id="Path_1663" d="M401.046 467.171l-4.209 1.3-1.321 4.2a.429.429 0 0 1-.762.119l-2.53-3.6-4.406.042a.419.419 0 0 1-.347-.686l2.646-3.522-1.4-4.186a.429.429 0 0 1 .546-.542l4.167 1.442 3.537-2.622a.419.419 0 0 1 .684.352l-.069 4.4 3.587 2.553a.419.419 0 0 1-.123.764z" class="cls-21" transform="translate(-306.298 -362.953)"/>
        <path id="Path_1664" d="M1625.431 526.792a9.893 9.893 0 1 1-13.989.293 9.894 9.894 0 0 1 13.989-.293z" class="cls-20" transform="translate(-1272 -414.371)"/>
        <path id="Path_1665" d="M1636.082 545.926l-4.209 1.3-1.32 4.207a.429.429 0 0 1-.762.117l-2.53-3.6-4.4.042a.431.431 0 0 1-.347-.689l2.646-3.52-1.4-4.175a.419.419 0 0 1 .544-.542l4.167 1.427 3.539-2.625a.429.429 0 0 1 .684.354l-.071 4.4 3.589 2.553a.429.429 0 0 1-.134.762z" class="cls-21" transform="translate(-1282.866 -425.234)"/>
        <path id="Path_1666" d="M1461.143 448.4l1.731 2.874a.437.437 0 0 0 .783-.067l1.229-3.121 3.267-.756a.44.44 0 0 0 .18-.766l-2.589-2.133.291-3.349a.44.44 0 0 0-.674-.419l-2.823 1.821-3.087-1.308a.44.44 0 0 0-.6.515l.837 3.246-2.2 2.532a.437.437 0 0 0 .3.724z" class="cls-7" transform="translate(-1152.363 -348.394)"/>
        <path id="Path_1667" d="M1431.19 784.765a2 2 0 1 1-.586-1.418 2 2 0 0 1 .586 1.418z" class="cls-6" transform="translate(-1128.48 -618.943)"/>
        <path id="Path_1668" d="M309.093 494.433a2.179 2.179 0 1 1-2.17-2 2.092 2.092 0 0 1 2.17 2z" class="cls-6" transform="translate(-240.968 -389.378)"/>
        <path id="Path_1669" d="M860.477 24.333l2.631.519s3.857-1.8 4.142-2.662.159-2.861.722-2.987a1.744 1.744 0 0 1 2.12 1.256c.312.961-.777 3.987-.513 4.261a13.965 13.965 0 0 0 2.771.745 1.989 1.989 0 0 1 1.5 1.427 1.1 1.1 0 0 1-.532 1.256l-.693.373.324.722a1.09 1.09 0 0 1-.517 1.429l-.54.257.236.435a1.092 1.092 0 0 1-.521 1.522l-.473.209.036.13a1.091 1.091 0 0 1-.639 1.308l-.471.188-7.009-1.383a4.831 4.831 0 0 1-1.829-.781l-2.382-.9a.559.559 0 0 1-.343-.643l1.331-6.245a.557.557 0 0 1 .647-.435z" class="cls-18" transform="translate(-678.81 -15.151)"/>
    </g>
</svg>
