<svg xmlns="http://www.w3.org/2000/svg" id="Layer_2" width="530.803" height="297.828" viewBox="0 0 530.803 297.828">
    <defs>
        <style>
            .cls-2{fill:#dfebfd}.cls-3{fill:#aec3ff}.cls-4{fill:#759be0}.cls-6{fill:#94b0ed}.cls-9{fill:#ed7d2b}.cls-10{fill:#f99746}.cls-12{fill:#2c3a64}.cls-13{fill:#ffb27d}.cls-14{fill:#fff}.cls-15{fill:#2f539b}.cls-16{fill:#233862}.cls-19{fill:#163560}.cls-20{fill:#143d7a}.cls-21{fill:#ed975d}.cls-22{fill:#2b478b}
        </style>
    </defs>
    <g id="_лой_1">
        <path id="Path_897" fill="#49496d" d="M30.359 297.217s-37.176-29.034-11.254-98.439c15.283-40.923 66.839-34.64 64.231-108.132s44.911-105.524 130.1-72.169c61.48 24.071 153.664-84.842 229.872 52.074 29.391 52.806 80.83 45.956 94.527 142.537 3.736 26.4-1.868 54.031-29.606 84.123z" transform="translate(-8.066)"/>
        <path id="Path_898" d="M1270.83 435.99l4.444-3.3a1.227 1.227 0 0 1 1.276-.1q.785.4 1.614.747a20.673 20.673 0 0 0 3.1 1.011 1.208 1.208 0 0 1 .934 1l.88 5.72a1.188 1.188 0 0 0 1.263 1.009l5.278-.347a1.173 1.173 0 0 0 1.093-1.121l.226-5.322a1.185 1.185 0 0 1 .887-1.106 21.384 21.384 0 0 0 6.139-2.789 1.22 1.22 0 0 1 1.48.12l2.391 2.188a1.231 1.231 0 0 0 1.627.017l3.923-3.484a1.125 1.125 0 0 0 .208-.234 1.183 1.183 0 0 0-.036-1.373l-2.457-3.326-.6-.811a21.282 21.282 0 0 0 1.332-2.677 21.608 21.608 0 0 0 1.173-3.817 1.183 1.183 0 0 1 .979-.934l4.609-.7a1.224 1.224 0 0 0 1.035-1.291l-.265-4.035-.08-1.156a1.237 1.237 0 0 0-1.181-1.16l-4.448-.187a1.177 1.177 0 0 1-1.1-.846 21.207 21.207 0 0 0-1.762-4.19 3 3 0 0 0-.187-.334.924.924 0 0 1-.056-.116 1.2 1.2 0 0 1 .217-1.321l3.55-3.891a.9.9 0 0 0 .108-.138 1.227 1.227 0 0 0-.1-1.483l-3.465-3.923a1.22 1.22 0 0 0-1.64-.172l-4.64 3.439a1.18 1.18 0 0 1-1.336.058 21.509 21.509 0 0 0-2.933-1.476q-.821-.34-1.653-.6a1.242 1.242 0 0 1-.85-1l-.843-5.5a1.186 1.186 0 0 0-1.251-1.005l-5.231.351a1.242 1.242 0 0 0-1.162 1.186l-.187 4.213a1.218 1.218 0 0 1-.975 1.147 21.312 21.312 0 0 0-6.182 2.242 1.216 1.216 0 0 1-1.416-.164l-3.491-3.193a1.252 1.252 0 0 0-1.667-.015l-3.912 3.452a1.2 1.2 0 0 0-.168 1.616l.142.187 2.858 3.861a1.227 1.227 0 0 1 .045 1.4 21.262 21.262 0 0 0-1.734 3.337c-.26.631-.482 1.265-.682 1.907a1.2 1.2 0 0 1-.969.848l-4.67.714a1.244 1.244 0 0 0-1.055 1.308l.349 5.2a1.315 1.315 0 0 0 .1.415 1.238 1.238 0 0 0 1.061.725l3.549.144a1.235 1.235 0 0 1 1.026.65 1.343 1.343 0 0 1 .114.323 21.3 21.3 0 0 0 3.249 7.753 1.194 1.194 0 0 1 .021 1.308 1.263 1.263 0 0 1-.125.163l-2.871 3.15a1.216 1.216 0 0 0-.015 1.62l.08.092 3.376 3.828a1.237 1.237 0 0 0 1.659.188zm22.6-31.173a14.254 14.254 0 0 1 1.922 1.823 11.179 11.179 0 0 1 2.341 5.623c.015.187.023.374.032.56.357 11.345-12.845 16.707-20.512 8.119a11.562 11.562 0 0 1-2.285-4.762 7.556 7.556 0 0 1-.157-1.11 13.112 13.112 0 0 1 .458-4.442 11.467 11.467 0 0 1 18.206-5.811z" class="cls-2" transform="translate(-1024.013 -313.92)"/>
        <path id="Path_899" d="M1482.816 199.013l3.818-2.072a.966.966 0 0 1 1 .064q.56.4 1.173.747a16.159 16.159 0 0 0 2.3 1.121.947.947 0 0 1 .609.88l.052 4.54a.934.934 0 0 0 .869.925l4.14.312a.921.921 0 0 0 .973-.747l.762-4.11a.934.934 0 0 1 .811-.76 16.772 16.772 0 0 0 5.078-1.495.956.956 0 0 1 1.136.256l1.616 1.963a.966.966 0 0 0 1.263.187l3.437-2.273a.848.848 0 0 0 .187-.159.934.934 0 0 0 .124-1.07l-1.536-2.828-.374-.695a16.433 16.433 0 0 0 1.33-1.934 16.929 16.929 0 0 0 1.334-2.836.934.934 0 0 1 .863-.618l3.658-.037a.962.962 0 0 0 .947-.889l.239-3.165.065-.906a.971.971 0 0 0-.79-1.031l-3.434-.641a.934.934 0 0 1-.764-.779 16.575 16.575 0 0 0-.91-3.445 2.784 2.784 0 0 0-.1-.28.469.469 0 0 1-.032-.1.945.945 0 0 1 .314-1l3.176-2.632a.607.607 0 0 0 .1-.1.96.96 0 0 0 .09-1.162l-2.26-3.43a.958.958 0 0 0-1.255-.316l-3.983 2.161a.934.934 0 0 1-1.044-.1 17.084 17.084 0 0 0-2.115-1.468c-.4-.237-.807-.454-1.218-.652a.977.977 0 0 1-.561-.867l-.05-4.364a.934.934 0 0 0-.861-.919l-4.083-.3a.973.973 0 0 0-1.033.794l-.605 3.252a.959.959 0 0 1-.884.783 16.754 16.754 0 0 0-5.044 1.059.951.951 0 0 1-1.082-.284l-2.371-2.869a.982.982 0 0 0-1.293-.187l-3.42 2.251a.934.934 0 0 0-.308 1.237l.088.168 1.793 3.314a.962.962 0 0 1-.118 1.091 16.654 16.654 0 0 0-1.713 2.4c-.273.461-.515.934-.747 1.407a.946.946 0 0 1-.848.56l-3.712.037a.975.975 0 0 0-.964.9l-.306 4.074a1.03 1.03 0 0 0 .035.334.967.967 0 0 0 .747.678l2.744.5a.971.971 0 0 1 .725.618 1.023 1.023 0 0 1 .054.263 16.67 16.67 0 0 0 1.668 6.381.934.934 0 0 1-.131 1.024.842.842 0 0 1-.116.114l-2.578 2.128a.956.956 0 0 0-.187 1.259l.051.078 2.2 3.346a.973.973 0 0 0 1.261.314zm21-21.722a10.976 10.976 0 0 1 1.291 1.627 8.783 8.783 0 0 1 1.2 4.627c0 .148-.024.293-.038.439a9.063 9.063 0 0 1-18.082.092 6.083 6.083 0 0 1 0-.88 10.235 10.235 0 0 1 .847-3.4 9.006 9.006 0 0 1 14.79-2.505z" class="cls-2" transform="translate(-1200.543 -131.723)"/>
        <path id="Path_900" d="M2392.457 1070.029l4.717-2.556a1.188 1.188 0 0 1 1.239.077q.7.493 1.446.934a19.954 19.954 0 0 0 2.841 1.392 1.169 1.169 0 0 1 .747 1.087l.063 5.6a1.151 1.151 0 0 0 1.074 1.14l5.11.387a1.141 1.141 0 0 0 1.2-.923l.934-5.076a1.142 1.142 0 0 1 1-.934 20.75 20.75 0 0 0 6.269-1.839 1.178 1.178 0 0 1 1.4.316l2 2.428a1.191 1.191 0 0 0 1.558.238l4.244-2.8a1.008 1.008 0 0 0 .23-.2 1.143 1.143 0 0 0 .153-1.323l-1.9-3.523-.468-.859a20.778 20.778 0 0 0 3.288-5.886 1.141 1.141 0 0 1 1.067-.764l4.515-.047a1.184 1.184 0 0 0 1.169-1.1l.3-3.906.082-1.121a1.2 1.2 0 0 0-.975-1.274l-4.241-.79a1.14 1.14 0 0 1-.935-.962 20.562 20.562 0 0 0-1.121-4.254 3.009 3.009 0 0 0-.129-.346.926.926 0 0 1-.04-.12 1.167 1.167 0 0 1 .391-1.237l3.923-3.25a.854.854 0 0 0 .125-.118 1.19 1.19 0 0 0 .11-1.435l-2.791-4.235a1.182 1.182 0 0 0-1.548-.39l-4.919 2.67a1.143 1.143 0 0 1-1.289-.129 20.952 20.952 0 0 0-2.615-1.814q-.747-.437-1.5-.8a1.209 1.209 0 0 1-.68-1.072l-.062-5.388a1.151 1.151 0 0 0-1.064-1.134l-5.056-.374a1.2 1.2 0 0 0-1.275.981l-.748 4.016a1.181 1.181 0 0 1-1.091.966 20.655 20.655 0 0 0-6.236 1.308 1.177 1.177 0 0 1-1.335-.351l-2.928-3.549a1.214 1.214 0 0 0-1.6-.241l-4.213 2.786a1.16 1.16 0 0 0-.383 1.526l.11.207 2.214 4.093a1.183 1.183 0 0 1-.146 1.347 20.636 20.636 0 0 0-2.117 2.965c-.336.561-.635 1.147-.914 1.737a1.162 1.162 0 0 1-1.046.682l-4.584.047a1.2 1.2 0 0 0-1.19 1.121l-.374 5.044a1.307 1.307 0 0 0 .043.413 1.2 1.2 0 0 0 .918.839l3.389.622a1.2 1.2 0 0 1 .895.764 1.37 1.37 0 0 1 .067.325 20.6 20.6 0 0 0 2.055 7.88 1.158 1.158 0 0 1-.16 1.263 1.2 1.2 0 0 1-.143.14l-3.176 2.628a1.184 1.184 0 0 0-.235 1.554l.064.1 2.718 4.132a1.2 1.2 0 0 0 1.559.365zm25.932-26.821a13.727 13.727 0 0 1 1.595 2.01 10.8 10.8 0 0 1 1.479 5.713c-.011.187-.03.362-.046.542-1.2 10.932-14.6 14.274-20.783 4.993a11.25 11.25 0 0 1-1.542-4.879 7.324 7.324 0 0 1 0-1.086 12.777 12.777 0 0 1 1.045-4.2 11.113 11.113 0 0 1 18.252-3.086z" class="cls-2" transform="translate(-1939.014 -832.965)"/>
        <path id="Path_901" d="M2557.98 900.989l2.524-1.367a.629.629 0 0 1 .661.041c.249.176.508.342.775.5a10.971 10.971 0 0 0 1.518.747.628.628 0 0 1 .4.581l.034 3a.615.615 0 0 0 .573.611l2.735.207a.609.609 0 0 0 .643-.5l.5-2.714a.616.616 0 0 1 .537-.5 11.149 11.149 0 0 0 3.353-.983.628.628 0 0 1 .747.168l1.069 1.3a.637.637 0 0 0 .833.127l2.27-1.495a.628.628 0 0 0 .125-.106.611.611 0 0 0 .08-.706l-1.018-1.887-.25-.458a11.125 11.125 0 0 0 1.76-3.146.61.61 0 0 1 .561-.407l2.417-.026a.632.632 0 0 0 .624-.587l.159-2.09.043-.6a.641.641 0 0 0-.521-.68l-2.268-.424a.608.608 0 0 1-.5-.514 10.958 10.958 0 0 0-.6-2.275 1.521 1.521 0 0 0-.069-.187.479.479 0 0 1-.021-.063.628.628 0 0 1 .208-.663l2.1-1.737a.693.693 0 0 0 .065-.063.636.636 0 0 0 .06-.768l-1.494-2.266a.633.633 0 0 0-.83-.207l-2.632 1.427a.611.611 0 0 1-.689-.069 11.509 11.509 0 0 0-1.4-.971c-.265-.155-.532-.3-.805-.43a.645.645 0 0 1-.362-.573l-.034-2.881a.616.616 0 0 0-.569-.607l-2.705-.2a.643.643 0 0 0-.682.525l-.4 2.148a.631.631 0 0 1-.585.517 11.015 11.015 0 0 0-3.334.7.628.628 0 0 1-.714-.187l-1.567-1.894a.648.648 0 0 0-.854-.129l-2.258 1.495a.62.62 0 0 0-.206.816l.06.11 1.184 2.192a.633.633 0 0 1-.06.7 10.9 10.9 0 0 0-1.132 1.586 9.18 9.18 0 0 0-.49.934.62.62 0 0 1-.561.364l-2.453.026a.643.643 0 0 0-.637.594l-.2 2.694a.653.653 0 0 0 .023.22.634.634 0 0 0 .491.448l1.812.334a.639.639 0 0 1 .481.407.689.689 0 0 1 .035.174 11.012 11.012 0 0 0 1.1 4.216.622.622 0 0 1-.086.676.739.739 0 0 1-.077.075l-1.7 1.407a.63.63 0 0 0-.125.829l.033.054 1.453 2.21a.645.645 0 0 0 .842.2zm13.873-14.349a7.346 7.346 0 0 1 .854 1.074 5.815 5.815 0 0 1 .792 3.056c0 .1-.017.187-.026.291a5.986 5.986 0 0 1-11.943.056 4.049 4.049 0 0 1 0-.581 6.829 6.829 0 0 1 .56-2.242 5.943 5.943 0 0 1 9.763-1.655z" class="cls-3" transform="translate(-2076.64 -712.791)"/>
        <path id="Path_902" d="M308.419 893.418l2.767-1.494a.7.7 0 0 1 .727.045c.273.187.56.374.848.547a11.537 11.537 0 0 0 1.666.816.687.687 0 0 1 .441.639l.037 3.288a.676.676 0 0 0 .63.669l3 .226a.667.667 0 0 0 .7-.542l.56-2.976a.669.669 0 0 1 .587-.551 12.14 12.14 0 0 0 3.678-1.078.693.693 0 0 1 .822.187l1.171 1.422a.7.7 0 0 0 .913.14l2.49-1.646a.627.627 0 0 0 .135-.116.667.667 0 0 0 .09-.775l-1.121-2.068-.273-.5a12.394 12.394 0 0 0 .964-1.4 12.255 12.255 0 0 0 .964-2.055.671.671 0 0 1 .626-.448l2.649-.026a.7.7 0 0 0 .686-.645l.174-2.292.047-.656a.7.7 0 0 0-.572-.747l-2.486-.465a.669.669 0 0 1-.56-.56 12.069 12.069 0 0 0-.648-2.5 2.044 2.044 0 0 0-.075-.2.293.293 0 0 1-.022-.069.686.686 0 0 1 .228-.727l2.3-1.905a.53.53 0 0 0 .073-.069.7.7 0 0 0 .065-.843l-1.633-2.483a.7.7 0 0 0-.91-.23l-2.884 1.565a.671.671 0 0 1-.757-.075 12.177 12.177 0 0 0-1.532-1.065c-.29-.17-.585-.327-.882-.471a.708.708 0 0 1-.4-.63l-.035-3.159a.678.678 0 0 0-.624-.667l-2.967-.219a.706.706 0 0 0-.747.575l-.437 2.356a.689.689 0 0 1-.641.56 12.153 12.153 0 0 0-3.658.768.689.689 0 0 1-.783-.205l-1.717-2.077a.71.71 0 0 0-.934-.142l-2.477 1.631a.68.68 0 0 0-.224.895l.063.122 1.308 2.4a.693.693 0 0 1-.086.788 12.18 12.18 0 0 0-1.242 1.739c-.2.334-.374.672-.536 1.018a.682.682 0 0 1-.613.4l-2.688.028a.706.706 0 0 0-.7.652l-.22 2.953a.784.784 0 0 0 .024.241.706.706 0 0 0 .54.493l1.988.374a.7.7 0 0 1 .525.448.784.784 0 0 1 .039.187 12.067 12.067 0 0 0 1.207 4.622.678.678 0 0 1-.093.747.687.687 0 0 1-.084.082l-1.868 1.541a.693.693 0 0 0-.138.912l.037.058 1.594 2.429a.7.7 0 0 0 .9.22zm15.212-15.733a8.092 8.092 0 0 1 .934 1.179 6.357 6.357 0 0 1 .869 3.351 2.991 2.991 0 0 1-.028.318 6.563 6.563 0 0 1-13.094.067 4.02 4.02 0 0 1 0-.637 7.473 7.473 0 0 1 .613-2.464 6.516 6.516 0 0 1 10.706-1.814z" class="cls-2" transform="translate(-247.001 -704.708)"/>
        <path id="Path_903" d="M1602.733 421.063l7.108-5.089a1.94 1.94 0 0 1 2.02-.127q1.227.656 2.529 1.216a32.524 32.524 0 0 0 4.876 1.681 1.915 1.915 0 0 1 1.437 1.607l1.237 9.051a1.868 1.868 0 0 0 1.967 1.629l8.341-.411a1.857 1.857 0 0 0 1.758-1.736l.5-8.406a1.869 1.869 0 0 1 1.429-1.722 33.728 33.728 0 0 0 9.767-4.242 1.926 1.926 0 0 1 2.333.228l3.719 3.516a1.941 1.941 0 0 0 2.567.069l6.3-5.4a1.712 1.712 0 0 0 .333-.374 1.869 1.869 0 0 0-.019-2.169l-3.794-5.315-.934-1.295a33.026 33.026 0 0 0 2.173-4.194 33.717 33.717 0 0 0 1.952-5.993 1.868 1.868 0 0 1 1.573-1.452l7.286-.988a1.934 1.934 0 0 0 1.668-2.014l-.314-6.378-.093-1.827a1.956 1.956 0 0 0-1.836-1.868l-7.019-.42a1.868 1.868 0 0 1-1.717-1.364 33.5 33.5 0 0 0-2.677-6.651q-.126-.275-.279-.536a1.032 1.032 0 0 1-.088-.187 1.906 1.906 0 0 1 .374-2.081l5.714-6.026a1.44 1.44 0 0 0 .176-.215 1.94 1.94 0 0 0-.112-2.344l-5.369-6.284a1.93 1.93 0 0 0-2.587-.316l-7.411 5.309a1.868 1.868 0 0 1-2.113.056 34.194 34.194 0 0 0-4.592-2.408q-1.285-.56-2.595-.994a1.969 1.969 0 0 1-1.308-1.6l-1.192-8.7a1.868 1.868 0 0 0-1.952-1.618l-8.251.419a1.96 1.96 0 0 0-1.868 1.844l-.394 6.645a1.924 1.924 0 0 1-1.569 1.784 33.671 33.671 0 0 0-9.824 3.376 1.915 1.915 0 0 1-2.23-.3l-5.451-5.135a1.98 1.98 0 0 0-2.63-.065l-6.264 5.352a1.892 1.892 0 0 0-.31 2.546l.219.314 4.413 6.165a1.931 1.931 0 0 1 .033 2.206v.009a33.63 33.63 0 0 0-2.824 5.231c-.426.988-.794 1.984-1.121 2.989a1.9 1.9 0 0 1-1.554 1.308l-7.4 1a1.96 1.96 0 0 0-1.7 2.04l.411 8.22a2.1 2.1 0 0 0 .153.658 1.952 1.952 0 0 0 1.655 1.171l5.6.321a1.951 1.951 0 0 1 1.6 1.054 2.129 2.129 0 0 1 .174.512 33.57 33.57 0 0 0 4.924 12.33 1.89 1.89 0 0 1 0 2.077 1.989 1.989 0 0 1-.2.254l-4.633 4.9a1.924 1.924 0 0 0-.065 2.559l.123.148 5.231 6.131a1.956 1.956 0 0 0 2.616.319zm36.51-48.616a22.448 22.448 0 0 1 2.99 2.929 17.689 17.689 0 0 1 3.549 8.939c.017.3.024.592.034.887.267 17.921-20.719 26.038-32.6 12.279a18.323 18.323 0 0 1-3.482-7.579 11.933 11.933 0 0 1-.219-1.756 20.74 20.74 0 0 1 .84-7 18.1 18.1 0 0 1 28.888-8.699z" class="cls-2" transform="translate(-1289.007 -278.668)"/>
        <path id="Path_904" d="M496 641.018c2.225-11.287 21.158-9.133 21.158-9.133s14.048 18.494 17.773 18.7-8.918-18.158-8.918-18.158c7.1-1.192 25.948 6.3 25.948 6.3s.43 22.694 4.089 21.975-1.4-20.077-1.4-20.077c7.067 1.594 14.093 9.217 14.093 9.217 9 12.587-7.631 23.49-7.631 23.49a36.938 36.938 0 0 0 5.791 16.523 26.778 26.778 0 0 1 2.518 4.332l-1.887.131q-.282-.747-.615-1.429a.116.116 0 0 1 0-.021c-.151-.282-.374-.684-.631-1.173-.656-1.089-1.1-1.9-1.392-2.481-1.976-3.422-4.788-7.865-6.516-8.717a3.656 3.656 0 0 0 .329-.9l-.344.893c-2.746 7.149-18.817 9.434-27.947 8.22s-5.382-4.029-.826-8.489 14.788-4.084 17.674-5.909-1.61-3.133-7.579-2.253-8.547 7.1-18.173 8.692-18.289-16.122-18.289-16.122c6.837 1.608 18.576-2.924 18.868-5.264s-17.452-.865-20.27-1.365-8.046-5.7-5.823-16.982z" class="cls-2" transform="translate(-402.907 -513.707)"/>
        <path id="Path_905" d="M1270.705 906.408l-10.015 119.072s-1.048 7.218 4.321 7.232c8.827.021 43.936 0 43.936 0s-6.643-1.5-6.563-4.883c.1-3.985 11.706-122.548 11.706-122.548z" class="cls-4" transform="translate(-1025.112 -736.163)"/>
        <path id="Path_906" d="M1324.354 1021.174c-1.735 0-35.27.11-43.867 0-3.736-.047-4.4-3.331-4.435-5.457a10.712 10.712 0 0 1 .114-1.773l.261-3.094.663-7.889.587-6.968.747-8.956.635-7.558 7.115-84.609 43.383-1.121s-4.889 49.617-8.347 85.735c-.386 4.024-.747 7.883-1.093 11.485q-.168 1.722-.319 3.363c-.322 3.417-.615 6.555-.869 9.326l-.374 4.061c-.441 4.87-.7 7.981-.7 8.573a4.93 4.93 0 0 0 .084.962c.719 3.797 5.761 3.92 6.415 3.92z" class="cls-3" transform="translate(-1037.669 -726.787)"/>
        <path id="Path_907" d="M750.66 564.47l24.392 97.983 3.34 13.419 11.362 45.636h211.071L958.949 564.47z" class="cls-3" transform="translate(-610.428 -459.02)"/>
        <path id="Path_908" d="M735.941 564.47l-3.381 1.13 37.981 159.32 4.495-3.407z" class="cls-4" transform="translate(-595.709 -459.02)"/>
        <path id="Path_909" d="M935.87 1408.507h209.773l5.791-3.407H940.365z" class="cls-4" transform="translate(-761.039 -1142.611)"/>
        <path id="Rectangle_834" d="M0 0H45.42V2.158H0z" class="cls-3" transform="rotate(180 146.958 148.297)"/>
        <path id="Path_910" fill="#759be0" d="M1324.568 1423.34l-.233 1.649-42.715 8.629.587-6.968.278-3.31z" opacity="0.7" transform="translate(-1042.198 -1157.443)"/>
        <path id="Path_911" d="M1324.362 1517.284c-1.735 0-35.27.11-43.867 0-3.736-.047-4.4-3.331-4.435-5.457l42.513-8c-.441 4.87-.7 7.981-.7 8.573a4.873 4.873 0 0 0 .084.962c.709 3.799 5.753 3.922 6.405 3.922z" class="cls-6" transform="translate(-1037.677 -1222.897)"/>
        <path id="Path_912" d="M1003.192 1174.646l-92.72 31.792-11.362-45.638z" class="cls-6" transform="translate(-731.146 -943.949)"/>
        <path id="Path_913" fill="#d2e0ff" d="M750.66 564.47h208.289l33.54 126.21h-210.4z" transform="translate(-610.428 -459.02)"/>
        <path id="Path_914" fill="#aec3ff" d="M795.59 588.47l29.922 114.97h193.425l-30.249-113.646z" opacity="0.5" transform="translate(-646.964 -478.537)"/>
        <path id="Rectangle_835" d="M0 0H73.163V46.163H0z" class="cls-9" transform="translate(218.644 178.736)"/>
        <path id="Rectangle_836" d="M0 0H73.161V46.161H0z" class="cls-10" transform="translate(255.226 178.738)"/>
        <path id="Path_915" fill="#e06d20" d="M1207.168 963.589l-15.421 15.423h-21.117V956.77h36.538z" transform="translate(-951.943 -778.034)"/>
        <path id="Path_916" d="M1098.8 956.77l-16.449 15.871h36.6l16.426-15.871z" class="cls-10" transform="translate(-880.154 -778.034)"/>
        <path id="Path_917" d="M1439.383 958.406l-73.163-1.636v6.806l13.6 14.915h59.558v-14.848l-.375-.443h.377z" class="cls-9" transform="translate(-1110.994 -778.034)"/>
        <path id="Path_918" d="M1366.22 956.77l14.476 15.871h72.2l-13.509-15.871z" class="cls-10" transform="translate(-1110.994 -778.034)"/>
        <path id="Path_919" d="M597.36 901.365s.51-5.545-5.685-5.545a7.337 7.337 0 0 1 2.847 1.528s-3.951-2.318-8.249 1.244-1.627 12.5-2.935 14.2-6.4 2.036-5.776 7.523 16.157 12.361 15.16 16.9c0 0 6.088-8.95 1.735-13.034a8.061 8.061 0 0 1 2.337 4.375s.577-4.64-2.374-6.124c-2.615-1.308-4.752-6.114-4.526-6.974s7.466-14.093 7.466-14.093z" class="cls-12" transform="translate(-469.624 -728.47)"/>
        <path id="Path_920" d="M622.563 1068s4.627 19.144 9.171 22.978c2.729 2.3 10.848 7.579 10.848 7.579l-3.376 1.225s-11.261-3.8-13.783-6.766S616 1075.19 616 1075.19z" class="cls-13" transform="translate(-500.924 -868.485)"/>
        <path id="Path_921" d="M670.821 1236.472l-1.087-2.694a7.637 7.637 0 0 0-7.078-4.778H642.59v67.065h82.986v-54.34h-46.961a8.407 8.407 0 0 1-7.794-5.254z" class="cls-10" transform="translate(-522.547 -999.408)"/>
        <path id="Path_922" d="M709.6 1393.942v-4.835l16.957-7.427v4.939l-11.838 4.87 11.842 4.87v5.01z" class="cls-14" transform="translate(-577.038 -1123.566)"/>
        <path id="Path_923" d="M827.142 1350.73h4.519l-15.52 32.445h-4.521z" class="cls-14" transform="translate(-660 -1098.398)"/>
        <path id="Path_924" d="M945.964 1389.108v4.834L929 1401.37v-4.939l11.842-4.87L929 1386.69v-5.01z" class="cls-14" transform="translate(-755.452 -1123.566)"/>
        <path id="Path_925" d="M405.755 1169.21l.127.224c1.013 1.76 3.336 6.073 5.894 10.792 1.211 2.241 2.479 4.571 3.68 6.764 2.072 3.785 3.957 7.155 5.055 8.937 1.121 1.812 1.941 3.084 2.274 3.592a.853.853 0 0 1 .108.525 27.359 27.359 0 0 0 .073 4.747 36.407 36.407 0 0 0 11.9 23.581l3.079.456s-4.356-16.141-5.64-25.264a17.609 17.609 0 0 1-.235-3.617 37.411 37.411 0 0 0-.994-9.875 221.253 221.253 0 0 0-6.294-22.856c-.144-.447-4.474-16.107-4.474-16.107-3.633 3.176-16.886 4.484-16.886 4.484s-2.247 5.474 2.333 13.617z" class="cls-15" transform="translate(-327.608 -936.069)"/>
        <path id="Path_926" d="M568.982 1556.879h-12.849a7.039 7.039 0 0 1 .364-3.443c.643-1.427 1.558-1.472.116-3.706.816.841 3.441 1.188 5.3.934.228.374 1.468 2.845 2.229 3.391.837.613 4.58.396 4.84 2.824z" class="cls-16" transform="translate(-452.184 -1260.222)"/>
        <path id="Path_927" d="M418.32 1215.025l.127.224c1.013 1.76 6.49 11.876 9.047 16.594a68.414 68.414 0 0 1-.9-24.394z" class="cls-16" transform="translate(-340.173 -981.884)"/>
        <path id="Path_928" d="M630.779 920.937c.084-.338-7.338 3.353-7.714 3.772-3.482 3.861-2.488 8.9-.5 8.948 1.278.032 1.029 2.154 1.029 2.154l14.231-6.019s-1.701-9.992-7.046-8.855z" class="cls-12" transform="translate(-504.795 -748.822)"/>
        <path id="Path_929" d="M616.2 1052.59s2.167 4.327 1.9 7.846c0 0-2.615 4.121-9.384 5.165-.006-.007 5.817-13.013 7.484-13.011z" class="cls-10" transform="translate(-494.996 -855.954)"/>
        <path id="Path_930" d="M331.556 1144.923l.043-2.4c-4.788.6-16.509-5.72-16.509-5.72s-5.008 3.331-5.694 12.845c-.334 4.642-2.451 24.286-2.686 30.146-.086 2.126-.114 3.643-.123 4.248a.829.829 0 0 1-.2.5 27.369 27.369 0 0 0-2.593 3.977c-7.306 13.592-3.486 32.063-3.486 32.063l1.7-.432s6.178-19.148 10.215-27.429a17.258 17.258 0 0 1 1.829-3.129 37.781 37.781 0 0 0 4.7-8.743c2.97-7.128 12.804-35.926 12.804-35.926z" class="cls-15" transform="translate(-243.392 -924.432)"/>
        <path id="Path_931" d="M303.109 1556.473h-12.847a7.052 7.052 0 0 1 .362-3.443c.643-1.427 1.65-2.073 1.409-3.8a4.628 4.628 0 0 0 4.005 1.532 13.951 13.951 0 0 0 2.229 2.89c.841.609 4.592.392 4.842 2.821z" class="cls-16" transform="translate(-235.98 -1259.816)"/>
        <path id="Path_932" d="M422.727 1036.69c-1.724.293.282 1.666-2.09 1.924-3.379.374-6.867.62-8.694 1.349-.667.265-1.121.594-1.252 1.014-.792 2.382-5.808 6.473-5.808 6.473-22.373-1.018-23.813-10.988-23.813-10.988 14.519-14.1 26.873-21.79 37.082-22.741a18.18 18.18 0 0 1 7.405.779c3.57 1.59 5.526 6.426 5.526 6.426s-1.797 14.643-8.356 15.764z" class="cls-10" transform="translate(-309.882 -824.284)"/>
        <path id="Path_933" d="M554.708 1068.041c-3.379.374-6.867.62-8.694 1.349a35.615 35.615 0 0 1 4.519-19.55s3.435 13.977 4.175 18.201z" class="cls-9" transform="translate(-443.953 -853.718)"/>
        <path id="Path_934" d="M563.541 1039.685s-8.5-.465-10.006 4.87 2.832 26.625 3.768 28.821c1.7 4 10 15.42 10 15.42l3.051-.934s-5.53-17.443-6.764-19.169c-1.943-2.705 2.493-26.688-.049-29.008z" class="cls-13" transform="translate(-449.872 -845.452)"/>
        <path id="Path_935" d="M630.577 1296.046a4.829 4.829 0 0 0 .729 2.055c.572.7 2.242 2.388 2.262 3.378 0 0-.084.439-.441.358s-1.594-1.307-2.229-1.218a12.321 12.321 0 0 0 .674 2.541 7.27 7.27 0 0 1-.133 3.407c-.2.482-2.681-2.587-3.7-3.957s-.015-6.931-.015-6.931z" class="cls-13" transform="translate(-510.099 -1053.632)"/>
        <path id="Path_936" d="M545.94 1044.851c.022.125 8.033 1.474 13.054-1.071 0 0 4.19-13.125-1.8-12.5s-9.527 2.513-9.682 5.378a55.772 55.772 0 0 1-1.572 8.193z" class="cls-10" transform="translate(-443.952 -838.61)"/>
        <path id="Path_937" d="M617.979 1000.782c.639 2 2.769 7.7 5.718 5.505-.1-.424.521-1.661 1.252-2.918.934-1.6 2.055-3.247 2.055-3.247l-4.816-4.22-.288-.252a12.221 12.221 0 0 1-3.578 4.061.966.966 0 0 0-.343 1.071z" class="cls-13" transform="translate(-502.495 -809.651)"/>
        <path id="Path_938" fill="#ed985f" d="M645.093 1001.254s-1.121 1.638-2.055 3.245c-2.989-1.842-2.989-5.543-2.761-7.459z" transform="translate(-520.594 -810.781)"/>
        <path id="Path_939" d="M644.4 965.96s-7.258-4.037-4.67-8.519 3.389-8.02 8.132-5.63 4.648 4.614 4.149 6.318-5.654 8.771-7.611 7.831z" class="cls-13" transform="translate(-519.77 -773.376)"/>
        <path id="Path_940" d="M649.905 952.849c-.331-1.99-1.341-2.18-2.055-2.055a5.8 5.8 0 0 0-7.058-2.7 9.9 9.9 0 0 1-5.713 3.448s.843 1.566 4.312 2.535a5.927 5.927 0 0 0 3.424-.273 19.353 19.353 0 0 1-4.924 1.847c4.571.418 8.922-3.762 9.372-4.209a6.5 6.5 0 0 1 .361 2.989c-.3 1.347-1.495 3.789-.768 4.11.001.004 3.544-2.703 3.049-5.692z" class="cls-12" transform="translate(-516.44 -770.707)"/>
        <path id="Path_941" d="M760.75 1230.971s-2.025 1.519-.5 2.51 4.25 1.263 4.261.611c.041-2.187-1.05-3.741-3.761-3.121z" class="cls-13" transform="translate(-617.764 -1000.9)"/>
        <rect id="Rectangle_837" width="521.524" height="1.235" fill="#2e3552" rx=".617" transform="translate(0 296.593)"/>
        <path id="Path_942" d="M922.02 777.737c-.235-.973.187-1.735 1.091-1.737a2.113 2.113 0 0 1 1.922 1.732c.241.984-.187 1.735-1.091 1.737a2.114 2.114 0 0 1-1.922-1.732zm2.242 0c-.146-.609-.56-1.069-1-1.069s-.63.448-.478 1.07.56 1.069 1.005 1.067.633-.454.482-1.072z" class="cls-10" transform="translate(-749.724 -631.034)"/>
        <path id="Path_943" d="M848.857 647.117l-.56.146-.3-.6.9-.289h.508l.818 3.378h-.736z" class="cls-6" transform="translate(-689.584 -525.62)"/>
        <path id="Path_944" d="M866.46 647.9c-.235-.973.187-1.735 1.091-1.737a2.113 2.113 0 0 1 1.922 1.732c.241.984-.187 1.735-1.091 1.737a2.113 2.113 0 0 1-1.922-1.732zm2.242 0c-.148-.609-.56-1.069-1.005-1.069s-.628.448-.476 1.07.56 1.069 1 1.067.633-.456.484-1.072z" class="cls-6" transform="translate(-704.543 -525.45)"/>
        <path id="Path_945" d="M1180.713 646.517l-.561.146-.3-.6.9-.29h.51l.818 3.378h-.738z" class="cls-6" transform="translate(-959.44 -525.133)"/>
        <path id="Path_946" d="M1198.341 647.3c-.235-.971.187-1.735 1.093-1.735a2.11 2.11 0 0 1 1.92 1.732c.239.985-.187 1.736-1.091 1.736a2.115 2.115 0 0 1-1.922-1.733zm2.242 0c-.147-.607-.56-1.067-1.005-1.067s-.629.447-.478 1.071.56 1.067 1.005 1.067.635-.456.486-1.074z" class="cls-6" transform="translate(-974.424 -524.962)"/>
        <path id="Path_947" d="M1222.46 647.247c-.235-.971.187-1.735 1.091-1.737a2.113 2.113 0 0 1 1.922 1.734c.241.986-.187 1.736-1.093 1.736a2.108 2.108 0 0 1-1.92-1.733zm2.242 0c-.148-.609-.561-1.067-1.005-1.067s-.628.447-.476 1.07.56 1.067 1 1.067.633-.456.484-1.074z" class="cls-6" transform="translate(-994.038 -524.921)"/>
        <path id="Path_948" d="M1345.79 647.3c-.235-.971.187-1.735 1.091-1.735a2.115 2.115 0 0 1 1.922 1.732c.241.985-.187 1.736-1.091 1.736a2.114 2.114 0 0 1-1.922-1.733zm2.242 0c-.148-.607-.56-1.067-1-1.067s-.629.447-.478 1.071.561 1.067 1 1.067.632-.456.482-1.074z" class="cls-6" transform="translate(-1094.329 -524.962)"/>
        <path id="Path_949" d="M1369.91 647.247c-.235-.971.187-1.735 1.091-1.737a2.109 2.109 0 0 1 1.92 1.734c.239.986-.187 1.736-1.091 1.736a2.112 2.112 0 0 1-1.92-1.733zm2.242 0c-.147-.609-.561-1.067-1-1.067s-.628.447-.479 1.07.561 1.067 1.005 1.067.629-.456.484-1.074z" class="cls-6" transform="translate(-1113.943 -524.921)"/>
        <path id="Path_950" d="M1394.021 647.207c-.235-.973.187-1.736 1.091-1.737a2.113 2.113 0 0 1 1.922 1.732c.241.985-.187 1.736-1.091 1.737a2.118 2.118 0 0 1-1.922-1.732zm2.242 0c-.147-.609-.56-1.069-1.005-1.067s-.628.447-.476 1.071.56 1.067 1.005 1.067.631-.456.482-1.074z" class="cls-6" transform="translate(-1133.549 -524.889)"/>
        <path id="Path_951" d="M1561.72 646.8c-.235-.971.187-1.735 1.093-1.737a2.108 2.108 0 0 1 1.921 1.732c.239.984-.187 1.735-1.091 1.737a2.106 2.106 0 0 1-1.923-1.732zm2.242 0c-.146-.609-.561-1.068-1-1.067s-.63.447-.478 1.069.56 1.068 1.005 1.068.624-.456.476-1.074z" class="cls-6" transform="translate(-1269.92 -524.555)"/>
        <path id="Path_952" d="M1584.72 646.757c-.235-.972.187-1.736 1.091-1.737a2.114 2.114 0 0 1 1.922 1.734c.241.986-.187 1.735-1.091 1.735a2.121 2.121 0 0 1-1.922-1.732zm2.242 0c-.148-.607-.561-1.067-1-1.067s-.63.446-.478 1.07.56 1.067 1 1.067.637-.456.488-1.074z" class="cls-6" transform="translate(-1288.624 -524.523)"/>
        <path id="Path_953" d="M1609.85 646.717c-.235-.973.187-1.735 1.093-1.737a2.108 2.108 0 0 1 1.921 1.732c.239.984-.187 1.735-1.091 1.737a2.114 2.114 0 0 1-1.923-1.732zm2.242 0c-.146-.609-.561-1.069-1-1.067s-.63.446-.478 1.069.56 1.068 1.005 1.068.639-.456.482-1.074z" class="cls-6" transform="translate(-1309.059 -524.49)"/>
        <path id="Path_954" d="M1650.85 646.647c-.235-.971.187-1.735 1.091-1.737a2.113 2.113 0 0 1 1.922 1.732c.241.985-.187 1.735-1.091 1.737a2.112 2.112 0 0 1-1.922-1.732zm2.242 0c-.148-.609-.561-1.069-1.005-1.067s-.628.447-.476 1.071.56 1.067 1 1.067.641-.456.484-1.074z" class="cls-6" transform="translate(-1342.4 -524.433)"/>
        <path id="Path_955" d="M1673.351 645.807l-.561.146-.3-.6.9-.29h.51l.818 3.379h-.747z" class="cls-6" transform="translate(-1360.049 -524.555)"/>
        <path id="Path_956" d="M1690.96 646.585c-.235-.971.187-1.735 1.093-1.735a2.11 2.11 0 0 1 1.92 1.732c.239.984-.187 1.735-1.091 1.737a2.116 2.116 0 0 1-1.922-1.734zm2.242 0c-.146-.607-.561-1.067-1-1.067s-.629.447-.478 1.071.56 1.067 1 1.067.633-.456.482-1.074z" class="cls-6" transform="translate(-1375.017 -524.385)"/>
        <path id="Path_957" d="M1731.15 646.437c-.235-.973.187-1.736 1.091-1.737a2.113 2.113 0 0 1 1.922 1.732c.241.984-.187 1.735-1.091 1.737a2.106 2.106 0 0 1-1.922-1.732zm2.242 0c-.148-.609-.561-1.069-1.005-1.069s-.628.447-.476 1.07.56 1.069 1 1.067.633-.448.484-1.069z" class="cls-6" transform="translate(-1407.699 -524.262)"/>
        <path id="Path_958" d="M1035.72 686.707c-.235-.973.187-1.736 1.091-1.737a2.113 2.113 0 0 1 1.922 1.732c.241.984-.187 1.736-1.093 1.737a2.106 2.106 0 0 1-1.92-1.732zm2.242 0c-.147-.609-.56-1.069-1-1.067s-.628.447-.478 1.069.561 1.069 1.005 1.069.631-.456.478-1.074z" class="cls-6" transform="translate(-842.184 -557.01)"/>
        <path id="Path_959" d="M1059.82 686.667c-.236-.973.187-1.735 1.091-1.737a2.114 2.114 0 0 1 1.922 1.732c.241.985-.187 1.736-1.091 1.737a2.114 2.114 0 0 1-1.922-1.732zm2.242 0c-.146-.609-.561-1.069-1-1.067s-.629.446-.478 1.068.56 1.069 1 1.069.632-.456.482-1.074z" class="cls-6" transform="translate(-861.781 -556.977)"/>
        <path id="Path_960" d="M1660.31 685.735c-.235-.971.187-1.735 1.091-1.735a2.115 2.115 0 0 1 1.922 1.732c.241.984-.187 1.735-1.091 1.735a2.114 2.114 0 0 1-1.922-1.732zm2.242 0c-.147-.607-.561-1.067-1-1.067s-.63.446-.479 1.07.56 1.067 1.005 1.067.634-.456.482-1.074z" class="cls-6" transform="translate(-1350.093 -556.221)"/>
        <path id="Path_961" d="M1682.811 684.887l-.56.146-.3-.6.9-.29h.508l.818 3.378h-.727z" class="cls-6" transform="translate(-1367.742 -556.335)"/>
        <path id="Path_962" d="M1700.43 685.667c-.235-.973.187-1.736 1.091-1.737a2.11 2.11 0 0 1 1.921 1.732c.239.985-.187 1.736-1.091 1.738a2.116 2.116 0 0 1-1.921-1.733zm2.241 0c-.147-.609-.56-1.069-1-1.069s-.628.448-.478 1.071.561 1.069 1.005 1.067.633-.456.484-1.072z" class="cls-6" transform="translate(-1382.718 -556.164)"/>
        <path id="Path_963" d="M1788.84 685.437c-.235-.973.187-1.736 1.093-1.737a2.108 2.108 0 0 1 1.921 1.732c.239.984-.187 1.735-1.091 1.737a2.108 2.108 0 0 1-1.923-1.732zm2.242 0c-.146-.609-.56-1.069-1-1.069s-.63.448-.479 1.07.561 1.069 1.005 1.067.641-.446.482-1.068z" class="cls-6" transform="translate(-1454.612 -555.977)"/>
        <path id="Path_964" d="M1811.341 684.629l-.561.144-.3-.6.9-.289h.508l.818 3.378h-.736z" class="cls-6" transform="translate(-1472.261 -556.123)"/>
        <path id="Path_965" d="M1015.42 897.707c-.235-.973.187-1.735 1.091-1.737a2.113 2.113 0 0 1 1.922 1.732c.241.984-.187 1.735-1.091 1.737a2.117 2.117 0 0 1-1.922-1.732zm2.242 0c-.148-.609-.56-1.069-1.005-1.067s-.628.446-.476 1.07.561 1.067 1 1.067.633-.456.484-1.074z" class="cls-6" transform="translate(-825.676 -728.592)"/>
        <path id="Path_966" d="M1039.53 897.667c-.235-.973.187-1.736 1.093-1.737a2.108 2.108 0 0 1 1.92 1.732c.239.985-.187 1.735-1.091 1.737a2.114 2.114 0 0 1-1.922-1.732zm2.242 0c-.148-.609-.561-1.069-1.005-1.067s-.629.447-.478 1.069.56 1.068 1.005 1.068.635-.456.486-1.074z" class="cls-6" transform="translate(-845.282 -728.56)"/>
        <path id="Path_967" d="M1062.031 896.827l-.561.146-.3-.6.9-.29h.508l.818 3.377h-.736z" class="cls-6" transform="translate(-862.931 -728.682)"/>
        <path id="Path_968" d="M1103.72 897.557c-.235-.971.187-1.735 1.093-1.737a2.108 2.108 0 0 1 1.92 1.734c.239.986-.187 1.736-1.091 1.736a2.123 2.123 0 0 1-1.922-1.733zm2.242 0c-.148-.607-.561-1.067-1.005-1.067s-.63.447-.478 1.07.56 1.067 1.005 1.067.643-.456.493-1.074z" class="cls-6" transform="translate(-897.48 -728.47)"/>
        <path id="Path_969" d="M1127.88 897.517c-.236-.971.187-1.735 1.091-1.737a2.113 2.113 0 0 1 1.922 1.734c.241.986-.187 1.735-1.091 1.735a2.114 2.114 0 0 1-1.922-1.732zm2.242 0c-.148-.609-.56-1.067-1.005-1.067s-.628.447-.476 1.071.56 1.067 1 1.067.635-.456.484-1.074z" class="cls-6" transform="translate(-917.127 -728.438)"/>
        <path id="Path_970" d="M1152 897.437c-.237-.973.187-1.735 1.091-1.737a2.109 2.109 0 0 1 1.92 1.732c.239.984-.187 1.735-1.091 1.737a2.1 2.1 0 0 1-1.92-1.732zm2.242 0c-.147-.609-.56-1.068-1-1.067s-.63.447-.478 1.068.56 1.069 1.005 1.069.633-.448.484-1.07z" class="cls-6" transform="translate(-936.738 -728.373)"/>
        <path id="Path_971" d="M1453.05 897.707c-.235-.973.187-1.735 1.093-1.737a2.108 2.108 0 0 1 1.92 1.732c.239.984-.187 1.735-1.091 1.737a2.114 2.114 0 0 1-1.922-1.732zm2.242 0c-.146-.609-.56-1.069-1-1.067s-.63.446-.479 1.07.56 1.067 1.005 1.067.633-.456.482-1.074z" class="cls-6" transform="translate(-1181.551 -728.592)"/>
        <path id="Path_972" d="M1477.17 897.667c-.235-.973.187-1.736 1.091-1.737a2.114 2.114 0 0 1 1.922 1.732c.241.985-.187 1.735-1.093 1.737a2.108 2.108 0 0 1-1.92-1.732zm2.242 0c-.147-.609-.56-1.069-1.005-1.067s-.627.447-.478 1.069.56 1.068 1.005 1.068.633-.456.484-1.074z" class="cls-6" transform="translate(-1201.165 -728.56)"/>
        <path id="Path_973" d="M1499.653 896.827l-.561.146-.3-.6.9-.29h.51l.816 3.377h-.736z" class="cls-6" transform="translate(-1218.798 -728.682)"/>
        <path id="Path_974" d="M1614.72 897.707c-.235-.973.187-1.735 1.091-1.737a2.113 2.113 0 0 1 1.922 1.732c.241.984-.187 1.735-1.093 1.737a2.11 2.11 0 0 1-1.92-1.732zm2.242 0c-.148-.609-.561-1.069-1-1.067s-.628.446-.479 1.07.561 1.067 1.005 1.067.635-.456.478-1.074z" class="cls-6" transform="translate(-1313.019 -728.592)"/>
        <path id="Path_975" d="M1638.841 897.667c-.235-.973.187-1.736 1.093-1.737a2.108 2.108 0 0 1 1.92 1.732c.239.985-.187 1.735-1.091 1.737a2.113 2.113 0 0 1-1.922-1.732zm2.242 0c-.146-.609-.56-1.069-1-1.067s-.63.447-.478 1.069.56 1.068 1.005 1.068.641-.456.482-1.074z" class="cls-6" transform="translate(-1332.634 -728.56)"/>
        <path id="Path_976" d="M1661.341 896.827l-.561.146-.3-.6.9-.29h.509l.818 3.377h-.736z" class="cls-6" transform="translate(-1350.283 -728.682)"/>
        <path id="Path_977" d="M1541.4 897.557c-.236-.971.187-1.735 1.091-1.737a2.113 2.113 0 0 1 1.922 1.734c.241.986-.187 1.736-1.093 1.736a2.118 2.118 0 0 1-1.92-1.733zm2.242 0c-.148-.607-.561-1.067-1.005-1.067s-.628.447-.479 1.07.561 1.067 1.005 1.067.634-.456.484-1.074z" class="cls-6" transform="translate(-1253.397 -728.47)"/>
        <path id="Path_978" d="M1565.51 897.517c-.235-.971.187-1.735 1.093-1.737a2.108 2.108 0 0 1 1.92 1.734c.239.986-.187 1.735-1.091 1.735a2.116 2.116 0 0 1-1.922-1.732zm2.242 0c-.146-.609-.561-1.067-1-1.067s-.63.447-.478 1.071.56 1.067 1.005 1.067.633-.456.482-1.074z" class="cls-6" transform="translate(-1273.002 -728.438)"/>
        <path id="Path_979" d="M1589.63 897.437c-.235-.973.187-1.735 1.091-1.737a2.113 2.113 0 0 1 1.922 1.732c.241.984-.187 1.735-1.091 1.737a2.1 2.1 0 0 1-1.922-1.732zm2.242 0c-.148-.609-.56-1.068-1.005-1.067s-.628.447-.476 1.068.56 1.069 1 1.069.633-.448.484-1.07z" class="cls-6" transform="translate(-1292.617 -728.373)"/>
        <path id="Path_980" d="M1234.47 897.077c-.235-.973.187-1.736 1.091-1.737a2.113 2.113 0 0 1 1.922 1.732c.241.984-.187 1.735-1.093 1.737a2.106 2.106 0 0 1-1.92-1.732zm2.242 0c-.147-.609-.56-1.069-1-1.069s-.628.446-.477 1.07.561 1.069 1 1.067.633-.456.484-1.072z" class="cls-6" transform="translate(-1003.805 -728.08)"/>
        <path id="Path_981" d="M1256.953 896.229l-.56.144-.3-.6.9-.29h.51l.817 3.378h-.736z" class="cls-6" transform="translate(-1021.438 -728.194)"/>
        <path id="Path_982" d="M1274.58 897.007c-.235-.973.187-1.736 1.093-1.737a2.108 2.108 0 0 1 1.92 1.732c.239.984-.187 1.735-1.091 1.737a2.114 2.114 0 0 1-1.922-1.732zm2.242 0c-.147-.609-.561-1.069-1-1.069s-.63.448-.479 1.07.561 1.069 1.005 1.067.635-.454.486-1.072z" class="cls-6" transform="translate(-1036.422 -728.023)"/>
        <path id="Path_983" d="M1751.56 896.507c-.235-.973.187-1.735 1.091-1.737a2.114 2.114 0 0 1 1.922 1.732c.241.985-.187 1.736-1.091 1.737a2.114 2.114 0 0 1-1.922-1.732zm2.242 0c-.148-.609-.561-1.069-1.005-1.069s-.628.448-.477 1.07.561 1.069 1 1.067.633-.456.484-1.072z" class="cls-6" transform="translate(-1424.296 -727.616)"/>
        <path id="Path_984" d="M1774.051 895.659l-.561.144-.3-.6.9-.289h.51l.818 3.377h-.747z" class="cls-6" transform="translate(-1441.938 -727.73)"/>
        <path id="Path_985" d="M1791.72 896.437c-.236-.973.187-1.736 1.093-1.738a2.108 2.108 0 0 1 1.92 1.732c.239.984-.187 1.735-1.091 1.737a2.1 2.1 0 0 1-1.922-1.731zm2.242 0c-.146-.609-.56-1.069-1-1.067s-.63.446-.478 1.069.56 1.068 1.005 1.068.621-.455.473-1.07z" class="cls-6" transform="translate(-1456.954 -727.559)"/>
        <path id="Path_986" d="M869.3 731.6l-.561.144-.3-.6.9-.289h.508l.818 3.378h-.736z" class="cls-6" transform="translate(-706.205 -594.319)"/>
        <path id="Path_987" d="M886.91 732.377c-.235-.973.187-1.735 1.093-1.737a2.108 2.108 0 0 1 1.92 1.732c.239.984-.187 1.735-1.091 1.737a2.114 2.114 0 0 1-1.922-1.732zm2.242 0c-.147-.609-.56-1.068-1.005-1.067s-.63.447-.478 1.068.56 1.069 1.005 1.067.63-.454.486-1.072z" class="cls-6" transform="translate(-721.173 -594.148)"/>
        <path id="Path_988" d="M1023.49 732.147c-.235-.973.187-1.735 1.091-1.737a2.113 2.113 0 0 1 1.922 1.732c.241.984-.187 1.735-1.091 1.737a2.1 2.1 0 0 1-1.922-1.732zm2.242 0c-.147-.609-.56-1.068-1-1.067s-.628.446-.477 1.068.561 1.069 1.005 1.067.631-.454.482-1.072z" class="cls-6" transform="translate(-832.238 -593.961)"/>
        <path id="Path_989" d="M1047.61 732.107c-.235-.973.187-1.735 1.091-1.737a2.113 2.113 0 0 1 1.922 1.732c.241.984-.187 1.735-1.093 1.737a2.108 2.108 0 0 1-1.92-1.732zm2.242 0c-.148-.609-.56-1.069-1.005-1.069s-.628.448-.478 1.07.561 1.069 1.005 1.067.633-.446.484-1.072z" class="cls-6" transform="translate(-851.852 -593.928)"/>
        <path id="Path_990" d="M1071.72 732.067c-.235-.973.187-1.736 1.091-1.737a2.114 2.114 0 0 1 1.922 1.732c.241.984-.187 1.735-1.091 1.737a2.114 2.114 0 0 1-1.922-1.732zm2.242 0c-.148-.609-.56-1.069-1-1.069s-.63.448-.479 1.07.56 1.069 1.005 1.067.631-.454.476-1.072z" class="cls-6" transform="translate(-871.458 -593.896)"/>
        <path id="Path_991" d="M1094.251 731.219l-.56.144-.3-.6.9-.29h.508l.818 3.378h-.736z" class="cls-6" transform="translate(-889.132 -594.01)"/>
        <path id="Path_992" d="M1110.351 731.2l-.561.146-.3-.605.9-.288h.508l.818 3.378h-.736z" class="cls-6" transform="translate(-902.224 -593.993)"/>
        <path id="Path_993" d="M1127.967 731.967c-.237-.972.187-1.736 1.091-1.738a2.11 2.11 0 0 1 1.92 1.734c.239.986-.187 1.734-1.091 1.735a2.11 2.11 0 0 1-1.92-1.731zm2.242 0c-.148-.609-.56-1.067-1.005-1.067s-.628.446-.478 1.07.56 1.067 1.005 1.067.633-.456.484-1.074z" class="cls-6" transform="translate(-917.197 -593.814)"/>
        <path id="Path_994" d="M1751.6 730.957c-.235-.973.187-1.735 1.093-1.737a2.108 2.108 0 0 1 1.92 1.732c.239.985-.187 1.736-1.091 1.737a2.114 2.114 0 0 1-1.922-1.732zm2.242 0c-.147-.609-.561-1.069-1-1.069s-.63.448-.479 1.07.56 1.069 1 1.067.635-.454.486-1.072z" class="cls-10" transform="translate(-1424.329 -592.993)"/>
        <path id="Path_995" d="M1775.72 730.917c-.235-.973.187-1.736 1.091-1.737a2.113 2.113 0 0 1 1.922 1.732c.241.985-.187 1.736-1.091 1.738a2.114 2.114 0 0 1-1.922-1.733zm2.242 0c-.148-.609-.56-1.069-1.005-1.069s-.627.448-.476 1.07.561 1.069 1.005 1.067.631-.454.476-1.072z" class="cls-10" transform="translate(-1443.943 -592.961)"/>
        <path id="Path_996" d="M1799.837 730.877c-.237-.973.187-1.736 1.091-1.737a2.109 2.109 0 0 1 1.92 1.732c.239.984-.187 1.735-1.091 1.737a2.112 2.112 0 0 1-1.92-1.732zm2.242 0c-.148-.609-.561-1.068-1.005-1.068s-.628.448-.478 1.07.561 1.068 1.005 1.067.643-.456.484-1.072z" class="cls-6" transform="translate(-1463.554 -592.928)"/>
        <path id="Path_997" d="M1822.331 730.029l-.561.144-.3-.6.9-.289h.508l.818 3.378h-.736z" class="cls-6" transform="translate(-1481.198 -593.042)"/>
        <path id="Path_998" d="M880.251 777l-.56.144-.3-.6.9-.29h.517l.818 3.378h-.736z" class="cls-6" transform="translate(-715.11 -631.238)"/>
        <path id="Path_999" d="M897.91 777.777c-.235-.973.187-1.735 1.091-1.737a2.113 2.113 0 0 1 1.922 1.732c.241.984-.187 1.735-1.093 1.737a2.109 2.109 0 0 1-1.92-1.732zm2.242 0c-.148-.609-.56-1.068-1.005-1.068s-.628.448-.478 1.07.56 1.069 1.005 1.067.63-.454.484-1.072z" class="cls-6" transform="translate(-730.118 -631.067)"/>
        <path id="Path_1000" d="M1010.37 777.587c-.235-.973.187-1.735 1.091-1.737a2.113 2.113 0 0 1 1.922 1.732c.241.985-.187 1.735-1.093 1.737a2.108 2.108 0 0 1-1.92-1.732zm2.242 0c-.147-.609-.56-1.069-1-1.067s-.628.447-.476 1.069.561 1.069 1 1.067.633-.454.484-1.072z" class="cls-6" transform="translate(-821.569 -630.912)"/>
        <path id="Path_1001" d="M1034.48 777.547c-.235-.973.187-1.735 1.093-1.737a2.108 2.108 0 0 1 1.921 1.732c.239.984-.187 1.735-1.091 1.737a2.107 2.107 0 0 1-1.923-1.732zm2.242 0c-.148-.609-.56-1.068-1.005-1.068s-.63.448-.478 1.07.56 1.068 1.005 1.067.635-.454.486-1.072z" class="cls-6" transform="translate(-841.175 -630.879)"/>
        <path id="Path_1002" d="M943.027 865.445c-.237-.971.187-1.735 1.091-1.735a2.112 2.112 0 0 1 1.92 1.732c.239.984-.187 1.735-1.091 1.737a2.114 2.114 0 0 1-1.92-1.734zm2.242 0c-.148-.607-.56-1.067-1.005-1.067s-.63.447-.478 1.07.56 1.067 1.005 1.067.633-.458.484-1.07z" class="cls-10" transform="translate(-766.806 -702.359)"/>
        <path id="Path_1003" d="M965.521 864.587l-.56.146-.3-.6.9-.29h.508l.818 3.378h-.736z" class="cls-10" transform="translate(-784.45 -702.465)"/>
        <path id="Path_1004" d="M890.3 819.3l-.561.146-.3-.6.9-.29h.508l.818 3.378h-.736z" class="cls-6" transform="translate(-723.282 -665.635)"/>
        <path id="Path_1005" d="M907.92 820.077c-.235-.973.187-1.736 1.091-1.737a2.113 2.113 0 0 1 1.922 1.732c.241.984-.187 1.735-1.093 1.737a2.11 2.11 0 0 1-1.92-1.732zm2.242 0c-.148-.607-.56-1.067-1.005-1.067s-.628.447-.478 1.07.56 1.069 1.005 1.067.628-.458.484-1.076z" class="cls-6" transform="translate(-738.258 -665.464)"/>
        <path id="Path_1006" d="M932.03 820.037c-.235-.973.187-1.737 1.091-1.737a2.116 2.116 0 0 1 1.922 1.732c.241.984-.187 1.735-1.091 1.737a2.116 2.116 0 0 1-1.922-1.732zm2.242 0c-.146-.607-.561-1.067-1-1.067s-.63.447-.478 1.071.56 1.067 1.005 1.067.633-.458.482-1.076z" class="cls-6" transform="translate(-757.864 -665.432)"/>
        <path id="Path_1007" d="M954.547 819.2l-.56.146-.3-.6.9-.29h.508l.818 3.378h-.736z" class="cls-6" transform="translate(-775.529 -665.554)"/>
        <path id="Path_1008" d="M972.15 819.967c-.235-.973.187-1.735 1.091-1.737a2.113 2.113 0 0 1 1.922 1.732c.241.985-.187 1.736-1.093 1.738a2.11 2.11 0 0 1-1.92-1.733zm2.242 0c-.147-.609-.56-1.069-1-1.069s-.628.448-.478 1.07.56 1.069 1.005 1.067.633-.456.484-1.072z" class="cls-6" transform="translate(-790.489 -665.375)"/>
        <path id="Path_1009" d="M996.26 819.927c-.235-.973.187-1.735 1.091-1.737a2.113 2.113 0 0 1 1.922 1.732c.241.984-.187 1.735-1.091 1.737a2.115 2.115 0 0 1-1.922-1.732zm2.242 0c-.146-.609-.56-1.068-1-1.068s-.63.447-.478 1.07.56 1.069 1.005 1.067.633-.456.482-1.072z" class="cls-6" transform="translate(-810.095 -665.342)"/>
        <path id="Path_1010" d="M1020.38 819.887c-.235-.973.187-1.735 1.091-1.737a2.114 2.114 0 0 1 1.922 1.732c.241.984-.187 1.735-1.093 1.737a2.11 2.11 0 0 1-1.92-1.732zm2.242 0c-.148-.609-.56-1.068-1.005-1.068s-.628.446-.478 1.07.561 1.069 1.005 1.067.633-.456.484-1.072z" class="cls-6" transform="translate(-829.709 -665.31)"/>
        <path id="Path_1011" d="M1044.49 819.847c-.235-.974.187-1.737 1.093-1.737a2.11 2.11 0 0 1 1.921 1.732c.239.984-.187 1.735-1.091 1.737a2.116 2.116 0 0 1-1.923-1.732zm2.242 0c-.147-.609-.56-1.069-1.005-1.069s-.63.446-.478 1.07.56 1.067 1.005 1.067.635-.456.486-1.072z" class="cls-6" transform="translate(-849.315 -665.277)"/>
        <path id="Path_1012" d="M1068.61 819.805c-.235-.971.187-1.735 1.091-1.735a2.115 2.115 0 0 1 1.922 1.732c.241.984-.187 1.735-1.093 1.737a2.111 2.111 0 0 1-1.92-1.734zm2.242 0c-.148-.607-.56-1.067-1.005-1.067s-.628.447-.476 1.07.56 1.067 1 1.067.633-.456.484-1.074z" class="cls-6" transform="translate(-868.929 -665.245)"/>
        <path id="Path_1013" d="M1092.72 819.765c-.235-.971.187-1.735 1.093-1.735a2.11 2.11 0 0 1 1.92 1.732c.239.984-.187 1.735-1.091 1.737a2.115 2.115 0 0 1-1.922-1.734zm2.242 0c-.148-.607-.561-1.067-1.005-1.067s-.63.447-.478 1.071.561 1.067 1.005 1.067.635-.456.478-1.074z" class="cls-6" transform="translate(-888.535 -665.212)"/>
        <path id="Path_1014" d="M1115.251 818.917l-.561.146-.3-.6.9-.29h.508l.818 3.378h-.736z" class="cls-6" transform="translate(-906.209 -665.326)"/>
        <path id="Path_1015" d="M1131.351 818.889l-.561.144-.3-.6.9-.29h.508l.818 3.378h-.736z" class="cls-6" transform="translate(-919.301 -665.302)"/>
        <path id="Path_1016" d="M1148.97 819.667c-.235-.973.187-1.735 1.091-1.737a2.113 2.113 0 0 1 1.922 1.732c.241.984-.187 1.735-1.093 1.737a2.108 2.108 0 0 1-1.92-1.732zm2.242 0c-.147-.609-.56-1.068-1-1.067s-.628.446-.478 1.068.561 1.069 1.005 1.069.633-.456.484-1.074z" class="cls-6" transform="translate(-934.277 -665.131)"/>
        <path id="Path_1017" d="M901.251 864.747l-.56.146-.3-.6.9-.29h.517l.82 3.363h-.728z" class="cls-6" transform="translate(-732.187 -702.595)"/>
        <path id="Path_1018" d="M918.91 865.445c-.235-.971.187-1.735 1.091-1.735a2.115 2.115 0 0 1 1.922 1.732c.241.984-.187 1.735-1.091 1.737a2.108 2.108 0 0 1-1.922-1.734zm2.242 0c-.148-.609-.56-1.068-1.005-1.068s-.628.446-.476 1.07.56 1.067 1 1.067.63-.448.484-1.069z" class="cls-6" transform="translate(-747.195 -702.359)"/>
        <path id="Path_1019" d="M983.14 865.367c-.235-.973.187-1.736 1.091-1.737a2.113 2.113 0 0 1 1.922 1.732c.241.984-.187 1.735-1.091 1.737a2.114 2.114 0 0 1-1.922-1.732zm2.242 0c-.148-.609-.561-1.068-1.005-1.068s-.628.448-.476 1.07.56 1.069 1.005 1.067.631-.456.482-1.072z" class="cls-6" transform="translate(-799.426 -702.294)"/>
        <path id="Path_1020" d="M1007.257 865.327c-.237-.973.187-1.735 1.091-1.737a2.109 2.109 0 0 1 1.92 1.732c.239.984-.187 1.735-1.091 1.737a2.112 2.112 0 0 1-1.92-1.732zm2.242 0c-.147-.609-.56-1.069-1.005-1.069s-.63.447-.478 1.071.561 1.068 1.005 1.067.633-.456.484-1.072z" class="cls-6" transform="translate(-819.037 -702.261)"/>
        <path id="Path_1021" d="M964.35 966.1c-.235-.973.187-1.735 1.091-1.737a2.113 2.113 0 0 1 1.922 1.732c.241.984-.187 1.735-1.091 1.737a2.112 2.112 0 0 1-1.922-1.732zm2.242 0c-.148-.609-.56-1.068-1.005-1.068s-.628.448-.476 1.07.56 1.069 1 1.067.633-.445.484-1.072z" class="cls-6" transform="translate(-784.146 -784.206)"/>
        <path id="Path_1022" d="M986.859 965.249l-.56.144-.3-.6.9-.29h.508l.829 3.378h-.747z" class="cls-6" transform="translate(-801.804 -784.32)"/>
        <path id="Path_1023" d="M922.621 965.359l-.56.144-.3-.6.9-.29h.508l.818 3.378h-.747z" class="cls-6" transform="translate(-749.564 -784.409)"/>
        <path id="Path_1024" d="M940.23 966.137c-.235-.973.187-1.735 1.093-1.737a2.108 2.108 0 0 1 1.92 1.732c.239.984-.187 1.735-1.091 1.737a2.106 2.106 0 0 1-1.922-1.732zm2.242 0c-.148-.609-.56-1.069-1.005-1.067s-.63.447-.478 1.068.561 1.069 1.005 1.067.635-.452.486-1.072z" class="cls-6" transform="translate(-764.532 -784.239)"/>
        <path id="Path_1025" d="M1004.467 966.027c-.237-.973.187-1.736 1.091-1.737a2.11 2.11 0 0 1 1.92 1.732c.239.984-.187 1.735-1.091 1.737a2.107 2.107 0 0 1-1.92-1.732zm2.242 0c-.147-.609-.56-1.069-1.005-1.067s-.629.446-.478 1.068.56 1.068 1.005 1.068.633-.456.484-1.074z" class="cls-10" transform="translate(-816.768 -784.149)"/>
        <path id="Path_1026" d="M1028.58 965.987c-.236-.973.187-1.735 1.091-1.737a2.114 2.114 0 0 1 1.922 1.732c.241.985-.187 1.735-1.091 1.737a2.112 2.112 0 0 1-1.922-1.732zm2.242 0c-.148-.609-.561-1.069-1.005-1.067s-.627.447-.476 1.069.56 1.069 1 1.069.633-.456.484-1.074z" class="cls-10" transform="translate(-836.377 -784.117)"/>
        <path id="Path_1027" d="M934.55 998.437c-.235-.973.187-1.736 1.093-1.737a2.108 2.108 0 0 1 1.92 1.732c.239.985-.187 1.735-1.091 1.738a2.106 2.106 0 0 1-1.922-1.733zm2.242 0c-.146-.609-.56-1.069-1-1.067s-.629.447-.478 1.069.561 1.069 1.005 1.067.633-.447.482-1.068z" class="cls-6" transform="translate(-759.913 -810.505)"/>
        <path id="Path_1028" d="M957.051 997.637l-.56.144-.3-.6.9-.288h.508l.818 3.378h-.736z" class="cls-6" transform="translate(-777.563 -810.659)"/>
        <path id="Path_1029" d="M974.72 998.437c-.235-.973.187-1.736 1.091-1.737a2.113 2.113 0 0 1 1.922 1.732c.241.985-.187 1.735-1.093 1.738a2.106 2.106 0 0 1-1.92-1.733zm2.242 0c-.148-.609-.56-1.069-1.005-1.067s-.628.447-.476 1.069.56 1.069 1 1.069.627-.462.481-1.071z" class="cls-6" transform="translate(-792.579 -810.505)"/>
        <path id="Path_1030" d="M998.78 998.367c-.235-.973.187-1.736 1.093-1.737a2.108 2.108 0 0 1 1.921 1.732c.239.984-.187 1.735-1.091 1.737a2.114 2.114 0 0 1-1.923-1.732zm2.242 0c-.146-.609-.56-1.069-1-1.067s-.63.446-.478 1.068.561 1.068 1.005 1.068.633-.456.482-1.074z" class="cls-6" transform="translate(-812.144 -810.448)"/>
        <path id="Path_1031" d="M1031.37 865.287c-.235-.973.187-1.735 1.091-1.737a2.113 2.113 0 0 1 1.922 1.732c.241.984-.187 1.735-1.091 1.737a2.114 2.114 0 0 1-1.922-1.732zm2.242 0c-.147-.607-.56-1.067-1-1.067s-.628.446-.476 1.07.56 1.068 1 1.067.632-.458.482-1.076z" class="cls-6" transform="translate(-838.646 -702.229)"/>
        <path id="Path_1032" d="M1055.49 865.247c-.235-.973.187-1.735 1.091-1.737a2.114 2.114 0 0 1 1.922 1.732c.241.984-.187 1.735-1.093 1.737a2.1 2.1 0 0 1-1.92-1.732zm2.242 0c-.147-.607-.56-1.067-1.005-1.067s-.628.447-.478 1.07.56 1.067 1.005 1.067.633-.458.484-1.076z" class="cls-6" transform="translate(-858.26 -702.196)"/>
        <path id="Path_1033" d="M994.98 1083.227c-.235-.973.187-1.735 1.091-1.737a2.113 2.113 0 0 1 1.922 1.732c.241.984-.187 1.735-1.093 1.737a2.109 2.109 0 0 1-1.92-1.732zm2.242 0c-.148-.609-.56-1.068-1.005-1.068s-.628.448-.478 1.07.561 1.068 1.005 1.066.633-.454.484-1.072z" class="cls-10" transform="translate(-809.054 -879.455)"/>
        <path id="Path_1034" d="M1017.463 1082.379l-.561.144-.3-.6.9-.29h.51l.816 3.377h-.736z" class="cls-10" transform="translate(-826.687 -879.569)"/>
        <path id="Path_1035" d="M942.251 1037.089l-.56.144-.3-.6.9-.29h.517l.818 3.378h-.736z" class="cls-6" transform="translate(-765.527 -842.739)"/>
        <path id="Path_1036" d="M959.87 1037.867c-.235-.973.187-1.735 1.091-1.737a2.113 2.113 0 0 1 1.922 1.731c.241.985-.187 1.736-1.091 1.738a2.113 2.113 0 0 1-1.922-1.732zm2.242 0c-.148-.609-.56-1.068-1.005-1.067s-.628.447-.476 1.069.56 1.069 1 1.067.637-.454.484-1.072z" class="cls-6" transform="translate(-780.503 -842.569)"/>
        <path id="Path_1037" d="M983.98 1037.827c-.235-.973.187-1.736 1.093-1.737a2.108 2.108 0 0 1 1.92 1.732c.239.984-.187 1.735-1.091 1.737a2.114 2.114 0 0 1-1.922-1.732zm2.242 0c-.148-.609-.561-1.069-1.005-1.069s-.63.448-.478 1.07.56 1.069 1.005 1.067.635-.454.486-1.072z" class="cls-6" transform="translate(-800.109 -842.536)"/>
        <path id="Path_1038" d="M1006.481 1036.979l-.56.144-.3-.6.9-.29h.508l.818 3.377h-.736z" class="cls-6" transform="translate(-817.758 -842.65)"/>
        <path id="Path_1039" d="M953.243 1082.489l-.56.144-.3-.6.9-.29h.519l.816 3.377h-.742z" class="cls-6" transform="translate(-774.464 -879.658)"/>
        <path id="Path_1040" d="M970.86 1083.267c-.235-.974.187-1.736 1.091-1.738a2.114 2.114 0 0 1 1.922 1.732c.241.985-.187 1.736-1.091 1.737a2.112 2.112 0 0 1-1.922-1.731zm2.242 0c-.148-.609-.56-1.069-1-1.067s-.63.447-.478 1.069.56 1.069 1.005 1.067.637-.454.482-1.072z" class="cls-6" transform="translate(-789.44 -879.487)"/>
        <path id="Path_1041" d="M1035.09 1083.157c-.235-.973.187-1.735 1.091-1.737a2.113 2.113 0 0 1 1.922 1.732c.241.985-.187 1.735-1.091 1.737a2.11 2.11 0 0 1-1.922-1.732zm2.242 0c-.146-.609-.561-1.068-1-1.067s-.629.447-.478 1.069.56 1.068 1 1.068.634-.458.482-1.074z" class="cls-6" transform="translate(-841.671 -879.398)"/>
        <path id="Path_1042" d="M1059.21 1083.117c-.235-.973.187-1.736 1.091-1.737a2.113 2.113 0 0 1 1.922 1.732c.241.985-.187 1.736-1.093 1.738a2.108 2.108 0 0 1-1.92-1.733zm2.242 0c-.147-.609-.56-1.068-1-1.067s-.628.447-.478 1.069.561 1.068 1.005 1.068.633-.45.484-1.074z" class="cls-6" transform="translate(-861.285 -879.365)"/>
        <path id="Path_1043" d="M1004.28 1115.277c-.235-.973.187-1.736 1.091-1.737a2.109 2.109 0 0 1 1.92 1.732c.239.985-.187 1.736-1.091 1.738a2.11 2.11 0 0 1-1.92-1.733zm2.242 0c-.148-.609-.56-1.068-1.005-1.067s-.628.447-.478 1.069.561 1.069 1.005 1.069.633-.456.484-1.074z" class="cls-10" transform="translate(-816.617 -905.518)"/>
        <path id="Path_1044" d="M1026.771 1114.437l-.561.146-.3-.6.9-.29h.508l.818 3.379h-.736z" class="cls-10" transform="translate(-834.258 -905.64)"/>
        <path id="Path_1045" d="M980.16 1115.317c-.235-.971.187-1.736 1.091-1.737a2.114 2.114 0 0 1 1.922 1.732c.241.984-.187 1.735-1.091 1.737a2.111 2.111 0 0 1-1.922-1.732zm2.242 0c-.148-.609-.56-1.069-1.005-1.067s-.628.447-.476 1.07.56 1.067 1.005 1.067.631-.456.482-1.074z" class="cls-6" transform="translate(-797.003 -905.55)"/>
        <path id="Path_1046" d="M1044.39 1115.215c-.235-.971.187-1.735 1.091-1.735a2.115 2.115 0 0 1 1.922 1.732c.241.985-.187 1.736-1.091 1.736a2.12 2.12 0 0 1-1.922-1.733zm2.242 0c-.147-.607-.56-1.066-1.005-1.066s-.628.446-.476 1.07.56 1.066 1 1.066.632-.456.482-1.074z" class="cls-6" transform="translate(-849.234 -905.469)"/>
        <path id="Path_1047" d="M1068.51 1115.175c-.235-.971.187-1.735 1.091-1.735a2.112 2.112 0 0 1 1.921 1.732c.239.984-.187 1.735-1.091 1.735a2.11 2.11 0 0 1-1.921-1.732zm2.241 0c-.147-.607-.56-1.067-1-1.067s-.628.447-.478 1.07.561 1.067 1.005 1.067.633-.459.483-1.074z" class="cls-6" transform="translate(-868.848 -905.436)"/>
        <path id="Path_1048" d="M1083.321 1083.077c-.235-.973.187-1.735 1.093-1.737a2.108 2.108 0 0 1 1.92 1.732c.239.984-.187 1.735-1.091 1.737a2.113 2.113 0 0 1-1.922-1.732zm2.241 0c-.146-.609-.56-1.069-1-1.067s-.63.447-.479 1.069.561 1.069 1.005 1.067.633-.454.482-1.072z" class="cls-6" transform="translate(-880.891 -879.333)"/>
        <path id="Path_1049" d="M1107.44 1083.037c-.235-.973.187-1.736 1.091-1.737a2.114 2.114 0 0 1 1.922 1.732c.241.985-.187 1.735-1.093 1.737a2.11 2.11 0 0 1-1.92-1.732zm2.242 0c-.148-.609-.56-1.069-1.005-1.069s-.628.448-.477 1.07.56 1.069 1 1.067.633-.454.484-1.073z" class="cls-6" transform="translate(-900.505 -879.3)"/>
        <path id="Path_1050" d="M1744.981 775.577l-.56.146-.3-.6.9-.29h.508l.818 3.378h-.736z" class="cls-6" transform="translate(-1418.298 -630.083)"/>
        <path id="Path_1051" d="M1762.6 776.357c-.236-.973.187-1.735 1.091-1.737a2.113 2.113 0 0 1 1.922 1.732c.241.984-.187 1.735-1.093 1.737a2.11 2.11 0 0 1-1.92-1.732zm2.242 0c-.148-.609-.561-1.069-1.005-1.069s-.627.448-.478 1.071.56 1.068 1 1.067.634-.454.484-1.072z" class="cls-6" transform="translate(-1433.274 -629.912)"/>
        <path id="Path_1052" d="M1786.72 776.317c-.235-.973.187-1.735 1.093-1.737a2.108 2.108 0 0 1 1.92 1.732c.239.985-.187 1.736-1.091 1.737a2.114 2.114 0 0 1-1.922-1.732zm2.242 0c-.146-.609-.561-1.068-1-1.068s-.63.448-.479 1.07.56 1.069 1 1.067.632-.456.477-1.072z" class="cls-6" transform="translate(-1452.888 -629.879)"/>
        <path id="Path_1053" d="M1810.83 776.277c-.235-.973.187-1.735 1.091-1.737a2.113 2.113 0 0 1 1.922 1.732c.241.984-.187 1.735-1.091 1.737a2.114 2.114 0 0 1-1.922-1.732zm2.242 0c-.148-.609-.561-1.068-1.005-1.068s-.628.447-.476 1.07.56 1.069 1 1.067.634-.456.484-1.072z" class="cls-6" transform="translate(-1472.494 -629.847)"/>
        <path id="Path_1054" d="M1833.313 775.429l-.56.144-.3-.6.9-.29h.51l.818 3.378h-.747z" class="cls-6" transform="translate(-1490.127 -629.961)"/>
        <path id="Path_1055" d="M1722.48 819.717c-.236-.971.187-1.735 1.091-1.737a2.113 2.113 0 0 1 1.922 1.734c.241.986-.187 1.735-1.091 1.735a2.109 2.109 0 0 1-1.922-1.732zm2.241 0c-.146-.607-.56-1.067-1-1.067s-.629.447-.478 1.07.561 1.067 1.005 1.067.633-.456.482-1.074z" class="cls-6" transform="translate(-1400.649 -665.172)"/>
        <path id="Path_1056" d="M1744.981 818.877l-.56.146-.3-.6.9-.29h.508l.818 3.378h-.736z" class="cls-6" transform="translate(-1418.298 -665.294)"/>
        <path id="Path_1057" d="M1762.6 819.657c-.236-.973.187-1.735 1.091-1.737a2.113 2.113 0 0 1 1.922 1.732c.241.984-.187 1.735-1.093 1.737a2.11 2.11 0 0 1-1.92-1.732zm2.242 0c-.148-.609-.561-1.069-1.005-1.069s-.627.447-.478 1.071.56 1.069 1 1.067.634-.456.484-1.072z" class="cls-10" transform="translate(-1433.274 -665.123)"/>
        <path id="Path_1058" d="M1786.72 819.617c-.235-.973.187-1.735 1.093-1.737a2.108 2.108 0 0 1 1.92 1.732c.239.984-.187 1.735-1.091 1.737a2.114 2.114 0 0 1-1.922-1.732zm2.242 0c-.146-.607-.561-1.067-1-1.067s-.63.447-.479 1.07.56 1.069 1 1.067.632-.458.477-1.076z" class="cls-10" transform="translate(-1452.888 -665.09)"/>
        <path id="Path_1059" d="M1810.83 819.576c-.235-.972.187-1.736 1.091-1.736a2.115 2.115 0 0 1 1.922 1.732c.241.985-.187 1.736-1.091 1.737a2.114 2.114 0 0 1-1.922-1.733zm2.242 0c-.148-.607-.561-1.067-1.005-1.067s-.628.446-.476 1.07.56 1.067 1 1.067.634-.456.484-1.074z" class="cls-10" transform="translate(-1472.494 -665.058)"/>
        <path id="Path_1060" d="M1833.313 818.747l-.56.146-.3-.6.9-.29h.51l.818 3.378h-.747z" class="cls-10" transform="translate(-1490.127 -665.188)"/>
        <path id="Path_1061" d="M1828.421 1068.909l-.561.144-.3-.6.9-.29h.508l.818 3.377h-.736z" class="cls-6" transform="translate(-1486.151 -868.615)"/>
        <path id="Path_1062" d="M1846.04 1069.688c-.235-.973.187-1.736 1.091-1.738a2.114 2.114 0 0 1 1.922 1.732c.241.984-.187 1.735-1.091 1.737a2.112 2.112 0 0 1-1.922-1.731zm2.242 0c-.148-.609-.56-1.069-1.005-1.067s-.627.447-.476 1.069.561 1.068 1.005 1.067.631-.454.482-1.072z" class="cls-6" transform="translate(-1501.126 -868.444)"/>
        <path id="Path_1063" d="M1870.16 1069.647c-.236-.973.187-1.735 1.091-1.737a2.11 2.11 0 0 1 1.92 1.732c.239.984-.187 1.735-1.091 1.737a2.111 2.111 0 0 1-1.92-1.732zm2.241 0c-.147-.609-.56-1.068-1-1.068s-.628.449-.479 1.07.56 1.069 1 1.067.634-.454.484-1.072z" class="cls-6" transform="translate(-1520.74 -868.412)"/>
        <path id="Path_1064" d="M1804.731 1098.339l-.561.144-.3-.6.9-.29h.508l.818 3.378h-.736z" class="cls-6" transform="translate(-1466.886 -892.547)"/>
        <path id="Path_1065" d="M1822.35 1099.117c-.235-.973.187-1.735 1.091-1.737a2.114 2.114 0 0 1 1.922 1.732c.241.985-.187 1.735-1.093 1.737a2.108 2.108 0 0 1-1.92-1.732zm2.242 0c-.147-.609-.56-1.068-1-1.067s-.628.447-.478 1.069.561 1.068 1.005 1.068.633-.45.484-1.074z" class="cls-6" transform="translate(-1481.861 -892.376)"/>
        <path id="Path_1066" d="M1846.46 1099.077c-.235-.973.187-1.735 1.091-1.737a2.113 2.113 0 0 1 1.922 1.731c.241.985-.187 1.736-1.091 1.738a2.11 2.11 0 0 1-1.922-1.732zm2.242 0c-.147-.609-.56-1.068-1-1.067s-.63.447-.479 1.069.561 1.069 1.005 1.069.631-.456.482-1.074z" class="cls-6" transform="translate(-1501.468 -892.344)"/>
        <path id="Path_1067" d="M1894.27 1069.607c-.235-.973.187-1.736 1.091-1.737a2.113 2.113 0 0 1 1.922 1.732c.241.984-.187 1.735-1.091 1.737a2.114 2.114 0 0 1-1.922-1.732zm2.242 0c-.147-.609-.56-1.069-1-1.069s-.628.448-.477 1.07.561 1.069 1.005 1.067.631-.456.482-1.073z" class="cls-6" transform="translate(-1540.346 -868.379)"/>
        <path id="Path_1068" d="M1916.771 1068.739l-.56.144-.3-.6.9-.29h.508l.818 3.377h-.736z" class="cls-6" transform="translate(-1557.996 -868.477)"/>
        <path id="Path_1069" d="M2201.109 868.262a9.242 9.242 0 0 1 8.033 3.723c2.511 3.43.773 7.472 7.056 10.59s5.38 7.047 4.123 11.977-6.525 10.887-12.808 10.6-17.024-13.224-16.637-17.56 2.253-4.857.772-7.723c-2.317-4.497 1.983-10.897 9.461-11.607z" class="cls-19" transform="translate(-1781.586 -706.039)"/>
        <path id="Path_1070" d="M2225.571 954.277a.357.357 0 0 0 .045-.073c-.7-.249-.748-1.265-.11-5.494l-.334.015-5.6.269s-.131 1.732-.374 3.348c-.047.321-.1.639-.153.934-4.225 4.205 4.855 6.105 6.526 1.001z" class="cls-13" transform="translate(-1803.597 -771.48)"/>
        <path id="Path_1071" d="M2197.46 1559.572h12.116a6.636 6.636 0 0 0-.342-3.247c-.607-1.345-1.55-2.174-1.636-3.206a3.629 3.629 0 0 1-3.469 1.068 13.229 13.229 0 0 1-2.1 2.724c-.793.571-4.329.367-4.569 2.661z" class="cls-20" transform="translate(-1786.949 -1262.979)"/>
        <path id="Path_1072" d="M2195.492 1174.9c-1.121 2.785-2 5.317-1.724 7.549a.082.082 0 0 0 0 .011 6.031 6.031 0 0 0 .136.731c3.976 15.9-1.66 36.6-1.66 36.6a23.037 23.037 0 0 1-2.567.441c-1.911.17-2.189-.4-2.189-.4s-1.9-16.882-8.033-49.156a90 90 0 0 1-1.554-11.385c-.1-1.24-.186-2.615-.291-4.239-.278-4.349.374-11.67 3.645-13.593 1.495-.878 3.506-.637 6.225 1.495.215.17.418.374.657.542 16.694 12.028 10.806 22.897 7.355 31.404z" class="cls-15" transform="translate(-1770.759 -927.835)"/>
        <path id="Path_1073" d="M2236.945 1258.708c-.187-.654-6.193-21.636-6.294-23.228-.219-3.428 7.719 6.036 8.018 15.679-1.129 2.785-1.997 5.318-1.724 7.549z" class="cls-16" transform="translate(-1813.936 -1004.094)"/>
        <path id="Path_1074" d="M2440.748 1403.182l-5.044-11.022a6.606 6.606 0 0 0-2.8 1.662c-.971 1.121-1.681.914-3.882-.62a12.178 12.178 0 0 1 1.459 3.736c.405.051 2.716 2.287 5.081 2.9.938.248 2.998 4.076 5.186 3.344z" class="cls-20" transform="translate(-1975.25 -1132.088)"/>
        <path id="Path_1075" d="M2206.947 1157.232s10.857 37.736 14.835 40.164 23.648 7.263 29.456 8.423a11.171 11.171 0 0 0-.1-3.157 13.89 13.89 0 0 0-.667-1.621s-10.329-10.333-20.422-11.78c-2.115-.3.848-33.309-13.49-34.6-13.09-1.175-9.612 2.571-9.612 2.571z" class="cls-15" transform="translate(-1794.323 -938.771)"/>
        <path id="Path_1076" d="M2111.555 827.093s.243-1.209.516-2.133c.121-.407-.721-3.092-1.308-3.422s-2.1 1.478-1.672 2.866c.22.712.583 3.032.583 3.032z" class="cls-13" transform="translate(-1715.026 -668.032)"/>
        <path id="Path_1077" d="M2388.364 850.356c.075.153.178.428.271.686v-.207c0-.514 1.92-3.307 2.709-3.48s1.9 2.44.915 3.886c-.506.747-2.033 3.389-2.033 3.389l-1.681-1.02a2.366 2.366 0 0 0-.467-1.289 9.074 9.074 0 0 1-.32-2.257c-.008-.001.33-.274.606.292z" class="cls-13" transform="translate(-1941.697 -689.052)"/>
        <path id="Path_1078" d="M2225.034 949.059s-.131 1.732-.374 3.348c3.062.374 5.087-2.172 5.978-3.617z" class="cls-21" transform="translate(-1809.067 -771.545)"/>
        <path id="Path_1079" d="M2221.642 889.441a17.563 17.563 0 0 0 2.909-4.767c.547-1.631.616-7.962-5.752-8a8.554 8.554 0 0 0-3.71.805c-1.494.714-3.736 2.4-2.359 8.136l.295 1.915z" class="cls-19" transform="translate(-1799.016 -712.904)"/>
        <path id="Path_1080" d="M2212.014 901.243s7.816 1.295 8.549-3.587 2.241-8-2.728-9.032-6.212.684-6.852 2.253-.983 9.902 1.031 10.366z" class="cls-13" transform="translate(-1797.54 -722.363)"/>
        <path id="Path_1081" d="M2226.62 883.118s2.077 6.079 5.245 7.415 4.725.667 4.725.667a9.417 9.417 0 0 1-2.228-5.961s-5.717-4.612-7.742-2.121z" class="cls-19" transform="translate(-1810.661 -717.541)"/>
        <path id="Path_1082" d="M2213.778 884.4a5.835 5.835 0 0 0-2.722 1.926 9.975 9.975 0 0 0-1.511 3.819s-1.039-4.132 1.105-6.064c2.274-2.054 3.128.319 3.128.319z" class="cls-19" transform="translate(-1796.572 -718.242)"/>
        <path id="Path_1083" d="M2163.982 855.744s-1.717 14.011-5.337 17.374c-2.513 2.326-11.4 6.077-13.531 9.527a11.357 11.357 0 0 0-.806 3.32 58.527 58.527 0 0 0 2.413 24.975q.234.693.484 1.384a2.34 2.34 0 0 1-1.39 3.034 40.017 40.017 0 0 1-6.549 1.713c-.513.09-1.046.168-1.586.237-7.458.947-12.516-.8-15.072-2.1a3.416 3.416 0 0 1-1.868-3.237c.153-2.769 1.54-5.5 2.164-12.156.473-5.044-2.973-12.165-2.788-14.851.071-1.061.6-5.778.064-6.507-3.549-4.872-9.514-9.538-10.432-13.989-1.057-5.128-.374-15.363-.374-15.363a5.887 5.887 0 0 1 1.655-.417 2.452 2.452 0 0 1 1.715.925s2.662 9.97 2.8 10.648c.708 3.576 7.51 8.758 9.568 9.8a16.189 16.189 0 0 0 5.479 1.885s-1.681 2.9.8 3.3c2.989.484 5.294-2.95 5.294-2.95a13.37 13.37 0 0 0 5.081.028c2.711-.4 12.36-3.66 13.753-6.135 1.015-1.8 6.372-11.784 6.372-11.784a1.391 1.391 0 0 1 1.3.127 1.46 1.46 0 0 1 .791 1.212z" class="cls-3" transform="translate(-1715.141 -690.145)"/>
        <path id="Path_1084" d="M2218.972 941.815s-.334.674-.785.688a5.3 5.3 0 0 1-1.67-.213 6.657 6.657 0 0 1-.267-.822 7.616 7.616 0 0 1 2.722.347z" class="cls-14" transform="translate(-1802.229 -765.586)"/>
        <path id="Path_1085" d="M2278.962 1073.26s-6.709-1.151-7.155-5.926c-.475-5.091 4.737-19.055 4.737-19.055v.011a58.6 58.6 0 0 0 2.418 24.97z" class="cls-6" transform="translate(-1847.382 -852.449)"/>
        <path id="Path_1086" d="M2083.166 510.163l-.693-2.565a6.994 6.994 0 0 0-5.925-5.1l-18.235-2.154-1.367 11.571-5.836 49.4 75.434 8.911 5.831-49.395-42.688-5.044a7.7 7.7 0 0 1-6.521-5.624z" class="cls-10" transform="translate(-1667.939 -406.871)"/>
        <path id="Path_1087" d="M2127.1 665.406l.519-4.394 16.212-4.932-.531 4.484-11.287 3.161 10.243 5.7-.538 4.553z" class="cls-14" transform="translate(-1729.733 -533.517)"/>
        <path id="Path_1088" d="M2229.162 638.08l4.11.486-17.592 27.834-4.11-.486z" class="cls-14" transform="translate(-1798.423 -518.879)"/>
        <path id="Path_1089" d="M2339.031 678.5l-.519 4.4-16.211 4.932.53-4.483 11.287-3.155-10.243-5.7.538-4.554z" class="cls-14" transform="translate(-1888.468 -544.779)"/>
        <path id="Path_1090" d="M2386.714 860.785a14.231 14.231 0 0 0-.417-2.305c-.194-.362.29-.467.7.362s1.233.581 1.644 1.4.049 1.041-.459.992a7.237 7.237 0 0 1-1.468-.449z" class="cls-13" transform="translate(-1940.473 -697.885)"/>
        <path id="Path_1091" d="M2121.463 831.067s1.105-1.2 1.1-1.73.774-1.868.561-2.1-.6.146-.809.508-1.052.34-1.244 1.33a3.288 3.288 0 0 0 .392 1.992z" class="cls-13" transform="translate(-1724.798 -672.638)"/>
        <path id="Path_1092" d="M1185.86 719.642l28.644 12.546v-11.163l-14.924-6.137 14.924-6.139V697.69l-28.644 12.548z" class="cls-12" transform="translate(-964.327 -567.353)"/>
        <path id="Path_1093" d="M1372.413 656.31l-24.752 51.737h10.461l24.752-51.737z" class="cls-12" transform="translate(-1095.902 -533.704)"/>
        <path id="Path_1094" d="M1546.41 697.69v11.164l14.925 6.139-14.925 6.137v11.059l28.646-12.546v-9.4z" class="cls-12" transform="translate(-1257.522 -567.353)"/>
        <path id="Rectangle_838" d="M0 0H10.461V2.953H0z" class="cls-12" transform="translate(251.759 171.389)"/>
        <path id="Rectangle_839" d="M0 0H4.887V2.953H0z" class="cls-12" transform="translate(282.086 119.651)"/>
        <path id="Path_1095" d="M1185.86 703.83l28.644 12.548v-11.163l-14.924-6.139 14.924-6.137V681.88l-28.644 12.546z" class="cls-22" transform="translate(-964.327 -554.497)"/>
        <path id="Path_1096" d="M1372.413 640.49l-24.752 51.737h10.461l24.752-51.737z" class="cls-22" transform="translate(-1095.902 -520.839)"/>
        <path id="Path_1097" d="M1546.41 681.88v11.164l14.925 6.137-14.925 6.139v11.059l28.646-12.548v-9.4z" class="cls-22" transform="translate(-1257.522 -554.497)"/>
        <path id="Path_1098" d="M992.605 689.9h-1.745l-14.278-54.482-18.354-70.038H753.251L784.3 689.9l-2.218.022-31.422-126.231 209.01-.181.183.7 18.347 70.408z" class="cls-6" transform="translate(-610.428 -458.24)"/>
        <path id="Path_1099" d="M1976.358 1000.646l-1.683.226-14.655-55.922 1.62-.8z" class="cls-3" transform="translate(-1593.865 -767.772)"/>
        <path id="Path_1100" d="M919.782 677.465a1.356 1.356 0 0 0-.241 1.453 8.962 8.962 0 0 0 2.851 3.129c.172.138.325.265.458.374.035.032.071.062.1.093s.054.049.08.071c1.254 1.156.781 1.42 3.034 3.766 2.567 2.671 4.336 2.72 4.839 2.475.426-.207-.439-1.624-1.4-3.217l-.138-.232c-.129-.213-.256-.428-.374-.641-1.121-1.917-.835-2.815-.56-5.668.217-2.318 3.607-12.952 3.607-12.952l-4.921-.848s-1.483 8.466-3.116 9.77c-.872.7-1.849.7-2.69 1.22l-.174.11a6.5 6.5 0 0 0-1.355 1.097z" class="cls-13" transform="translate(-747.669 -540.99)"/>
        <path id="Path_1101" d="M919.782 725.329a1.356 1.356 0 0 0-.241 1.453 10.418 10.418 0 0 0 2.856 3.12c.17.14.319.271.452.39.035.032.071.062.1.093s.054.049.08.071c1.254 1.156.781 1.42 3.034 3.766 2.567 2.672 4.336 2.72 4.839 2.475.426-.207-.439-1.623-1.4-3.217a10.946 10.946 0 0 1-4.577-3.374c-1.547-1.973-2.578-4.508-3.631-5.978l-.174.11a6.51 6.51 0 0 0-1.338 1.091z" class="cls-16" transform="translate(-747.669 -588.854)"/>
        <path id="Path_1102" d="M1116.606 667.927c.3 1.519 2.47 1.265 4.889.674s1.844.112 5.287-.269 4.484-1.666 4.592-2.178c.094-.454-1.608-.613-3.432-.824l-.692-.082c-2.055-.26-3.57-1.588-5.44-2.681-1.773-1.033-4.418-5.247-4.418-5.247l-4.723.374s2.479 3.764 3.437 5.4a5.749 5.749 0 0 1 .463 3.217 6.011 6.011 0 0 0 .037 1.616z" class="cls-13" transform="translate(-904.81 -534.525)"/>
        <path id="Path_1103" d="M1138.308 703.471c2.419-.59 1.844.112 5.287-.269s4.483-1.666 4.592-2.178c.094-.454-1.608-.613-3.431-.824l-.019.036a9.716 9.716 0 0 1-4.93 1.532c-2.335.058-4.81-.613-6.423-.587a6.01 6.01 0 0 0 .035 1.616c.304 1.518 2.481 1.264 4.889.674z" class="cls-16" transform="translate(-921.623 -569.395)"/>
        <path id="Path_1104" d="M966.36 519.523l-4.414 11.877-5.763 15.505a9.321 9.321 0 0 1-3.062-.28 13.269 13.269 0 0 1-2.961-1.44s1.6-16.652 4.586-26.212a16.992 16.992 0 0 1 2.569-5.556c4.627-5.463 9.045 6.106 9.045 6.106z" class="cls-12" transform="translate(-772.659 -416.313)"/>
        <path id="Path_1105" d="M826.987 441.182c-2.89-.934-11.14.263-19.428 1.885l-1.734-2.86-17.9-1.4s-5.905 13.1-2.671 21.44a3.026 3.026 0 0 0 3.028 2.038h14.371c8.9 0 18.834-6.118 20.12-6.376 2.1-.42 2.946 3.787 5.044 8.2S847.6 483.68 847.6 483.68a15.593 15.593 0 0 0 3.839-.394 3.787 3.787 0 0 0 1.648-1.041s-19.579-38.959-26.1-41.063z" class="cls-15" transform="translate(-637.774 -356.835)"/>
        <path id="Path_1106" d="M768.444 153.422c-2.509-.645-5.941 0-6.51.054-6.809.671-9.1 8.266-8.067 14.158.953 5.44-1.807 6.944-5 11.239-6.411 8.614-2.221 15.879 2.838 17.747 3.034 1.121 7.248-1.711 7.248-1.711.075.032 13.239-8.623 18.635-13.5 8.984-3.517-2.756-26.343-9.144-27.987z" class="cls-22" transform="translate(-606.319 -124.529)"/>
        <path id="Path_1107" d="M833.269 251.6c.187.63-2.8 1.788-5.074 1.362-2.137-.4-4.536-2.9-4.041-3.138.818-.389 1.369-1.356.921-6.585l.407.045 6.843.781s.021 2.133.187 4.13a13.253 13.253 0 0 0 .757 3.405z" class="cls-13" transform="translate(-670.139 -197.8)"/>
        <path id="Path_1108" d="M838.425 244.281s.021 2.133.187 4.13c-3.775.2-6.049-3.073-7.022-4.911z" class="cls-21" transform="translate(-676.239 -198.011)"/>
        <path id="Path_1109" d="M832.746 192.722s-8.9.878-9.365-4.67-1.922-9.18 3.736-9.976 6.948 1.231 7.551 3.047.381 11.227-1.922 11.599z" class="cls-13" transform="translate(-669.146 -144.664)"/>
        <path id="Path_1110" d="M820.3 170.311s-1.121 6.783-6.191 8.393c-3.7 1.173-5.375.4-5.375.4a15.085 15.085 0 0 0 2.414-5.644 2.709 2.709 0 0 1 1.81-2.07c2.624-.867 5.809-3.232 7.342-1.079z" class="cls-22" transform="translate(-657.65 -137.779)"/>
        <path id="Path_1111" d="M861.66 175.111a5.876 5.876 0 0 1 3.165 2.539 11.363 11.363 0 0 1 1.594 5.487s1.558-6.279-.714-8.614c-2.41-2.478-4.045.588-4.045.588z" class="cls-22" transform="translate(-700.692 -141.133)"/>
        <path id="Path_1112" d="M783.845 296.388c.159.674.293 1.295.405 1.868.187.923.3 1.719.392 2.429.273 2.191.187 3.488.374 4.908a12.114 12.114 0 0 0 .665 2.671c.374 1.018 10.045 1.924 15.548 1.558a7.484 7.484 0 0 0 3.549-.768c1.967-1.713 1.78 2.038 2.044-15.911.129-8.754-7.43-16.552-7.43-16.552s-.6 3.736-8.1-.71c-.267-.157-3.219 4.214-6.06 9.6-3.132 5.946-2.272 7.205-1.387 10.907z" class="cls-10" transform="translate(-636.748 -224.341)"/>
        <path id="Path_1113" d="M961.946 561.967l-5.763 15.505a9.32 9.32 0 0 1-3.062-.28 13.272 13.272 0 0 1-2.961-1.44s1.6-16.653 4.586-26.212z" class="cls-22" transform="translate(-772.659 -446.879)"/>
        <path id="Path_1114" d="M870.64 279.69s7.713 1.308 8.619 4.629 7.164 21.9 7.164 21.9-4.857 1.655-6.66-.157-6.3-16.813-6.3-16.813z" class="cls-10" transform="translate(-707.994 -227.441)"/>
        <path id="Path_1115" d="M1039 395.12l1.827-.725a4.387 4.387 0 0 1 1.692-.058c.594.185 2.079.168 2.087.411s-1.694 1-1.694 1l-.052-.021c.646 1.465 3.876 2.3 4.031 2.836.187.65-1.307.986-2.131 1.19a4.5 4.5 0 0 1-3.815-.861c-.723-.762-1.945-1.81-1.945-1.81z" class="cls-13" transform="translate(-844.903 -320.614)"/>
        <path id="Path_1116" d="M864.75 238.927a1.531 1.531 0 0 0 1.358.914c.984 0 1.254-.148 1.44-.357a3.028 3.028 0 0 0 .374-.611 8.409 8.409 0 0 0-3.172.054z" class="cls-14" transform="translate(-703.205 -194.144)"/>
        <path id="Path_1117" d="M911.873 375.5l18.681 1.425a5.814 5.814 0 0 1-.813 3.865s-16.847 3.294-21.244 1.612-3.9-9.617-3.9-9.617z" class="cls-10" transform="translate(-735.594 -303.148)"/>
        <path id="Path_1118" d="M791.68 406.491c.273 2.191.187 3.488.374 4.908 7.005.019 16.368-5.4 16.368-5.4z" class="cls-9" transform="translate(-643.785 -330.154)"/>
        <path id="Path_1119" d="M807.154 342.324S796.244 342 794.4 335.8c-2.019-6.813-4.284 2.8-4.284 2.8l1.2 6.137H803.3z" class="cls-9" transform="translate(-642.516 -271.082)"/>
        <path id="Path_1120" d="M916.487 273.642l-.583-1.461a4.144 4.144 0 0 0-3.841-2.591H901.18v36.368h44.988v-29.465h-25.462a4.56 4.56 0 0 1-4.219-2.851z" class="cls-3" transform="translate(-732.829 -219.227)"/>
        <path id="Path_1121" d="M937.52 359.083v-2.615l9.193-4.028v2.679l-6.421 2.642 6.421 2.63v2.716z" class="cls-14" transform="translate(-762.38 -286.6)"/>
        <path id="Path_1122" d="M1001.246 335.6h2.451l-8.407 17.592h-2.46z" class="cls-14" transform="translate(-807.358 -272.906)"/>
        <path id="Path_1123" d="M1065.685 356.408v2.615l-9.195 4.026v-2.669l6.421-2.642-6.421-2.64v-2.718z" class="cls-14" transform="translate(-859.125 -286.551)"/>
        <path id="Path_1124" d="M881.29 372.6l.79-1.24a6.368 6.368 0 0 0 1.494-.818c1.041-.732.9-1.829 1.423-1.713v2.41h-.056c2.242.6 4.857-.05 4.9.506.144 1.532-1.041 2.221-2.033 2.7a3.562 3.562 0 0 1-2.989.491c-1-.312-2.582-.63-2.582-.63z" class="cls-13" transform="translate(-716.655 -299.924)"/>
        <path id="Path_1125" d="M774.534 275.9s-7.084.463-8.855 3.226-3.966 16.781-3.045 21.6 23.6-.919 23.6-.919l-.723-4.181s-13.09.077-13.835-1.629c-.99-2.263 2.858-18.097 2.858-18.097z" class="cls-10" transform="translate(-619.988 -224.359)"/>
        <path id="Path_1126" d="M1010.28 300.554a2.63 2.63 0 0 0 2.673 1.715c1-.2 2.307-2.359 1.16-2.836a3.255 3.255 0 0 0-3.833 1.121z" class="cls-13" transform="translate(-821.546 -243.303)"/>
    </g>
</svg>
