<svg xmlns="http://www.w3.org/2000/svg" width="332.503" height="208.984" viewBox="0 0 332.503 208.984">
    <defs>
        <style>
            .cls-2{fill:#dfebfd}.cls-3{fill:#cde0fb}.cls-4{fill:#afcdfb}.cls-5{fill:#94b0ed}.cls-6{fill:#628ad3}.cls-7{fill:#233862}.cls-8{fill:#163560}.cls-9{fill:#2b478b}.cls-10{fill:#ffb27d}.cls-11{fill:#ed975d}.cls-12{fill:#f99746}.cls-13{fill:#fff}.cls-14{fill:#ed7d2b}.cls-15{fill:#2c3a64}.cls-16{fill:#ed8537}.cls-17{fill:#dd6d22}.cls-18{fill:#f9ddbf}.cls-19{fill:#f2ccaa}.cls-21{fill:#a9453d}.cls-22{fill:#aec3ff}.cls-25{opacity:.7}.cls-26{fill:#9ec3f6}
        </style>
    </defs>
    <g id="Layer_2" transform="translate(0 9)">
        <g id="_лой_1" transform="translate(0 -9)">
            <path id="Path_1428" fill="#49496d" d="M322.517 207.291c-.105.293-18.518.644-18.65.937h-31.376l-1.91-.007-7.274-.023h-82.23l-6.759-.008h-.839l-11.275-.013-5.142-.006H93.755l-26.443-.029H19.494s-.078-.234-.242-.7l-.025-.058a.311.311 0 0 1-.027-.087c-.105-.234-55.34-116.6 21.845-137.746 29.548-8.1 42.091-12.142 72.85-51.4 26.032-33.22 117.591-15.465 143.547 10.827 3.4 3.448 32.556 24.9 20.356 49.419-7.7 15.483 15.034 19.326 26.442 20.229 39.023 3.081 18.542 108.08 18.277 108.665z" transform="translate(.04 -.023)"/>
            <path id="Path_1429" d="M833.587 279.187c4.149-6.668 15.725-.72 15.725-.72s4.5 15.211 6.834 16.246-1.312-13.757-1.312-13.757c4.828.955 15.054 10.3 15.054 10.3s-5.213 14.6-2.7 15.026 3.955-13.163 3.955-13.163c4.131 2.725 6.776 9.294 6.776 9.294 2.7 10.217-10.548 13.163-10.548 13.163a25.2 25.2 0 0 0-.292 11.955 18.214 18.214 0 0 1 .563 3.376l-1.237-.372c0-.364-.017-.717-.047-1.061a.009.009 0 0 0 0-.006v-.016c-.028-.216-.068-.525-.121-.9-.156-.849-.242-1.477-.291-1.92-.434-2.667-1.156-6.183-2.061-7.145a2.5 2.5 0 0 0 .435-.485l-.435.485c-3.482 3.9-14.306 1.478-19.84-1.506s-2.471-3.887 1.523-5.635 10.427.97 12.719.5-.271-2.391-4.3-3.273-7.174 2.464-13.711 1.163-7.788-14.714-7.788-14.714c3.979 2.681 12.575 2.624 13.336 1.2s-10.944-4.772-12.617-5.771-3.77-5.592.38-12.264z" class="cls-2" transform="translate(-730.394 -242.562)"/>
            <path id="Path_1430" d="M1346.954 438.458c-2.969-4.774-11.25-.515-11.25-.515s-3.222 10.882-4.89 11.62.938-9.842.938-9.842c-3.454.682-10.771 7.366-10.771 7.366s3.729 10.447 1.931 10.75-2.83-9.422-2.83-9.422c-2.955 1.95-4.849 6.65-4.849 6.65-1.94 7.308 7.549 9.417 7.549 9.417a18.068 18.068 0 0 1 .21 8.553 13.06 13.06 0 0 0-.4 2.415l.885-.266q0-.389.034-.76a.04.04 0 0 0 0-.011c.019-.155.048-.376.086-.646.112-.606.177-1.056.207-1.374.312-1.906.828-4.423 1.471-5.111a1.773 1.773 0 0 1-.312-.349l.312.349c2.491 2.789 10.232 1.057 14.194-1.078s1.764-2.772-1.091-4.022-7.465.691-9.1.355.194-1.711 3.073-2.34 5.133 1.763 9.811.831 5.577-10.527 5.577-10.527c-2.847 1.918-9 1.877-9.539.86s7.827-3.414 9.029-4.122 2.695-4.008-.275-8.781z" class="cls-3" transform="translate(-1155.542 -383.313)"/>
            <path id="Path_1431" d="M841.763 1271.9s-4.213-7.122-9.464-9.542c0 0 .728 15.949-2.25 15.9s.473-17.831.473-17.831-13.458-8.987-19.2-9.242c0 0 6.81 16.438 3.938 15.658s-10.753-17.554-10.753-17.554-14.418-4.837-18.034 3.6-.4 13.365 1.716 14.225 16.214 2.667 15.591 4.443-10.548 3.356-15.611.96c0 0 3.806 15.267 11.585 15.622s10.829-4.062 15.633-3.758 8.1 2.078 5.538 3.02-10.477-1.055-14.777 1.665-7.691 4.291-.771 6.76 19.845 3.369 23.18-1.753c1.213.954 2.66 4.889 3.637 7.889.128.5.342 1.212.673 2.168.069.229.13.438.182.618h1.342c-.113-.356-.221-.667-.318-.93-.242-.655-.41-1.015-.41-1.015a29.437 29.437 0 0 1-1.769-13.859s14.796-5.724 9.869-17.044zm-13.2 22.171c.142-.218.279-.431.41-.629a2.979 2.979 0 0 1-.41.626z" class="cls-4" transform="translate(-689.68 -1096.614)"/>
            <path id="Path_1432" d="M1299.515 1215.98v60.731l-5.142-.006h-.193v-60.725z" class="cls-5" transform="translate(-1137.27 -1068.558)"/>
            <path id="Path_1433" d="M0 0h60.765v34.885a30.383 30.383 0 0 1-30.382 30.383A30.383 30.383 0 0 1 0 34.885V0z" class="cls-4" transform="rotate(180 82.525 73.711)"/>
            <path id="Path_1434" d="M1144.948 677.64h-49.518v39.56h43.47z" class="cls-4" transform="translate(-962.616 -595.486)"/>
            <path id="Path_1435" d="M1253.26 742.91h60.765v-34.888a30.383 30.383 0 0 0-30.383-30.382 30.383 30.383 0 0 0-30.382 30.382z" class="cls-6" transform="translate(-1101.311 -595.486)"/>
            <path id="Path_1436" d="M1280.23 764.852h54.225v-31.129a27.112 27.112 0 0 0-27.113-27.113 27.112 27.112 0 0 0-27.113 27.113z" class="cls-7" transform="translate(-1125.011 -620.944)"/>
            <path id="Path_1437" d="M1342.934 1190.542H1233a1.757 1.757 0 0 1-1.757-1.757 1.755 1.755 0 0 1 1.757-1.755h109.937a1.756 1.756 0 0 1 1.756 1.755 1.756 1.756 0 0 1-1.759 1.757z" class="cls-6" transform="translate(-1081.961 -1043.118)"/>
            <path id="Path_1438" d="M1.649 0H27.4a1.745 1.745 0 0 1 1.745 1.745V3.3H0V1.649A1.65 1.65 0 0 1 1.649 0z" class="cls-5" transform="rotate(180 87.265 75.322)"/>
            <path id="Path_1439" d="M2298.616 649.638s2.324 3.828-2.044 6.239c0 0 3.357 1.212 4.526.753a2.5 2.5 0 0 1-.509.412s3.152 1 4.728.455 4.96-15.824-4.353-16.63c0 0-7.346-2.631-8.9 5.567s-4.383 7.4-4.383 7.4a4.432 4.432 0 0 0 1.067.686s.606-.039.8-.292a1.8 1.8 0 0 1-.417.517s2.979 1.126 4.8.491 4.656-3.826 4.685-5.598z" class="cls-8" transform="translate(-2010.319 -562.817)"/>
            <path id="Path_1440" d="M2300.77 1665.137h11.881a6.527 6.527 0 0 0-.335-3.185c-.6-1.318-1.52-2.133-1.6-3.142a3.567 3.567 0 0 1-3.4 1.046 12.908 12.908 0 0 1-2.062 2.667c-.783.553-4.245.359-4.484 2.614z" class="cls-7" transform="translate(-2021.822 -1457.7)"/>
            <path id="Path_1441" d="M2280.531 1113.322a10.827 10.827 0 0 1-2.072.422c-1.872.167-2.145-.391-2.145-.391s-1.86-16.556-7.881-48.2a87.789 87.789 0 0 1-1.525-11.162c-.095-1.213-.186-2.571-.286-4.158-.273-4.265.375-11.444 3.575-13.33 1.455-.859 3.438-.623 6.1 1.477.208.165.424.343.643.532 7.8 6.748 4.607 26.128 4.917 35.24a12.27 12.27 0 0 0 .514 3.58 19.9 19.9 0 0 1 1.463 4.019c1.644 11.814-3.303 31.971-3.303 31.971z" class="cls-9" transform="translate(-1991.765 -910.428)"/>
            <path id="Path_1442" d="M2281.872 1077.119l-14.954-19.762c-.094-1.212-.186-2.57-.286-4.157-.273-4.265.375-11.444 3.575-13.33l6.1 1.477c.209.164.425.343.643.532 7.806 6.749 4.607 26.134 4.922 35.24z" class="cls-7" transform="translate(-1991.774 -913.8)"/>
            <path id="Path_1443" d="M2657.987 1426.384l-4.945-10.8a6.521 6.521 0 0 0-2.756 1.631c-.951 1.091-1.64.9-3.807-.606a11.925 11.925 0 0 1 1.43 3.66c.4.05 2.668 2.242 4.985 2.846.924.234 2.949 3.985 5.093 3.269z" class="cls-7" transform="translate(-2325.618 -1243.959)"/>
            <path id="Path_1444" d="M2313.579 1070.218s10.647 37.014 14.548 39.4 24.413 5.659 28.582 7.446a3.131 3.131 0 0 0 .21-2.284 13.5 13.5 0 0 0-.655-1.588s-12.737-9.578-21.121-10.548c-2.081-.243 4.236-32.007-9.82-33.28-12.846-1.157-11.744.854-11.744.854z" class="cls-9" transform="translate(-2033.057 -939.404)"/>
            <path id="Path_1445" d="M2165.539 538.657s.243-1.187.506-2.093c.121-.4-.708-3.031-1.28-3.356s-2.061 1.455-1.641 2.809c.218.7.573 2.974.573 2.974z" class="cls-10" transform="translate(-1900.799 -468.531)"/>
            <path id="Path_1446" d="M2183.57 559.657s.311-.689.592-.8.582-1.237.788-1.682c0 0-.2-.292-.548.084-.212.228-.686.9-.686.9z" class="cls-10" transform="translate(-1918.831 -489.532)"/>
            <path id="Path_1447" d="M2584.72 595.3c.073.15.175.419.264.672v-.2c0-.5 1.883-3.241 2.655-3.412s1.862 2.393.9 3.81c-.495.728-1.992 3.323-1.992 3.323l-1.653-1a2.313 2.313 0 0 0-.458-1.265 8.93 8.93 0 0 1-.314-2.214s.33-.263.598.286z" class="cls-10" transform="translate(-2270.819 -520.539)"/>
            <path id="Path_1448" d="M2331.308 751.779c-.025.007 2.139 1.576 3.974 1.354a5.362 5.362 0 0 0 3.11-2.2c-.683-.242-.741-1.24-.109-5.389l-.327.016-5.5.263s-.129 1.7-.364 3.284c-.192 1.321-.457 2.57-.784 2.672z" class="cls-10" transform="translate(-2048.657 -655.154)"/>
            <path id="Path_1449" d="M2338.144 745.893s-.128 1.7-.364 3.284c3 .364 4.988-2.133 5.859-3.547z" class="cls-11" transform="translate(-2054.344 -655.233)"/>
            <path id="Path_1450" d="M2330.28 658a15.78 15.78 0 0 0 2.626-4.3c.494-1.472.556-7.188-5.193-7.219a7.721 7.721 0 0 0-3.35.727c-1.344.644-3.375 2.163-2.129 7.345l.267 1.728z" class="cls-8" transform="translate(-2040.342 -568.101)"/>
            <path id="Path_1451" d="M2274.41 816.95s5.394 3.406 14.38 1.213c.105-.027 5.109-.825 5.109-.825-.121-.343-5.383-9.03-5.506-9.345-1.595-4.114 2.1-23.754-.337-24.854a5.518 5.518 0 0 1-3.918 1.005c-1.751-.155-2.336-.911-2.191-1.724-1.94.915-3.427 1.767-3.427 1.767-1.771 2.658-4.11 32.763-4.11 32.763z" class="cls-10" transform="translate(-1998.657 -687.563)"/>
            <path id="Path_1452" d="M2320.721 674.387s7.055 1.169 7.716-3.237 2.015-7.221-2.461-8.153-5.606.617-6.183 2.033-.893 8.933.928 9.357z" class="cls-10" transform="translate(-2038.143 -582.37)"/>
            <path id="Path_1453" d="M2347.61 655.311s1.167 5.456 4.026 6.668 4.265.606 4.265.606a8.507 8.507 0 0 1-2.013-5.382c.001-.003-4.451-4.135-6.278-1.892z" class="cls-8" transform="translate(-2062.983 -575.278)"/>
            <path id="Path_1454" d="M2321.716 656.65a6.328 6.328 0 0 0-2.137 2.009c-.52 1.069-1.022 3.356-1.683 3.176 0 0-.937-3.729 1-5.474 2.051-1.848 2.82.289 2.82.289z" class="cls-8" transform="translate(-2036.673 -576.126)"/>
            <path id="Path_1455" d="M2219.05 584.842s-4.55 13.83-5.761 15.97c-.728 1.29-8.926 6.393-13.683 9.757a.783.783 0 0 0-.183.218c-1.188 1.837-4.878 13.2-4 15.242 3.71 8.574 6.252 11.89 7.178 14.3a2.285 2.285 0 0 1-1.367 2.974 39.128 39.128 0 0 1-6.425 1.68q-.759.131-1.557.233c-7.312.927-12.264-.788-14.777-2.061a3.344 3.344 0 0 1-1.832-3.176c.15-2.712 1.507-5.4 2.119-11.92.463-4.95-3.807-12.488-3.627-15.116a8.822 8.822 0 0 1 1.333-3.1c.785-1.429 1.212-2.722.694-3.439-3.479-4.776-10.994-11.361-11.3-13.005-.448-2.417-.242-17.353-.242-17.353a4.48 4.48 0 0 1 1.26-.389 3.951 3.951 0 0 1 1.108.121s1.99 12.375 2.14 13.031 8.537 10.108 10.8 10.07c2.043-.035 4.923 1.543 5.372 1.847a21.7 21.7 0 0 0-2.291 7.638c-.319 3.07 1.731 1.7 3.019-.4a68.274 68.274 0 0 1 5.253-6.9 9.945 9.945 0 0 1 4.983.029c2.128.772 13.134-5.445 13.486-6.017s6.25-11.554 6.25-11.554a1.371 1.371 0 0 1 1.271.121 1.434 1.434 0 0 1 .779 1.199z" class="cls-12" transform="translate(-1903.013 -505.864)"/>
            <path id="Path_1456" d="M2329.8 736.91s-.3.606-.708.62a4.714 4.714 0 0 1-1.507-.192 5.712 5.712 0 0 1-.242-.742 6.858 6.858 0 0 1 2.457.314z" class="cls-13" transform="translate(-2045.171 -647.29)"/>
            <path id="Path_1457" d="M2370.585 898.011a39.134 39.134 0 0 1-6.426 1.68c-2.523-3.48-6.79-7.855-5.7-15.906 1.136-8.321 9.316-17.079 10.3-18.286-1.188 1.837-4.878 13.2-4 15.242 3.71 8.574 6.252 11.89 7.178 14.3a2.285 2.285 0 0 1-1.351 2.974z" class="cls-14" transform="translate(-2072.365 -760.57)"/>
            <path id="Path_1458" d="M2178.627 738.525c.785-1.43 1.212-2.722.694-3.44-3.479-4.776-10.994-11.361-11.3-13.005.746 1.787 9.844 7.125 12.4 9.421 2.532 2.266-1.691 6.912-1.794 7.024z" class="cls-14" transform="translate(-1905.166 -634.538)"/>
            <path id="Path_1459" d="M1683.388 424.7s-.364-3.983 4.085-3.983a5.232 5.232 0 0 0-2.045 1.091 5.264 5.264 0 0 1 5.927.895c3.089 2.56 1.169 8.981 2.108 10.2s4.6 1.463 4.15 5.4-11.613 8.897-10.892 12.154c0 0-4.375-6.426-1.247-9.365a5.794 5.794 0 0 0-1.679 3.143s-.414-3.332 1.706-4.4c1.876-.943 3.414-4.393 3.252-5.01s-5.365-10.125-5.365-10.125z" class="cls-15" transform="translate(-1479.284 -369.715)"/>
            <path id="Path_1460" d="M1607.469 591.52s-6.335 15.977-7.7 15.385-9.406-3.146-9.406-3.146l-.528 1.957s7.651 5.9 11.588 6.155 9.271-11.343 9.271-11.343z" class="cls-10" transform="translate(-1397.084 -519.807)"/>
            <path id="Path_1461" d="M1421.218 671.395l6.245 21.823a2.813 2.813 0 0 1-1.928 3.472l-37.9 10.844a2.805 2.805 0 0 1-3.469-1.928l-6.243-21.812a2.807 2.807 0 0 1 1.925-3.472l37.9-10.844a2.808 2.808 0 0 1 3.47 1.917z" class="cls-16" transform="translate(-1210.766 -588.218)"/>
            <path id="Path_1462" d="M1476.593 835.572a2.807 2.807 0 0 1-2.028 2.511l-37.9 10.844a2.808 2.808 0 0 1-3.056-1.07l19.3-17.586z" class="cls-17" transform="translate(-1259.796 -729.612)"/>
            <path id="Path_1463" d="M1421.218 671.387l-16.967 21.068-26.006-7.554-.32-1.115a2.807 2.807 0 0 1 1.925-3.472l37.9-10.844a2.808 2.808 0 0 1 3.468 1.917z" class="cls-12" transform="translate(-1210.766 -588.209)"/>
            <path id="Path_1464" d="M1585.856 691.859s-3.468-1.465-3.949.389c-.254.98-.849 2.274.221 2.182s2.143-.815 2.264-1.4 1.464-1.171 1.464-1.171z" class="cls-10" transform="translate(-1389.766 -607.498)"/>
            <path id="Path_1465" d="M1809.65 716.4l-.092.161c-.727 1.263-2.4 4.365-4.234 7.753-.871 1.609-1.781 3.283-2.644 4.859-1.488 2.72-2.842 5.141-3.637 6.426-.8 1.3-1.4 2.215-1.634 2.581a.608.608 0 0 0-.078.378 19.7 19.7 0 0 1-.052 3.409 26.158 26.158 0 0 1-8.547 16.943l-2.211.326s3.129-11.6 4.052-18.151a12.733 12.733 0 0 0 .17-2.6 27.147 27.147 0 0 1 .713-7.094 159.083 159.083 0 0 1 4.523-16.422c.1-.32 3.213-11.571 3.213-11.571 2.611 2.282 12.133 3.222 12.133 3.222s1.615 3.924-1.675 9.78z" class="cls-9" transform="translate(-1569.919 -618.123)"/>
            <path id="Path_1466" d="M1748.26 1149.741h9.231a5.078 5.078 0 0 0-.261-2.474c-.462-1.024-1.12-1.057-.085-2.667-.585.606-2.472.849-3.806.674a11.323 11.323 0 0 1-1.6 2.436c-.601.437-3.292.282-3.479 2.031z" class="cls-7" transform="translate(-1536.298 -1005.833)"/>
            <path id="Path_1467" d="M1929.522 771.154l-.093.161c-.727 1.263-4.661 8.532-6.5 11.921a49.156 49.156 0 0 0 .649-17.526z" class="cls-7" transform="translate(-1689.791 -672.879)"/>
            <path id="Path_1468" d="M1657.115 448.525a36.931 36.931 0 0 1 5.542 2.71c2.5 2.774 1.788 6.394.357 6.426-.918.023-.74 1.548-.74 1.548l-10.224-4.325s1.231-7.184 5.065-6.359z" class="cls-15" transform="translate(-1451.752 -394.091)"/>
            <path id="Path_1469" d="M1712.293 594.27s-1.363 1.41-1.363 5.63c0 0 1.877 2.961 6.742 3.711 0 0-4.188-9.343-5.379-9.341z" class="cls-18" transform="translate(-1503.493 -522.224)"/>
            <path id="Path_1470" d="M1917.72 693.316l-.03-1.727c3.44.434 11.86-4.11 11.86-4.11s3.6 2.393 4.091 9.229c.242 3.335 1.762 17.445 1.93 21.658.062 1.527.083 2.616.089 3.052a.6.6 0 0 0 .146.355 19.727 19.727 0 0 1 1.865 2.857c5.249 9.766 2.5 23.035 2.5 23.035l-1.219-.309s-4.439-13.756-7.339-19.706a12.341 12.341 0 0 0-1.314-2.248 27.138 27.138 0 0 1-3.374-6.281c-2.14-5.115-9.205-25.805-9.205-25.805z" class="cls-9" transform="translate(-1685.186 -604.133)"/>
            <path id="Path_1471" d="M2042.59 1149.292h9.23a5.061 5.061 0 0 0-.26-2.473c-.462-1.025-1.186-1.49-1.013-2.729a3.317 3.317 0 0 1-2.877 1.1 10.218 10.218 0 0 1-1.6 2.076c-.606.434-3.295.278-3.48 2.026z" class="cls-7" transform="translate(-1794.943 -1005.384)"/>
            <path id="Path_1472" d="M1728.173 564.884c1.24.211-.2 1.2 1.5 1.382a30.754 30.754 0 0 1 6.245.97 1.4 1.4 0 0 1 .9.727c.568 1.712 4.172 4.652 4.172 4.652 16.074-.727 16.742-7.759 16.742-7.759-10.427-10.132-20.023-16.107-27.347-16.9-1.253-.136-2.838.661-3.967 1.163-2.566 1.142-4.251 4.434-4.251 4.434s1.295 10.522 6.006 11.331z" class="cls-18" transform="translate(-1513.371 -481.514)"/>
            <path id="Path_1473" d="M1784.08 604.3a30.753 30.753 0 0 1 6.245.97 25.585 25.585 0 0 0-3.247-14.046s-2.467 10.038-2.998 13.076z" class="cls-19" transform="translate(-1567.775 -519.544)"/>
            <path id="Path_1474" d="M1731.351 579.947s6.1-.333 7.188 3.5-2.034 19.128-2.706 20.706c-1.225 2.875-7.182 11.078-7.182 11.078l-2.191-.667s3.972-12.532 4.859-13.773c1.39-1.944-1.794-19.175.032-20.844z" class="cls-10" transform="translate(-1517.141 -509.631)"/>
            <path id="Path_1475" d="M1710.879 863.554a3.453 3.453 0 0 1-.524 1.473c-.411.5-1.605 1.716-1.626 2.425 0 0 .061.315.316.258s1.146-.939 1.6-.875a8.648 8.648 0 0 1-.485 1.819 5.219 5.219 0 0 0 .1 2.448c.144.346 1.925-1.857 2.658-2.842s.012-4.979.012-4.979z" class="cls-10" transform="translate(-1501.56 -758.62)"/>
            <path id="Path_1476" d="M1760.6 580.434c-.016.09-5.776 1.06-9.378-.769 0 0-3.01-9.429 1.291-8.972s6.848 1.805 6.956 3.865a39.39 39.39 0 0 0 1.131 5.876z" class="cls-18" transform="translate(-1538.005 -501.492)"/>
            <path id="Path_1477" d="M1709.241 534.457s-1.7 6.332-4.251 4.434a5.233 5.233 0 0 0-.9-2.1c-.67-1.153-1.471-2.331-1.471-2.331l3.455-3.031.206-.181a9.114 9.114 0 0 0 2.961 3.209z" class="cls-10" transform="translate(-1496.191 -466.845)"/>
            <path id="Path_1478" fill="#ed985f" d="M1702.63 535.8s.8 1.177 1.469 2.331c2.147-1.324 2.15-3.982 1.985-5.359z" transform="translate(-1496.2 -468.18)"/>
            <path id="Path_1479" d="M1661.027 492.568s5.213-2.9 3.357-6.12-2.435-5.761-5.842-4.045-3.34 3.315-2.983 4.539 4.064 6.297 5.468 5.626z" class="cls-10" transform="translate(-1454.692 -423.434)"/>
            <path id="Path_1480" d="M1649.24 481.916c.243-1.429.97-1.566 1.471-1.471a4.169 4.169 0 0 1 5.071-1.94 7.1 7.1 0 0 0 4.108 2.467s-.606 1.126-3.1 1.819a4.259 4.259 0 0 1-2.459-.2 13.871 13.871 0 0 0 3.538 1.334c-3.284.3-6.41-2.7-6.735-3.024a4.686 4.686 0 0 0-.258 2.152c.217.97 1.077 2.722.552 2.948.003.006-2.545-1.948-2.188-4.085z" class="cls-15" transform="translate(-1449.253 -420.284)"/>
            <path id="Path_1481" d="M1048.1 820.683a1.154 1.154 0 0 1 .2 1.232 7.646 7.646 0 0 1-2.417 2.651c-.146.121-.275.224-.388.324-.03.027-.06.052-.088.079s-.045.041-.067.06c-1.063.98-.663 1.2-2.573 3.192-2.182 2.265-3.676 2.3-4.1 2.1-.364-.176.372-1.377 1.184-2.728.039-.065.078-.131.121-.2.108-.18.216-.364.324-.542.952-1.626.707-2.388.485-4.806-.183-1.965-3.058-10.979-3.058-10.979l4.172-.719s1.256 7.179 2.64 8.283c.74.589 1.569.6 2.28 1.034.05.03.1.061.148.093a5.938 5.938 0 0 1 1.137.926z" class="cls-10" transform="translate(-911.912 -712.107)"/>
            <path id="Path_1482" d="M1054.229 888.216a1.155 1.155 0 0 1 .2 1.232 8.837 8.837 0 0 1-2.425 2.643c-.143.121-.27.23-.383.332-.03.027-.06.052-.088.079s-.045.041-.066.059c-1.063.98-.663 1.2-2.573 3.192-2.182 2.265-3.676 2.3-4.1 2.1-.364-.176.372-1.377 1.185-2.728a9.272 9.272 0 0 0 3.88-2.859c1.311-1.673 2.182-3.823 3.078-5.067.05.03.1.061.148.093a5.717 5.717 0 0 1 1.144.924z" class="cls-7" transform="translate(-918.039 -779.64)"/>
            <path id="Path_1483" d="M755.049 808.921c-.258 1.288-2.094 1.073-4.144.572s-1.564.095-4.486-.229-3.8-1.411-3.892-1.845c-.08-.384 1.363-.52 2.91-.7.194-.022.389-.046.586-.07 1.746-.219 3.031-1.346 4.607-2.272 1.5-.877 3.745-4.448 3.745-4.448l4 .318s-2.1 3.19-2.91 4.577a4.84 4.84 0 0 0-.393 2.728 5.128 5.128 0 0 1-.023 1.369z" class="cls-10" transform="translate(-652.496 -702.95)"/>
            <path id="Path_1484" d="M750.9 858.713c-2.051-.5-1.564.095-4.486-.229s-3.8-1.411-3.892-1.845c-.08-.384 1.363-.52 2.91-.7l.015.029a8.222 8.222 0 0 0 4.179 1.3c1.98.048 4.077-.519 5.445-.5a5.123 5.123 0 0 1-.03 1.369c-.251 1.291-2.086 1.076-4.141.576z" class="cls-7" transform="translate(-652.496 -752.169)"/>
            <path id="Path_1485" d="M972.35 616.49l3.741 10.063 4.885 13.146a7.919 7.919 0 0 0 2.6-.242 11.263 11.263 0 0 0 2.51-1.222s-1.357-14.106-3.887-22.207a14.338 14.338 0 0 0-2.182-4.709c-3.922-4.637-7.667 5.171-7.667 5.171z" class="cls-7" transform="translate(-854.458 -536.112)"/>
            <path id="Path_1486" d="M843.347 516.53c2.45-.79 9.442.226 16.465 1.6l1.471-2.425 15.169-1.184s5.006 11.1 2.266 18.174a2.564 2.564 0 0 1-2.568 1.729h-12.181c-7.543 0-15.966-5.185-17.056-5.4-1.783-.356-2.5 3.21-4.28 6.955s-16.763 16.578-16.763 16.578a13.138 13.138 0 0 1-3.253-.335 3.2 3.2 0 0 1-1.4-.881s16.602-33.028 22.13-34.811z" class="cls-9" transform="translate(-721.651 -452.143)"/>
            <path id="Path_1487" d="M1094.769 172.887c4.784 3.891 16.312 10.633 16.375 10.6 0 0 3.692 2.213 6.211 1.128 4.2-1.809 7.424-8.142 1.616-15.155-2.9-3.5-5.3-4.646-4.728-9.292.606-5.035-1.662-11.364-7.456-11.629a16 16 0 0 0-5.512.242c-5.345 1.684-14.269 21.528-6.506 24.106z" class="cls-21" transform="translate(-959.363 -130.416)"/>
            <path id="Path_1488" d="M1191.247 263.153c.024 0-1.166 2.6-2.9 3.229-1.842.672-4.457-.421-4.433-.435.313-.178.536-1.359.415-2.779a1.618 1.618 0 0 0-.019-.2 25.674 25.674 0 0 0-.651-3.442l5.613-1.605.333-.1c.353 4.431.885 5.246 1.642 5.332z" class="cls-10" transform="translate(-1040.149 -226.565)"/>
            <path id="Path_1489" d="M1189.252 258.57c-.55 1.628-1.94 4.579-4.971 5.052a25.713 25.713 0 0 0-.651-3.442z" class="cls-11" transform="translate(-1040.123 -227.224)"/>
            <path id="Path_1490" d="M1152.345 191.25s7.568-.5 7.182-5.213.331-7.944-4.517-7.821-5.639 2-5.892 3.6 1.248 9.444 3.227 9.434z" class="cls-10" transform="translate(-1009.77 -156.609)"/>
            <path id="Path_1491" d="M1164.72 170.211s1.88 5.516 6.344 6.158c3.258.468 4.55-.412 4.55-.412a12.78 12.78 0 0 1-2.8-4.384 2.3 2.3 0 0 0-1.8-1.482c-2.323-.357-5.314-1.891-6.294.12z" class="cls-21" transform="translate(-1023.505 -148.686)"/>
            <path id="Path_1492" d="M1148.733 178.243a5 5 0 0 0-2.293 2.563 9.623 9.623 0 0 0-.57 4.81s-2.176-5.034-.606-7.3c1.67-2.41 3.469-.073 3.469-.073z" class="cls-21" transform="translate(-1005.909 -155.741)"/>
            <path id="Path_1493" d="M1157.008 319.062c-.135.572-.25 1.1-.344 1.583-.153.782-.26 1.455-.334 2.053-.23 1.857-.161 2.957-.316 4.16a10.392 10.392 0 0 1-.565 2.266c-.312.862-8.515 1.631-13.181 1.32a6.4 6.4 0 0 1-3.012-.651c-1.665-1.445-1.5 1.734-1.727-13.481-.11-7.421 6.3-14.031 6.3-14.031s.512 3.17 6.867-.606c.226-.132 2.728 3.573 5.137 8.136 2.652 5.045 1.924 6.112 1.175 9.251z" class="cls-22" transform="translate(-999.61 -265.1)"/>
            <path id="Path_1494" d="M1003.21 669.706l4.885 13.146a7.914 7.914 0 0 0 2.6-.243 11.258 11.258 0 0 0 2.51-1.222s-1.357-14.106-3.887-22.207z" class="cls-9" transform="translate(-881.577 -579.264)"/>
            <path id="Path_1495" d="M1092.5 306.69s-6.539 1.108-7.307 3.924-6.073 18.56-6.073 18.56 4.111 1.4 5.646-.133 5.344-14.248 5.344-14.248z" class="cls-22" transform="translate(-948.284 -269.51)"/>
            <path id="Path_1496" d="M1167.1 260.716a1.3 1.3 0 0 1-1.009.953c-.824.137-1.068.051-1.254-.1a2.659 2.659 0 0 1-.4-.46 7.174 7.174 0 0 1 2.663-.393z" class="cls-13" transform="translate(-1023.26 -229.099)"/>
            <path id="Path_1497" d="M1189.742 472.024c-.23 1.857-.161 2.957-.316 4.16-5.941.019-13.876-4.584-13.876-4.584z" class="cls-5" transform="translate(-1033.022 -414.426)"/>
            <path id="Path_1498" d="M1175.55 384.386s9.249-.275 10.808-5.532c1.713-5.776 3.637 2.375 3.637 2.375l-1.021 5.2h-10.146z" class="cls-5" transform="translate(-1033.022 -331.107)"/>
            <path id="Path_1499" d="M1035.851 391.105l-14.35.133-7.061-16.594 14.35-.135z" class="cls-18" transform="translate(-891.445 -329.107)"/>
            <path id="Path_1500" d="M1122.205 430.5l-1.051-1.292a3.7 3.7 0 0 0-1.228-.743c-.516-.108-1.608-.736-1.713-.559s.838 1.441.838 1.441l.047.007c-1.083.815-3.818.095-4.156.428-.409.4.564 1.273 1.085 1.763a3.826 3.826 0 0 0 3.177.942c.849-.264 2.182-.535 2.182-.535z" class="cls-10" transform="translate(-979.677 -376)"/>
            <path id="Path_1501" d="M1174.237 301.74s6 .393 7.5 2.734 3.363 14.23 2.582 18.307-20-.781-20-.781l.606-3.543s11.1.064 11.729-1.381c.846-1.915-2.417-15.336-2.417-15.336z" class="cls-22" transform="translate(-1023.154 -265.16)"/>
            <path id="Path_1502" d="M1022.674 394.862s.9-1.024 1.475-.532-.15 2.91-.7 2.667-1.089-1.834-.775-2.135z" class="cls-10" transform="translate(-898.6 -346.407)"/>
            <path id="Path_1503" d="M427.514 690.819c-.319-.97 10.719-2.491 9.487 6.318 0 0 19.8 2.656 12.132-9.835-2.654-4.325-1.819-7.417-1.253-10.331s-.208-11.76-7.644-12.072a5.5 5.5 0 0 0-4.365-.224c-5.879 1.951-22.371 27.233-8.357 26.144z" class="cls-8" transform="translate(-370.846 -583.803)"/>
            <path id="Path_1504" d="M599.87 866.211a19.506 19.506 0 0 0 1.988 3.007c1.544 1.94 9.652-2.657 8.953-3.007s-4.772-12.086-5.742-13.561-4.276-2.24-4.276-2.24z" class="cls-18" transform="translate(-527.137 -747.31)"/>
            <path id="Path_1505" d="M360.749 1626.648s-2.238 2.041-1.8 3.493 2.455 2.418 2.728 4.191 1.365 2.741 2.347 2.741h4.683s.727-1.248-1.023-1.625-2.405-2.455-2.3-4.395a34.06 34.06 0 0 0-.164-4.513l-3.711-.86z" class="cls-7" transform="translate(-315.375 -1428.587)"/>
            <path id="Path_1506" d="M528.179 1640.81s-.8 8.65.177 9.134l12.573-.025s0-1.455-2.02-1.773-5.566-1.5-6.167-4.138-4.563-3.198-4.563-3.198z" class="cls-7" transform="translate(-463.865 -1441.882)"/>
            <path id="Path_1507" d="M456.118 825.533c2.587-5.8 4.171-7.467 3.868-9.269-.224-1.334.685-24.99.685-24.99.308-.095.923-.179 1.26-.255a3.158 3.158 0 0 0 2.3-2.005 16.085 16.085 0 0 0 .782-5.335l.331.065 5.577 1.1s-.121 1.754-.131 3.405v.041a3.2 3.2 0 0 0 2.313 3.1l1.315.377a51.075 51.075 0 0 1 2.437 11.843c.39 6-3.721 8.608.031 20.6 3.831 12.248-22.198 4.529-20.768 1.323z" class="cls-10" transform="translate(-400.764 -688.67)"/>
            <path id="Path_1508" fill="#e8945b" d="M538.233 785.313s-.121 1.754-.131 3.406c-3.118-.087-4.766-2.933-5.442-4.509z" transform="translate(-468.076 -689.136)"/>
            <path id="Path_1509" d="M533.3 719.16s-7.3-1.04-6.587-5.577.258-7.732 4.953-7.259 5.325 2.345 5.453 3.921-1.903 9.067-3.819 8.915z" class="cls-10" transform="translate(-462.804 -620.652)"/>
            <path id="Path_1510" d="M519.954 700.962s-2.842 5.007-6.03 5.307-4.384-.728-4.384-.728a8.779 8.779 0 0 0 3.652-4.67s5.662-2.683 6.762.091z" class="cls-8" transform="translate(-447.759 -614.875)"/>
            <path id="Path_1511" d="M590.79 708.083a4.571 4.571 0 0 1 1.828 1.964 7.418 7.418 0 0 1 .321 4.323s2.079-3.379.717-5.7c-1.445-2.451-2.866-.587-2.866-.587z" class="cls-8" transform="translate(-519.158 -621.643)"/>
            <path id="Path_1512" d="M450.047 856.773a49.939 49.939 0 0 0 0 5.811c.121 2.1 2.249 4.915 2.546 5.612.757 1.746 1.61 2.03 1.61 2.03l6.6 1.617 2.32.569 7.319-2.182s3.334-9.305 2-14.549a40.088 40.088 0 0 0-3.384-8.875s-5.974 5.847-13.75-.5z" class="cls-18" transform="translate(-395.404 -743.707)"/>
            <path id="Path_1513" d="M445.47 939.9c.121 2.1 2.878 4.841 3.18 5.538.757 1.746 1.61 2.029 1.61 2.029l6.6 1.617 1.766-2.483s-10.686-2.972-8.663-12.393z" class="cls-19" transform="translate(-391.457 -820.95)"/>
            <path id="Path_1514" d="M527.082 1055.22s3.625 11.282 3.858 15.128-6.929 54.569-7.217 56.339c-.272 1.668-2.344 2.731-2.344 2.731a3.129 3.129 0 0 1-2.312.178 5.7 5.7 0 0 1-2.483-1.171s-2.821-36.177-1.075-49.1a204.706 204.706 0 0 0 1.766-24.1z" class="cls-14" transform="translate(-452.503 -927.289)"/>
            <path id="Path_1515" d="M393.594 1052.44s-5.529 7.419-6.044 12.435-.809 22.63-1.907 27.521-5.133 14.3-5.133 29.546a3.019 3.019 0 0 0 1.714 1.334 14.141 14.141 0 0 0 1.508.417 2.37 2.37 0 0 0 2.656-1.255c2.728-5.492 11.417-23.206 11.863-26.883.315-2.6 3.059-19.824 9.043-29.929 1.437-2.425-.883-12.074-.883-12.074z" class="cls-12" transform="translate(-334.372 -924.846)"/>
            <path id="Path_1516" d="M573.2 787.469s.041.554 1.385.684c0 0 1.128.109 1.187-.485a3.65 3.65 0 0 0-2.572-.199z" class="cls-13" transform="translate(-503.701 -691.882)"/>
            <path id="Path_1517" d="M498.743 1040.85a7.607 7.607 0 0 1-4.346 1.212c-3.453.069-12-.88-12-.88a7.1 7.1 0 0 0-.364 2.182s10.45 2.635 16.5.384a3.888 3.888 0 0 0 .21-2.898z" class="cls-7" transform="translate(-423.584 -914.661)"/>
            <path id="Path_1518" d="M577.87 1047.734a1.588 1.588 0 1 1 1.576 1.783 1.691 1.691 0 0 1-1.576-1.783zm.523 0a1.07 1.07 0 1 0 1.052-1.261 1.172 1.172 0 0 0-1.052 1.261z" class="cls-13" transform="translate(-507.805 -919.143)"/>
            <path id="Path_1519" fill="#c5d9ea" d="M528.6 970.483l15.705.147 7.729-18.163-15.706-.147z" transform="translate(-464.508 -836.864)"/>
            <path id="Path_1520" d="M545.54 1013.622l1.152-1.415a4.054 4.054 0 0 1 1.343-.813c.565-.119 1.759-.806 1.875-.606s-.918 1.576-.918 1.576l-.052.007c1.186.891 4.179.1 4.549.468.449.441-.616 1.394-1.187 1.93a4.189 4.189 0 0 1-3.477 1.031c-.931-.29-2.4-.584-2.4-.584z" class="cls-10" transform="translate(-479.394 -888.211)"/>
            <path id="Path_1521" d="M698.767 974.594s-.987-1.122-1.615-.583.165 3.186.762 2.91 1.2-1.998.853-2.327z" class="cls-10" transform="translate(-612.423 -855.797)"/>
            <path id="Path_1522" d="M400.035 846.32s-5.237.364-7.244 5.247-5.731 15.285-5.731 16.658 4.11 6.45 20.191 2.529c0 0 .548-1.543-.526-2.323 0 0-11.211-3.6-11.193-4.316.036-1.354 1.516-2.524 7.778-8.789 1.703-1.698-3.275-9.006-3.275-9.006z" class="cls-18" transform="translate(-340.128 -743.716)"/>
            <g id="Group_218" class="cls-25" transform="translate(230.484 50.204)">
                <path id="Path_1523" d="M1979.36 448.43l15.688 5.13-9.4-9.16-.953 2.238-4.038.019z" class="cls-26" transform="translate(-1969.863 -440.728)"/>
                <path id="Path_1524" d="M1926.215 431.274l-12.176-9.263-13.009-2.972z" class="cls-13" transform="translate(-1901.03 -418.442)"/>
                <path id="Path_1525" d="M2031.24 417.782l9.4 9.16-6.264-12.832z" class="cls-13" transform="translate(-2015.453 -414.11)"/>
            </g>
            <g id="Group_219" class="cls-25" transform="translate(173.368 22.142)">
                <path id="Path_1526" d="M1446.482 222.536l-16.552 2.364 10.984-7.487.557 2.4 4.025.729z" class="cls-26" transform="translate(-1429.93 -213.196)"/>
                <path id="Path_1527" d="M1429.93 222.77l13.774-7.1 13.5-.679z" class="cls-13" transform="translate(-1429.93 -211.069)"/>
                <path id="Path_1528" d="M1440.914 186.864l-10.984 7.487 8.5-11.7z" class="cls-13" transform="translate(-1429.93 -182.65)"/>
            </g>
            <path id="Path_1529" d="M693.122 1631.92h-.97c-5.033-.979-22.861-4.831-22.709-10.287.165-5.902 20.74 8.237 23.679 10.287z" class="cls-3" transform="translate(-588.275 -1423.773)"/>
            <path id="Path_1530" d="M742.11 1515.093h-3.666c-9.261-6.043-23.128-16.434-22.046-23.783 1.613-10.964 10.937 3.19 13.973 8.741 1.89 3.457 7.656 10.339 11.739 15.042z" class="cls-3" transform="translate(-629.485 -1306.947)"/>
            <path id="Path_1531" d="M142.049 865.881l-5.449 7.309a1.129 1.129 0 0 1-1.576.23l-12.695-9.457a1.128 1.128 0 0 1-.229-1.576l5.444-7.307a1.128 1.128 0 0 1 1.576-.232l12.695 9.457a1.129 1.129 0 0 1 .234 1.576z" class="cls-3" transform="translate(-107.098 -751.016)"/>
            <path id="Path_1532" fill="#bed7fb" d="M136.308 932.17a1.128 1.128 0 0 1-1.3-.036l-12.695-9.457a1.127 1.127 0 0 1-.4-1.237l10.317 1.878z" transform="translate(-107.084 -809.728)"/>
            <path id="Path_1533" d="M181.084 865.863l-10.861-.285-3.923-10.143.279-.374a1.127 1.127 0 0 1 1.576-.232l12.695 9.457a1.129 1.129 0 0 1 .234 1.577z" class="cls-2" transform="translate(-146.133 -750.998)"/>
            <path id="Path_1534" d="M1398.45 1267.765l6.28 34.582a4.353 4.353 0 0 1-3.5 5.055l-60.057 10.911a4.348 4.348 0 0 1-5.051-3.5l-6.276-34.566a4.347 4.347 0 0 1 3.5-5.056l60.056-10.9a4.348 4.348 0 0 1 5.048 3.474z" class="cls-16" transform="translate(-1168.547 -1110.944)"/>
            <path id="Path_1535" d="M1454.369 1505.641a4.345 4.345 0 0 1-3.516 3.557l-60.057 10.912a4.347 4.347 0 0 1-4.546-2.119l32.436-24.14z" class="cls-17" transform="translate(-1218.177 -1312.74)"/>
            <path id="Path_1536" d="M1398.442 1267.738l-29.369 29.866-38.918-15.622-.321-1.769a4.347 4.347 0 0 1 3.5-5.056l60.056-10.9a4.348 4.348 0 0 1 5.052 3.481z" class="cls-12" transform="translate(-1168.538 -1110.917)"/>
            <path id="Path_1537" d="M1961.925 1544.048c1.455-.77 3.395-4.536.183-10.314s-13.18-1.251-13.18-1.251-4.411 12.592-6.411 13.362 1.669-11.5 1.669-11.5c-4.094.606-13.071 8.03-13.071 8.03s2.278 7.531 2.3 11.011h20.232l7.274.023a30.638 30.638 0 0 0 1.412-5.489c-3.453 2.088-10.669 1.687-11.25.459s9.389-3.56 10.842-4.331zm-38.017 7.365a8.828 8.828 0 0 0-.4 1.969h7.9c-1.061-3.152-1.423-9.5-1.423-9.5-3.585 2.118-6.078 7.531-6.078 7.531z" class="cls-3" transform="translate(-1690.301 -1345.207)"/>
            <rect id="Rectangle_2022" width="324.722" height="1.555" fill="#2e3552" rx=".778" transform="translate(7.781 207.429)"/>
            <path id="Path_1538" d="M1621.456 1479.439c.3-1.113.8-1.86 1.838-1.871a2.192 2.192 0 0 1 2.378 1.888c.354 1.366-1.071 1.867-2.107 1.972-1.48.148-2.383-.988-2.109-1.989z" class="cls-9" transform="translate(-1424.824 -1298.432)"/>
        </g>
    </g>
</svg>
